<svg version="1.1" xmlns="http://www.w3.org/2000/svg" xmlns:xlink="http://www.w3.org/1999/xlink" width="413.44209" height="163.05057" viewBox="0,0,413.44209,163.05057"><g transform="translate(-33.27896,-98.47472)"><g data-paper-data="{&quot;isPaintingLayer&quot;:true}" fill-rule="nonzero" stroke-linejoin="miter" stroke-miterlimit="10" stroke-dasharray="" stroke-dashoffset="0" style="mix-blend-mode: normal"><g><path d="M39.98564,101.98027c0,1.852 -1.50135,3.35334 -3.35334,3.35334c-1.852,0 -3.35334,-1.50134 -3.35334,-3.35334c0,-1.852 1.50135,-3.35335 3.35334,-3.35335c1.852,0 3.35334,1.50135 3.35334,3.35335z" data-paper-data="{&quot;index&quot;:null}" fill="#9a9a9a" stroke="none" stroke-width="NaN" stroke-linecap="butt"/><path d="M78.22654,101.21069l0.09735,18.30982l-41.94041,-0.21784l0.16332,-17.95071" data-paper-data="{&quot;index&quot;:null}" fill="none" stroke="#9a9a9a" stroke-width="2" stroke-linecap="round"/><path d="M78.03438,98.47472c1.852,0 3.35335,1.50135 3.35335,3.35335c0,1.852 -1.50135,3.35334 -3.35335,3.35334c-1.852,0 -3.35334,-1.50134 -3.35334,-3.35334c0,-1.852 1.50134,-3.35335 3.35334,-3.35335z" data-paper-data="{&quot;index&quot;:null}" fill="#9a9a9a" stroke="none" stroke-width="NaN" stroke-linecap="butt"/><path d="M57.63334,132.69761l-0.2,-13.2" fill="none" stroke="#9a9a9a" stroke-width="2" stroke-linecap="round"/></g><g><path d="M92.31897,101.98027c0,1.852 -1.50134,3.35334 -3.35334,3.35334c-1.852,0 -3.35335,-1.50134 -3.35335,-3.35334c0,-1.852 1.50135,-3.35335 3.35335,-3.35335c1.852,0 3.35334,1.50135 3.35334,3.35335z" data-paper-data="{&quot;index&quot;:null}" fill="#9a9a9a" stroke="none" stroke-width="NaN" stroke-linecap="butt"/><path d="M130.55987,101.21069l0.09735,18.30982l-41.94041,-0.21784l0.16332,-17.95071" data-paper-data="{&quot;index&quot;:null}" fill="none" stroke="#9a9a9a" stroke-width="2" stroke-linecap="round"/><path d="M130.36771,98.47472c1.852,0 3.35334,1.50135 3.35334,3.35335c0,1.852 -1.50134,3.35334 -3.35334,3.35334c-1.852,0 -3.35335,-1.50134 -3.35335,-3.35334c0,-1.852 1.50135,-3.35335 3.35335,-3.35335z" data-paper-data="{&quot;index&quot;:null}" fill="#9a9a9a" stroke="none" stroke-width="NaN" stroke-linecap="butt"/><path d="M109.76667,119.49761l0.2,13.2" fill="none" stroke="#9a9a9a" stroke-width="2" stroke-linecap="round"/></g><g><path d="M65.98564,139.3136c0,1.852 -1.50135,3.35335 -3.35335,3.35335c-1.852,0 -3.35334,-1.50135 -3.35334,-3.35335c0,-1.852 1.50135,-3.35334 3.35334,-3.35334c1.852,0 3.35335,1.50134 3.35335,3.35334z" data-paper-data="{&quot;index&quot;:null}" fill="#9a9a9a" stroke="none" stroke-width="NaN" stroke-linecap="butt"/><path d="M104.22654,138.54402l0.09735,18.30982l-41.94041,-0.21783l0.16332,-17.95071" data-paper-data="{&quot;index&quot;:null}" fill="none" stroke="#9a9a9a" stroke-width="2" stroke-linecap="round"/><path d="M104.03438,135.80805c1.852,0 3.35335,1.50135 3.35335,3.35335c0,1.852 -1.50135,3.35334 -3.35335,3.35334c-1.852,0 -3.35334,-1.50134 -3.35334,-3.35334c0,-1.852 1.50134,-3.35335 3.35334,-3.35335z" data-paper-data="{&quot;index&quot;:null}" fill="#9a9a9a" stroke="none" stroke-width="NaN" stroke-linecap="butt"/><path d="M83.63334,170.03095l-0.2,-13.2" fill="none" stroke="#9a9a9a" stroke-width="2" stroke-linecap="round"/></g><g><path d="M144.98564,101.98027c0,1.852 -1.50134,3.35334 -3.35334,3.35334c-1.852,0 -3.35334,-1.50134 -3.35334,-3.35334c0,-1.852 1.50134,-3.35335 3.35334,-3.35335c1.852,0 3.35334,1.50135 3.35334,3.35335z" data-paper-data="{&quot;index&quot;:null}" fill="#9a9a9a" stroke="none" stroke-width="NaN" stroke-linecap="butt"/><path d="M183.22654,101.21069l0.09734,18.30982l-41.94041,-0.21784l0.16332,-17.95071" data-paper-data="{&quot;index&quot;:null}" fill="none" stroke="#9a9a9a" stroke-width="2" stroke-linecap="round"/><path d="M183.03438,98.47472c1.852,0 3.35334,1.50135 3.35334,3.35335c0,1.852 -1.50134,3.35334 -3.35334,3.35334c-1.852,0 -3.35335,-1.50134 -3.35335,-3.35334c0,-1.852 1.50135,-3.35335 3.35335,-3.35335z" data-paper-data="{&quot;index&quot;:null}" fill="#9a9a9a" stroke="none" stroke-width="NaN" stroke-linecap="butt"/><path d="M162.63333,132.69761l-0.2,-13.2" fill="none" stroke="#9a9a9a" stroke-width="2" stroke-linecap="round"/></g><g><path d="M197.31897,101.98027c0,1.852 -1.50135,3.35334 -3.35335,3.35334c-1.852,0 -3.35334,-1.50134 -3.35334,-3.35334c0,-1.852 1.50134,-3.35335 3.35334,-3.35335c1.852,0 3.35335,1.50135 3.35335,3.35335z" data-paper-data="{&quot;index&quot;:null}" fill="#9a9a9a" stroke="none" stroke-width="NaN" stroke-linecap="butt"/><path d="M235.55987,101.21069l0.09735,18.30982l-41.94041,-0.21784l0.16332,-17.95071" data-paper-data="{&quot;index&quot;:null}" fill="none" stroke="#9a9a9a" stroke-width="2" stroke-linecap="round"/><path d="M235.36771,98.47472c1.852,0 3.35334,1.50135 3.35334,3.35335c0,1.852 -1.50134,3.35334 -3.35334,3.35334c-1.852,0 -3.35334,-1.50134 -3.35334,-3.35334c0,-1.852 1.50134,-3.35335 3.35334,-3.35335z" data-paper-data="{&quot;index&quot;:null}" fill="#9a9a9a" stroke="none" stroke-width="NaN" stroke-linecap="butt"/><path d="M214.76667,119.49761l0.2,13.2" fill="none" stroke="#9a9a9a" stroke-width="2" stroke-linecap="round"/></g><g><path d="M170.98564,139.3136c0,1.852 -1.50134,3.35335 -3.35334,3.35335c-1.852,0 -3.35334,-1.50135 -3.35334,-3.35335c0,-1.852 1.50134,-3.35334 3.35334,-3.35334c1.852,0 3.35334,1.50134 3.35334,3.35334z" data-paper-data="{&quot;index&quot;:null}" fill="#9a9a9a" stroke="none" stroke-width="NaN" stroke-linecap="butt"/><path d="M209.22654,138.54402l0.09734,18.30982l-41.94041,-0.21783l0.16332,-17.95071" data-paper-data="{&quot;index&quot;:null}" fill="none" stroke="#9a9a9a" stroke-width="2" stroke-linecap="round"/><path d="M209.03438,135.80805c1.852,0 3.35334,1.50135 3.35334,3.35335c0,1.852 -1.50134,3.35334 -3.35334,3.35334c-1.852,0 -3.35335,-1.50134 -3.35335,-3.35334c0,-1.852 1.50135,-3.35335 3.35335,-3.35335z" data-paper-data="{&quot;index&quot;:null}" fill="#9a9a9a" stroke="none" stroke-width="NaN" stroke-linecap="butt"/><path d="M188.43334,156.83095l0.2,13.2" fill="none" stroke="#9a9a9a" stroke-width="2" stroke-linecap="round"/></g><path d="M93.98564,176.8136c0,1.852 -1.50135,3.35335 -3.35335,3.35335c-1.852,0 -3.35335,-1.50135 -3.35335,-3.35335c0,-1.852 1.50135,-3.35334 3.35335,-3.35334c1.852,0 3.35335,1.50134 3.35335,3.35334z" data-paper-data="{&quot;index&quot;:null}" fill="#9a9a9a" stroke="none" stroke-width="NaN" stroke-linecap="butt"/><path d="M184.60469,176.04403l0.2192,18.30982l-94.44041,-0.21783l0.36776,-17.95071" data-paper-data="{&quot;index&quot;:null}" fill="none" stroke="#9a9a9a" stroke-width="2" stroke-linecap="round"/><path d="M184.53438,173.30805c1.852,0 3.35334,1.50135 3.35334,3.35335c0,1.852 -1.50134,3.35334 -3.35334,3.35334c-1.852,0 -3.35335,-1.50134 -3.35335,-3.35334c0,-1.852 1.50135,-3.35335 3.35335,-3.35335z" data-paper-data="{&quot;index&quot;:null}" fill="#9a9a9a" stroke="none" stroke-width="NaN" stroke-linecap="butt"/><path d="M138.93334,194.33095l0.2,13.2" fill="none" stroke="#9a9a9a" stroke-width="2" stroke-linecap="round"/><g><path d="M247.98564,101.98027c0,1.852 -1.50134,3.35334 -3.35334,3.35334c-1.852,0 -3.35334,-1.50134 -3.35334,-3.35334c0,-1.852 1.50134,-3.35335 3.35334,-3.35335c1.852,0 3.35334,1.50135 3.35334,3.35335z" data-paper-data="{&quot;index&quot;:null}" fill="#9a9a9a" stroke="none" stroke-width="NaN" stroke-linecap="butt"/><path d="M286.22654,101.21069l0.09735,18.30982l-41.94042,-0.21784l0.16332,-17.95071" data-paper-data="{&quot;index&quot;:null}" fill="none" stroke="#9a9a9a" stroke-width="2" stroke-linecap="round"/><path d="M286.03438,98.47472c1.852,0 3.35334,1.50135 3.35334,3.35335c0,1.852 -1.50135,3.35334 -3.35334,3.35334c-1.852,0 -3.35334,-1.50134 -3.35334,-3.35334c0,-1.852 1.50135,-3.35335 3.35334,-3.35335z" data-paper-data="{&quot;index&quot;:null}" fill="#9a9a9a" stroke="none" stroke-width="NaN" stroke-linecap="butt"/><path d="M265.63334,132.69761l-0.2,-13.2" fill="none" stroke="#9a9a9a" stroke-width="2" stroke-linecap="round"/></g><g><path d="M300.31897,101.98027c0,1.852 -1.50135,3.35334 -3.35334,3.35334c-1.852,0 -3.35334,-1.50134 -3.35334,-3.35334c0,-1.852 1.50135,-3.35335 3.35334,-3.35335c1.852,0 3.35334,1.50135 3.35334,3.35335z" data-paper-data="{&quot;index&quot;:null}" fill="#9a9a9a" stroke="none" stroke-width="NaN" stroke-linecap="butt"/><path d="M338.55987,101.21069l0.09735,18.30982l-41.94042,-0.21784l0.16332,-17.95071" data-paper-data="{&quot;index&quot;:null}" fill="none" stroke="#9a9a9a" stroke-width="2" stroke-linecap="round"/><path d="M338.36771,98.47472c1.852,0 3.35334,1.50135 3.35334,3.35335c0,1.852 -1.50135,3.35334 -3.35334,3.35334c-1.852,0 -3.35334,-1.50134 -3.35334,-3.35334c0,-1.852 1.50135,-3.35335 3.35334,-3.35335z" data-paper-data="{&quot;index&quot;:null}" fill="#9a9a9a" stroke="none" stroke-width="NaN" stroke-linecap="butt"/><path d="M317.96666,132.69761l-0.2,-13.2" fill="none" stroke="#9a9a9a" stroke-width="2" stroke-linecap="round"/></g><g><path d="M273.98564,139.3136c0,1.852 -1.50135,3.35335 -3.35334,3.35335c-1.852,0 -3.35334,-1.50135 -3.35334,-3.35335c0,-1.852 1.50135,-3.35334 3.35334,-3.35334c1.852,0 3.35334,1.50134 3.35334,3.35334z" data-paper-data="{&quot;index&quot;:null}" fill="#9a9a9a" stroke="none" stroke-width="NaN" stroke-linecap="butt"/><path d="M312.22654,138.54402l0.09735,18.30982l-41.94042,-0.21783l0.16332,-17.95071" data-paper-data="{&quot;index&quot;:null}" fill="none" stroke="#9a9a9a" stroke-width="2" stroke-linecap="round"/><path d="M312.03438,135.80805c1.852,0 3.35334,1.50135 3.35334,3.35335c0,1.852 -1.50135,3.35334 -3.35334,3.35334c-1.852,0 -3.35334,-1.50134 -3.35334,-3.35334c0,-1.852 1.50135,-3.35335 3.35334,-3.35335z" data-paper-data="{&quot;index&quot;:null}" fill="#9a9a9a" stroke="none" stroke-width="NaN" stroke-linecap="butt"/><path d="M291.43334,156.83095l0.2,13.2" fill="none" stroke="#9a9a9a" stroke-width="2" stroke-linecap="round"/></g><g><path d="M352.98564,101.98027c0,1.852 -1.50135,3.35334 -3.35334,3.35334c-1.852,0 -3.35334,-1.50134 -3.35334,-3.35334c0,-1.852 1.50135,-3.35335 3.35334,-3.35335c1.852,0 3.35334,1.50135 3.35334,3.35335z" data-paper-data="{&quot;index&quot;:null}" fill="#9a9a9a" stroke="none" stroke-width="NaN" stroke-linecap="butt"/><path d="M391.22654,101.21069l0.09735,18.30982l-41.94042,-0.21784l0.16332,-17.95071" data-paper-data="{&quot;index&quot;:null}" fill="none" stroke="#9a9a9a" stroke-width="2" stroke-linecap="round"/><path d="M391.03438,98.47472c1.852,0 3.35334,1.50135 3.35334,3.35335c0,1.852 -1.50135,3.35334 -3.35334,3.35334c-1.852,0 -3.35334,-1.50134 -3.35334,-3.35334c0,-1.852 1.50135,-3.35335 3.35334,-3.35335z" data-paper-data="{&quot;index&quot;:null}" fill="#9a9a9a" stroke="none" stroke-width="NaN" stroke-linecap="butt"/><path d="M370.43334,119.49761l0.2,13.2" fill="none" stroke="#9a9a9a" stroke-width="2" stroke-linecap="round"/></g><g><path d="M405.31897,101.98027c0,1.852 -1.50135,3.35334 -3.35334,3.35334c-1.852,0 -3.35334,-1.50134 -3.35334,-3.35334c0,-1.852 1.50135,-3.35335 3.35334,-3.35335c1.852,0 3.35334,1.50135 3.35334,3.35335z" data-paper-data="{&quot;index&quot;:null}" fill="#9a9a9a" stroke="none" stroke-width="NaN" stroke-linecap="butt"/><path d="M443.55987,101.21069l0.09735,18.30982l-41.94042,-0.21784l0.16332,-17.95071" data-paper-data="{&quot;index&quot;:null}" fill="none" stroke="#9a9a9a" stroke-width="2" stroke-linecap="round"/><path d="M443.36771,98.47472c1.852,0 3.35334,1.50135 3.35334,3.35335c0,1.852 -1.50135,3.35334 -3.35334,3.35334c-1.852,0 -3.35334,-1.50134 -3.35334,-3.35334c0,-1.852 1.50135,-3.35335 3.35334,-3.35335z" data-paper-data="{&quot;index&quot;:null}" fill="#9a9a9a" stroke="none" stroke-width="NaN" stroke-linecap="butt"/><path d="M422.96667,132.69761l-0.2,-13.2" fill="none" stroke="#9a9a9a" stroke-width="2" stroke-linecap="round"/></g><g><path d="M378.98564,139.3136c0,1.852 -1.50135,3.35335 -3.35334,3.35335c-1.852,0 -3.35334,-1.50135 -3.35334,-3.35335c0,-1.852 1.50135,-3.35334 3.35334,-3.35334c1.852,0 3.35334,1.50134 3.35334,3.35334z" data-paper-data="{&quot;index&quot;:null}" fill="#9a9a9a" stroke="none" stroke-width="NaN" stroke-linecap="butt"/><path d="M417.22654,138.54402l0.09735,18.30982l-41.94042,-0.21783l0.16332,-17.95071" data-paper-data="{&quot;index&quot;:null}" fill="none" stroke="#9a9a9a" stroke-width="2" stroke-linecap="round"/><path d="M417.03438,135.80805c1.852,0 3.35334,1.50135 3.35334,3.35335c0,1.852 -1.50135,3.35334 -3.35334,3.35334c-1.852,0 -3.35334,-1.50134 -3.35334,-3.35334c0,-1.852 1.50135,-3.35335 3.35334,-3.35335z" data-paper-data="{&quot;index&quot;:null}" fill="#9a9a9a" stroke="none" stroke-width="NaN" stroke-linecap="butt"/><path d="M396.43334,156.83095l0.2,13.2" fill="none" stroke="#9a9a9a" stroke-width="2" stroke-linecap="round"/></g><path d="M301.98564,176.8136c0,1.852 -1.50135,3.35335 -3.35334,3.35335c-1.852,0 -3.35334,-1.50135 -3.35334,-3.35335c0,-1.852 1.50135,-3.35334 3.35334,-3.35334c1.852,0 3.35334,1.50134 3.35334,3.35334z" data-paper-data="{&quot;index&quot;:null}" fill="#9a9a9a" stroke="none" stroke-width="NaN" stroke-linecap="butt"/><path d="M392.60469,176.04403l0.2192,18.30982l-94.44042,-0.21783l0.36776,-17.95071" data-paper-data="{&quot;index&quot;:null}" fill="none" stroke="#9a9a9a" stroke-width="2" stroke-linecap="round"/><path d="M392.53438,173.30805c1.852,0 3.35334,1.50135 3.35334,3.35335c0,1.852 -1.50135,3.35334 -3.35334,3.35334c-1.852,0 -3.35334,-1.50134 -3.35334,-3.35334c0,-1.852 1.50135,-3.35335 3.35334,-3.35335z" data-paper-data="{&quot;index&quot;:null}" fill="#9a9a9a" stroke="none" stroke-width="NaN" stroke-linecap="butt"/><path d="M346.93334,194.33095l0.2,13.2" fill="none" stroke="#9a9a9a" stroke-width="2" stroke-linecap="round"/><path d="M149.98564,213.8136c0,1.852 -1.50134,3.35335 -3.35334,3.35335c-1.852,0 -3.35334,-1.50135 -3.35334,-3.35335c0,-1.852 1.50134,-3.35334 3.35334,-3.35334c1.852,0 3.35334,1.50134 3.35334,3.35334z" data-paper-data="{&quot;index&quot;:null}" fill="#9a9a9a" stroke="none" stroke-width="NaN" stroke-linecap="butt"/><path d="M343.36562,213.04403l0.45827,18.30982l-197.44042,-0.21783l0.76885,-17.95071" data-paper-data="{&quot;index&quot;:null}" fill="none" stroke="#9a9a9a" stroke-width="2" stroke-linecap="round"/><path d="M343.53438,210.30805c1.852,0 3.35334,1.50135 3.35334,3.35335c0,1.852 -1.50135,3.35334 -3.35334,3.35334c-1.852,0 -3.35335,-1.50134 -3.35335,-3.35334c0,-1.852 1.50135,-3.35335 3.35335,-3.35335z" data-paper-data="{&quot;index&quot;:null}" fill="#9a9a9a" stroke="none" stroke-width="NaN" stroke-linecap="butt"/><path d="M242.93334,231.33095l0.2,13.2" fill="none" stroke="#9a9a9a" stroke-width="2" stroke-linecap="round"/><path d="M248.34399,256.8136c0,2.60219 -2.1095,4.71169 -4.71169,4.71169c-2.60219,0 -4.71169,-2.1095 -4.71169,-4.71169c0,-2.60219 2.1095,-4.71169 4.71169,-4.71169c2.60219,0 4.71169,2.1095 4.71169,4.71169z" data-paper-data="{&quot;index&quot;:null}" fill="#9a9a9a" stroke="none" stroke-width="NaN" stroke-linecap="butt"/></g></g></svg>