<svg version="1.1" xmlns="http://www.w3.org/2000/svg" xmlns:xlink="http://www.w3.org/1999/xlink" width="434.28743" height="183.29795" viewBox="0,0,434.28743,183.29795"><g transform="translate(-29.03675,-98.47476)"><g data-paper-data="{&quot;isPaintingLayer&quot;:true}" fill-rule="nonzero" stroke-linejoin="miter" stroke-miterlimit="10" stroke-dasharray="" stroke-dashoffset="0" style="mix-blend-mode: normal"><path d="M39.98564,101.98031c0,1.852 -1.50135,3.35334 -3.35334,3.35334c-1.852,0 -3.35334,-1.50134 -3.35334,-3.35334c0,-1.852 1.50135,-3.35335 3.35334,-3.35335c1.852,0 3.35334,1.50135 3.35334,3.35335z" data-paper-data="{&quot;index&quot;:null}" fill="#ffffff" stroke="none" stroke-width="NaN" stroke-linecap="butt"/><path d="M78.22654,101.21073l0.09735,18.30982l-41.94041,-0.21784l0.16332,-17.95071" data-paper-data="{&quot;index&quot;:null}" fill="none" stroke="#ffffff" stroke-width="2" stroke-linecap="round"/><path d="M78.03438,98.47476c1.852,0 3.35335,1.50135 3.35335,3.35335c0,1.852 -1.50135,3.35334 -3.35335,3.35334c-1.852,0 -3.35334,-1.50134 -3.35334,-3.35334c0,-1.852 1.50134,-3.35335 3.35334,-3.35335z" data-paper-data="{&quot;index&quot;:null}" fill="#ffffff" stroke="none" stroke-width="NaN" stroke-linecap="butt"/><path d="M58.63334,132.69764l-0.2,-13.2" fill="none" stroke="#ffffff" stroke-width="2" stroke-linecap="round"/><path d="M92.31897,101.98031c0,1.852 -1.50134,3.35334 -3.35334,3.35334c-1.852,0 -3.35335,-1.50134 -3.35335,-3.35334c0,-1.852 1.50135,-3.35335 3.35335,-3.35335c1.852,0 3.35334,1.50135 3.35334,3.35335z" data-paper-data="{&quot;index&quot;:null}" fill="#ffffff" stroke="none" stroke-width="NaN" stroke-linecap="butt"/><path d="M130.55987,101.21073l0.09735,18.30982l-41.94041,-0.21784l0.16332,-17.95071" data-paper-data="{&quot;index&quot;:null}" fill="none" stroke="#ffffff" stroke-width="2" stroke-linecap="round"/><path d="M130.36771,98.47476c1.852,0 3.35334,1.50135 3.35334,3.35335c0,1.852 -1.50134,3.35334 -3.35334,3.35334c-1.852,0 -3.35335,-1.50134 -3.35335,-3.35334c0,-1.852 1.50135,-3.35335 3.35335,-3.35335z" data-paper-data="{&quot;index&quot;:null}" fill="#ffffff" stroke="none" stroke-width="NaN" stroke-linecap="butt"/><path d="M110.76667,119.49765l0.2,13.2" fill="none" stroke="#ffffff" stroke-width="2" stroke-linecap="round"/><path d="M65.98564,139.31363c0,1.852 -1.50135,3.35335 -3.35335,3.35335c-1.852,0 -3.35334,-1.50135 -3.35334,-3.35335c0,-1.852 1.50135,-3.35334 3.35334,-3.35334c1.852,0 3.35335,1.50134 3.35335,3.35334z" data-paper-data="{&quot;index&quot;:null}" fill="#ffffff" stroke="none" stroke-width="NaN" stroke-linecap="butt"/><path d="M104.22654,138.54404l0.09735,18.30982l-41.94041,-0.21783l0.16332,-17.95071" data-paper-data="{&quot;index&quot;:null}" fill="none" stroke="#ffffff" stroke-width="2" stroke-linecap="round"/><path d="M104.03438,135.80807c1.852,0 3.35335,1.50135 3.35335,3.35335c0,1.852 -1.50135,3.35334 -3.35335,3.35334c-1.852,0 -3.35334,-1.50134 -3.35334,-3.35334c0,-1.852 1.50134,-3.35335 3.35334,-3.35335z" data-paper-data="{&quot;index&quot;:null}" fill="#ffffff" stroke="none" stroke-width="NaN" stroke-linecap="butt"/><path d="M83.63334,170.03099l-0.2,-13.2" fill="none" stroke="#ffffff" stroke-width="2" stroke-linecap="round"/><path d="M144.98564,101.98031c0,1.852 -1.50134,3.35334 -3.35334,3.35334c-1.852,0 -3.35334,-1.50134 -3.35334,-3.35334c0,-1.852 1.50134,-3.35335 3.35334,-3.35335c1.852,0 3.35334,1.50135 3.35334,3.35335z" data-paper-data="{&quot;index&quot;:null}" fill="#ffffff" stroke="none" stroke-width="NaN" stroke-linecap="butt"/><path d="M183.22654,101.21073l0.09734,18.30982l-41.94041,-0.21784l0.16332,-17.95071" data-paper-data="{&quot;index&quot;:null}" fill="none" stroke="#ffffff" stroke-width="2" stroke-linecap="round"/><path d="M183.03438,98.47476c1.852,0 3.35334,1.50135 3.35334,3.35335c0,1.852 -1.50134,3.35334 -3.35334,3.35334c-1.852,0 -3.35335,-1.50134 -3.35335,-3.35334c0,-1.852 1.50135,-3.35335 3.35335,-3.35335z" data-paper-data="{&quot;index&quot;:null}" fill="#ffffff" stroke="none" stroke-width="NaN" stroke-linecap="butt"/><path d="M163.43333,119.49764l0.2,13.2" fill="none" stroke="#ffffff" stroke-width="2" stroke-linecap="round"/><path d="M197.31897,101.98031c0,1.852 -1.50135,3.35334 -3.35335,3.35334c-1.852,0 -3.35334,-1.50134 -3.35334,-3.35334c0,-1.852 1.50134,-3.35335 3.35334,-3.35335c1.852,0 3.35335,1.50135 3.35335,3.35335z" data-paper-data="{&quot;index&quot;:null}" fill="#ffffff" stroke="none" stroke-width="NaN" stroke-linecap="butt"/><path d="M235.55987,101.21073l0.09735,18.30982l-41.94041,-0.21784l0.16332,-17.95071" data-paper-data="{&quot;index&quot;:null}" fill="none" stroke="#ffffff" stroke-width="2" stroke-linecap="round"/><path d="M235.36771,98.47476c1.852,0 3.35334,1.50135 3.35334,3.35335c0,1.852 -1.50134,3.35334 -3.35334,3.35334c-1.852,0 -3.35334,-1.50134 -3.35334,-3.35334c0,-1.852 1.50134,-3.35335 3.35334,-3.35335z" data-paper-data="{&quot;index&quot;:null}" fill="#ffffff" stroke="none" stroke-width="NaN" stroke-linecap="butt"/><path d="M215.76667,119.49764l0.2,13.2" fill="none" stroke="#ffffff" stroke-width="2" stroke-linecap="round"/><path d="M170.98564,139.31363c0,1.852 -1.50134,3.35335 -3.35334,3.35335c-1.852,0 -3.35334,-1.50135 -3.35334,-3.35335c0,-1.852 1.50134,-3.35334 3.35334,-3.35334c1.852,0 3.35334,1.50134 3.35334,3.35334z" data-paper-data="{&quot;index&quot;:null}" fill="#ffffff" stroke="none" stroke-width="NaN" stroke-linecap="butt"/><path d="M209.22654,138.54404l0.09734,18.30982l-41.94041,-0.21783l0.16332,-17.95071" data-paper-data="{&quot;index&quot;:null}" fill="none" stroke="#ffffff" stroke-width="2" stroke-linecap="round"/><path d="M209.03438,135.80807c1.852,0 3.35334,1.50135 3.35334,3.35335c0,1.852 -1.50134,3.35334 -3.35334,3.35334c-1.852,0 -3.35335,-1.50134 -3.35335,-3.35334c0,-1.852 1.50135,-3.35335 3.35335,-3.35335z" data-paper-data="{&quot;index&quot;:null}" fill="#ffffff" stroke="none" stroke-width="NaN" stroke-linecap="butt"/><path d="M188.63334,170.03099l-0.2,-13.2" fill="none" stroke="#ffffff" stroke-width="2" stroke-linecap="round"/><path d="M93.98564,176.81363c0,1.852 -1.50135,3.35335 -3.35335,3.35335c-1.852,0 -3.35335,-1.50135 -3.35335,-3.35335c0,-1.852 1.50135,-3.35334 3.35335,-3.35334c1.852,0 3.35335,1.50134 3.35335,3.35334z" data-paper-data="{&quot;index&quot;:null}" fill="#ffffff" stroke="none" stroke-width="NaN" stroke-linecap="butt"/><path d="M184.60469,176.04407l0.2192,18.30982l-94.44041,-0.21783l0.36776,-17.95071" data-paper-data="{&quot;index&quot;:null}" fill="none" stroke="#ffffff" stroke-width="2" stroke-linecap="round"/><path d="M184.53438,173.30807c1.852,0 3.35334,1.50135 3.35334,3.35335c0,1.852 -1.50134,3.35334 -3.35334,3.35334c-1.852,0 -3.35335,-1.50134 -3.35335,-3.35334c0,-1.852 1.50135,-3.35335 3.35335,-3.35335z" data-paper-data="{&quot;index&quot;:null}" fill="#ffffff" stroke="none" stroke-width="NaN" stroke-linecap="butt"/><path d="M138.93333,194.33099l0.2,13.2" fill="none" stroke="#ffffff" stroke-width="2" stroke-linecap="round"/><path d="M247.98564,101.98031c0,1.852 -1.50134,3.35334 -3.35334,3.35334c-1.852,0 -3.35334,-1.50134 -3.35334,-3.35334c0,-1.852 1.50134,-3.35335 3.35334,-3.35335c1.852,0 3.35334,1.50135 3.35334,3.35335z" data-paper-data="{&quot;index&quot;:null}" fill="#ffffff" stroke="none" stroke-width="NaN" stroke-linecap="butt"/><path d="M286.22655,101.21073l0.09735,18.30982l-41.94042,-0.21784l0.16332,-17.95071" data-paper-data="{&quot;index&quot;:null}" fill="none" stroke="#ffffff" stroke-width="2" stroke-linecap="round"/><path d="M286.03439,98.47476c1.852,0 3.35334,1.50135 3.35334,3.35335c0,1.852 -1.50135,3.35334 -3.35334,3.35334c-1.852,0 -3.35334,-1.50134 -3.35334,-3.35334c0,-1.852 1.50135,-3.35335 3.35334,-3.35335z" data-paper-data="{&quot;index&quot;:null}" fill="#ffffff" stroke="none" stroke-width="NaN" stroke-linecap="butt"/><path d="M266.63334,132.69765l-0.2,-13.2" fill="none" stroke="#ffffff" stroke-width="2" stroke-linecap="round"/><path d="M300.31897,101.98031c0,1.852 -1.50135,3.35334 -3.35334,3.35334c-1.852,0 -3.35334,-1.50134 -3.35334,-3.35334c0,-1.852 1.50135,-3.35335 3.35334,-3.35335c1.852,0 3.35334,1.50135 3.35334,3.35335z" data-paper-data="{&quot;index&quot;:null}" fill="#ffffff" stroke="none" stroke-width="NaN" stroke-linecap="butt"/><path d="M338.55988,101.21073l0.09735,18.30982l-41.94042,-0.21784l0.16332,-17.95071" data-paper-data="{&quot;index&quot;:null}" fill="none" stroke="#ffffff" stroke-width="2" stroke-linecap="round"/><path d="M338.36772,98.47476c1.852,0 3.35334,1.50135 3.35334,3.35335c0,1.852 -1.50135,3.35334 -3.35334,3.35334c-1.852,0 -3.35334,-1.50134 -3.35334,-3.35334c0,-1.852 1.50135,-3.35335 3.35334,-3.35335z" data-paper-data="{&quot;index&quot;:null}" fill="#ffffff" stroke="none" stroke-width="NaN" stroke-linecap="butt"/><path d="M318.76666,119.49765l0.2,13.2" fill="none" stroke="#ffffff" stroke-width="2" stroke-linecap="round"/><path d="M273.98564,139.31363c0,1.852 -1.50135,3.35335 -3.35334,3.35335c-1.852,0 -3.35334,-1.50135 -3.35334,-3.35335c0,-1.852 1.50135,-3.35334 3.35334,-3.35334c1.852,0 3.35334,1.50134 3.35334,3.35334z" data-paper-data="{&quot;index&quot;:null}" fill="#ffffff" stroke="none" stroke-width="NaN" stroke-linecap="butt"/><path d="M312.22655,138.54404l0.09735,18.30982l-41.94042,-0.21783l0.16332,-17.95071" data-paper-data="{&quot;index&quot;:null}" fill="none" stroke="#ffffff" stroke-width="2" stroke-linecap="round"/><path d="M312.03439,135.80807c1.852,0 3.35334,1.50135 3.35334,3.35335c0,1.852 -1.50135,3.35334 -3.35334,3.35334c-1.852,0 -3.35334,-1.50134 -3.35334,-3.35334c0,-1.852 1.50135,-3.35335 3.35334,-3.35335z" data-paper-data="{&quot;index&quot;:null}" fill="#ffffff" stroke="none" stroke-width="NaN" stroke-linecap="butt"/><path d="M291.43334,156.83097l0.2,13.2" fill="none" stroke="#ffffff" stroke-width="2" stroke-linecap="round"/><path d="M352.98565,101.98031c0,1.852 -1.50135,3.35334 -3.35334,3.35334c-1.852,0 -3.35334,-1.50134 -3.35334,-3.35334c0,-1.852 1.50135,-3.35335 3.35334,-3.35335c1.852,0 3.35334,1.50135 3.35334,3.35335z" data-paper-data="{&quot;index&quot;:null}" fill="#ffffff" stroke="none" stroke-width="NaN" stroke-linecap="butt"/><path d="M391.22655,101.21073l0.09735,18.30982l-41.94042,-0.21784l0.16332,-17.95071" data-paper-data="{&quot;index&quot;:null}" fill="none" stroke="#ffffff" stroke-width="2" stroke-linecap="round"/><path d="M391.03439,98.47476c1.852,0 3.35334,1.50135 3.35334,3.35335c0,1.852 -1.50135,3.35334 -3.35334,3.35334c-1.852,0 -3.35334,-1.50134 -3.35334,-3.35334c0,-1.852 1.50135,-3.35335 3.35334,-3.35335z" data-paper-data="{&quot;index&quot;:null}" fill="#ffffff" stroke="none" stroke-width="NaN" stroke-linecap="butt"/><path d="M371.63335,132.69765l-0.2,-13.2" fill="none" stroke="#ffffff" stroke-width="2" stroke-linecap="round"/><path d="M405.31898,101.98031c0,1.852 -1.50135,3.35334 -3.35334,3.35334c-1.852,0 -3.35334,-1.50134 -3.35334,-3.35334c0,-1.852 1.50135,-3.35335 3.35334,-3.35335c1.852,0 3.35334,1.50135 3.35334,3.35335z" data-paper-data="{&quot;index&quot;:null}" fill="#ffffff" stroke="none" stroke-width="NaN" stroke-linecap="butt"/><path d="M443.55988,101.21073l0.09735,18.30982l-41.94042,-0.21784l0.16332,-17.95071" data-paper-data="{&quot;index&quot;:null}" fill="none" stroke="#ffffff" stroke-width="2" stroke-linecap="round"/><path d="M443.36772,98.47476c1.852,0 3.35334,1.50135 3.35334,3.35335c0,1.852 -1.50135,3.35334 -3.35334,3.35334c-1.852,0 -3.35334,-1.50134 -3.35334,-3.35334c0,-1.852 1.50135,-3.35335 3.35334,-3.35335z" data-paper-data="{&quot;index&quot;:null}" fill="#ffffff" stroke="none" stroke-width="NaN" stroke-linecap="butt"/><path d="M423.96668,132.69764l-0.2,-13.2" fill="none" stroke="#ffffff" stroke-width="2" stroke-linecap="round"/><path d="M378.98565,139.31363c0,1.852 -1.50135,3.35335 -3.35334,3.35335c-1.852,0 -3.35334,-1.50135 -3.35334,-3.35335c0,-1.852 1.50135,-3.35334 3.35334,-3.35334c1.852,0 3.35334,1.50134 3.35334,3.35334z" data-paper-data="{&quot;index&quot;:null}" fill="#ffffff" stroke="none" stroke-width="NaN" stroke-linecap="butt"/><path d="M417.22655,138.54404l0.09735,18.30982l-41.94042,-0.21783l0.16332,-17.95071" data-paper-data="{&quot;index&quot;:null}" fill="none" stroke="#ffffff" stroke-width="2" stroke-linecap="round"/><path d="M417.03439,135.80807c1.852,0 3.35334,1.50135 3.35334,3.35335c0,1.852 -1.50135,3.35334 -3.35334,3.35334c-1.852,0 -3.35334,-1.50134 -3.35334,-3.35334c0,-1.852 1.50135,-3.35335 3.35334,-3.35335z" data-paper-data="{&quot;index&quot;:null}" fill="#ffffff" stroke="none" stroke-width="NaN" stroke-linecap="butt"/><path d="M396.63335,170.03097l-0.2,-13.2" fill="none" stroke="#ffffff" stroke-width="2" stroke-linecap="round"/><path d="M301.98564,176.81363c0,1.852 -1.50135,3.35335 -3.35334,3.35335c-1.852,0 -3.35334,-1.50135 -3.35334,-3.35335c0,-1.852 1.50135,-3.35334 3.35334,-3.35334c1.852,0 3.35334,1.50134 3.35334,3.35334z" data-paper-data="{&quot;index&quot;:null}" fill="#ffffff" stroke="none" stroke-width="NaN" stroke-linecap="butt"/><path d="M392.6047,176.04407l0.2192,18.30982l-94.44042,-0.21783l0.36776,-17.95071" data-paper-data="{&quot;index&quot;:null}" fill="none" stroke="#ffffff" stroke-width="2" stroke-linecap="round"/><path d="M392.53439,173.30807c1.852,0 3.35334,1.50135 3.35334,3.35335c0,1.852 -1.50135,3.35334 -3.35334,3.35334c-1.852,0 -3.35334,-1.50134 -3.35334,-3.35334c0,-1.852 1.50135,-3.35335 3.35334,-3.35335z" data-paper-data="{&quot;index&quot;:null}" fill="#ffffff" stroke="none" stroke-width="NaN" stroke-linecap="butt"/><path d="M347.13335,207.53099l-0.2,-13.2" fill="none" stroke="#ffffff" stroke-width="2" stroke-linecap="round"/><path d="M149.98564,213.81363c0,1.852 -1.50134,3.35335 -3.35334,3.35335c-1.852,0 -3.35334,-1.50135 -3.35334,-3.35335c0,-1.852 1.50134,-3.35334 3.35334,-3.35334c1.852,0 3.35334,1.50134 3.35334,3.35334z" data-paper-data="{&quot;index&quot;:null}" fill="#ffffff" stroke="none" stroke-width="NaN" stroke-linecap="butt"/><path d="M343.36563,213.04407l0.45827,18.30982l-197.44042,-0.21783l0.76885,-17.95071" data-paper-data="{&quot;index&quot;:null}" fill="none" stroke="#ffffff" stroke-width="2" stroke-linecap="round"/><path d="M343.53439,210.30807c1.852,0 3.35334,1.50135 3.35334,3.35335c0,1.852 -1.50135,3.35334 -3.35334,3.35334c-1.852,0 -3.35335,-1.50134 -3.35335,-3.35334c0,-1.852 1.50135,-3.35335 3.35335,-3.35335z" data-paper-data="{&quot;index&quot;:null}" fill="#ffffff" stroke="none" stroke-width="NaN" stroke-linecap="butt"/><path d="M242.93334,231.33099l0.2,13.2" fill="none" stroke="#ffffff" stroke-width="2" stroke-linecap="round"/><path d="M248.34399,256.81363c0,2.60219 -2.1095,4.71169 -4.71169,4.71169c-2.60219,0 -4.71169,-2.1095 -4.71169,-4.71169c0,-2.60219 2.1095,-4.71169 4.71169,-4.71169c2.60219,0 4.71169,2.1095 4.71169,4.71169z" data-paper-data="{&quot;index&quot;:null}" fill="#ffffff" stroke="none" stroke-width="NaN" stroke-linecap="butt"/><g fill="#ffffff" stroke="none" stroke-width="1" stroke-linecap="butt" font-family="Sans Serif" font-weight="normal" font-size="40" text-anchor="start"><text transform="translate(232.16667,272.27126) scale(0.25981,0.25981)" font-size="40" xml:space="preserve" fill="#ffffff" fill-rule="nonzero" stroke="none" stroke-width="1" stroke-linecap="butt" stroke-linejoin="miter" stroke-miterlimit="10" stroke-dasharray="" stroke-dashoffset="0" font-family="Sans Serif" font-weight="normal" text-anchor="start" style="mix-blend-mode: normal"><tspan x="0" dy="0">Niko</tspan></text><text transform="translate(229.16667,279.55771) scale(0.1772,0.1772)" font-size="40" xml:space="preserve" fill="#ffffff" fill-rule="nonzero" stroke="none" stroke-width="1" stroke-linecap="butt" stroke-linejoin="miter" stroke-miterlimit="10" stroke-dasharray="" stroke-dashoffset="0" font-family="Sans Serif" font-weight="normal" text-anchor="start" style="mix-blend-mode: normal"><tspan x="0" dy="0">Tsereteli</tspan></text></g><text transform="translate(332.16668,245.27128) scale(0.25981,0.25981)" font-size="40" xml:space="preserve" fill="#d0efff" fill-rule="nonzero" stroke="none" stroke-width="1" stroke-linecap="butt" stroke-linejoin="miter" stroke-miterlimit="10" stroke-dasharray="" stroke-dashoffset="0" font-family="Sans Serif" font-weight="normal" text-anchor="start" style="mix-blend-mode: normal"><tspan x="0" dy="0">Zurab</tspan></text><text transform="translate(329.16668,252.55771) scale(0.1772,0.1772)" font-size="40" xml:space="preserve" fill="#d0efff" fill-rule="nonzero" stroke="none" stroke-width="1" stroke-linecap="butt" stroke-linejoin="miter" stroke-miterlimit="10" stroke-dasharray="" stroke-dashoffset="0" font-family="Sans Serif" font-weight="normal" text-anchor="start" style="mix-blend-mode: normal"><tspan x="0" dy="0">Tsereteli</tspan></text><text transform="translate(130.66668,245.27128) scale(0.25981,0.25981)" font-size="40" xml:space="preserve" fill="#ffd0dc" fill-rule="nonzero" stroke="none" stroke-width="1" stroke-linecap="butt" stroke-linejoin="miter" stroke-miterlimit="10" stroke-dasharray="" stroke-dashoffset="0" font-family="Sans Serif" font-weight="normal" text-anchor="start" style="mix-blend-mode: normal"><tspan x="0" dy="0">Dana</tspan></text><text transform="translate(127.66667,252.55771) scale(0.1772,0.1772)" font-size="40" xml:space="preserve" fill="#ffd0dc" fill-rule="nonzero" stroke="none" stroke-width="1" stroke-linecap="butt" stroke-linejoin="miter" stroke-miterlimit="10" stroke-dasharray="" stroke-dashoffset="0" font-family="Sans Serif" font-weight="normal" text-anchor="start" style="mix-blend-mode: normal"><tspan x="0" dy="0">Balthazor</tspan></text><text transform="translate(70.16666,205.27128) scale(0.25981,0.25981)" font-size="40" xml:space="preserve" fill="#ffd0dc" fill-rule="nonzero" stroke="none" stroke-width="1" stroke-linecap="butt" stroke-linejoin="miter" stroke-miterlimit="10" stroke-dasharray="" stroke-dashoffset="0" font-family="Sans Serif" font-weight="normal" text-anchor="start" style="mix-blend-mode: normal"><tspan x="0" dy="0">Cynthia</tspan></text><text transform="translate(74.66666,212.55771) scale(0.1772,0.1772)" font-size="40" xml:space="preserve" fill="#ffd0dc" fill-rule="nonzero" stroke="none" stroke-width="1" stroke-linecap="butt" stroke-linejoin="miter" stroke-miterlimit="10" stroke-dasharray="" stroke-dashoffset="0" font-family="Sans Serif" font-weight="normal" text-anchor="start" style="mix-blend-mode: normal"><tspan x="0" dy="0">Billinger</tspan></text><text transform="translate(166.16667,204.77128) scale(0.25981,0.25981)" font-size="40" xml:space="preserve" fill="#d0efff" fill-rule="nonzero" stroke="none" stroke-width="1" stroke-linecap="butt" stroke-linejoin="miter" stroke-miterlimit="10" stroke-dasharray="" stroke-dashoffset="0" font-family="Sans Serif" font-weight="normal" text-anchor="start" style="mix-blend-mode: normal"><tspan x="0" dy="0">Dennis</tspan></text><text transform="translate(167.16667,212.05771) scale(0.1772,0.1772)" font-size="40" xml:space="preserve" fill="#d0efff" fill-rule="nonzero" stroke="none" stroke-width="1" stroke-linecap="butt" stroke-linejoin="miter" stroke-miterlimit="10" stroke-dasharray="" stroke-dashoffset="0" font-family="Sans Serif" font-weight="normal" text-anchor="start" style="mix-blend-mode: normal"><tspan x="0" dy="0">Balthazor</tspan></text><text transform="translate(284.16666,205.77128) scale(0.25981,0.25981)" font-size="40" xml:space="preserve" fill="#ffd0dc" fill-rule="nonzero" stroke="none" stroke-width="1" stroke-linecap="butt" stroke-linejoin="miter" stroke-miterlimit="10" stroke-dasharray="" stroke-dashoffset="0" font-family="Sans Serif" font-weight="normal" text-anchor="start" style="mix-blend-mode: normal"><tspan x="0" dy="0">Lena</tspan></text><text transform="translate(279.16666,213.05771) scale(0.1772,0.1772)" font-size="40" xml:space="preserve" fill="#ffd0dc" fill-rule="nonzero" stroke="none" stroke-width="1" stroke-linecap="butt" stroke-linejoin="miter" stroke-miterlimit="10" stroke-dasharray="" stroke-dashoffset="0" font-family="Sans Serif" font-weight="normal" text-anchor="start" style="mix-blend-mode: normal"><tspan x="0" dy="0">Pkhaladze</tspan></text><text transform="translate(375.66668,206.27128) scale(0.25981,0.25981)" font-size="40" xml:space="preserve" fill="#d0efff" fill-rule="nonzero" stroke="none" stroke-width="1" stroke-linecap="butt" stroke-linejoin="miter" stroke-miterlimit="10" stroke-dasharray="" stroke-dashoffset="0" font-family="Sans Serif" font-weight="normal" text-anchor="start" style="mix-blend-mode: normal"><tspan x="0" dy="0">Archil</tspan></text><text transform="translate(376.66668,213.55771) scale(0.1772,0.1772)" font-size="40" xml:space="preserve" fill="#d0efff" fill-rule="nonzero" stroke="none" stroke-width="1" stroke-linecap="butt" stroke-linejoin="miter" stroke-miterlimit="10" stroke-dasharray="" stroke-dashoffset="0" font-family="Sans Serif" font-weight="normal" text-anchor="start" style="mix-blend-mode: normal"><tspan x="0" dy="0">Tsereteli</tspan></text><text transform="translate(253.66666,168.77128) scale(0.25981,0.25981)" font-size="40" xml:space="preserve" fill="#ffd0dc" fill-rule="nonzero" stroke="none" stroke-width="1" stroke-linecap="butt" stroke-linejoin="miter" stroke-miterlimit="10" stroke-dasharray="" stroke-dashoffset="0" font-family="Sans Serif" font-weight="normal" text-anchor="start" style="mix-blend-mode: normal"><tspan x="0" dy="0">Olia</tspan></text><text transform="translate(243.66665,176.05771) scale(0.1772,0.1772)" font-size="40" xml:space="preserve" fill="#ffd0dc" fill-rule="nonzero" stroke="none" stroke-width="1" stroke-linecap="butt" stroke-linejoin="miter" stroke-miterlimit="10" stroke-dasharray="" stroke-dashoffset="0" font-family="Sans Serif" font-weight="normal" text-anchor="start" style="mix-blend-mode: normal"><tspan x="0" dy="0">Phutkaradze</tspan></text><text transform="translate(311.66666,168.77128) scale(0.25981,0.25981)" font-size="40" xml:space="preserve" fill="#d0efff" fill-rule="nonzero" stroke="none" stroke-width="1" stroke-linecap="butt" stroke-linejoin="miter" stroke-miterlimit="10" stroke-dasharray="" stroke-dashoffset="0" font-family="Sans Serif" font-weight="normal" text-anchor="start" style="mix-blend-mode: normal"><tspan x="0" dy="0">Akaki</tspan></text><text transform="translate(305.16666,176.05771) scale(0.1772,0.1772)" font-size="40" xml:space="preserve" fill="#d0efff" fill-rule="nonzero" stroke="none" stroke-width="1" stroke-linecap="butt" stroke-linejoin="miter" stroke-miterlimit="10" stroke-dasharray="" stroke-dashoffset="0" font-family="Sans Serif" font-weight="normal" text-anchor="start" style="mix-blend-mode: normal"><tspan x="0" dy="0">Pkhaladze</tspan></text><text transform="translate(348.66667,168.77128) scale(0.25981,0.25981)" font-size="40" xml:space="preserve" fill="#ffd0dc" fill-rule="nonzero" stroke="none" stroke-width="1" stroke-linecap="butt" stroke-linejoin="miter" stroke-miterlimit="10" stroke-dasharray="" stroke-dashoffset="0" font-family="Sans Serif" font-weight="normal" text-anchor="start" style="mix-blend-mode: normal"><tspan x="0" dy="0">Lela</tspan></text><text transform="translate(348.66667,176.05771) scale(0.1772,0.1772)" font-size="40" xml:space="preserve" fill="#ffd0dc" fill-rule="nonzero" stroke="none" stroke-width="1" stroke-linecap="butt" stroke-linejoin="miter" stroke-miterlimit="10" stroke-dasharray="" stroke-dashoffset="0" font-family="Sans Serif" font-weight="normal" text-anchor="start" style="mix-blend-mode: normal"><tspan x="0" dy="0">Amashukeli</tspan></text><text transform="translate(402.66667,169.27128) scale(0.25981,0.25981)" font-size="40" xml:space="preserve" fill="#d0efff" fill-rule="nonzero" stroke="none" stroke-width="1" stroke-linecap="butt" stroke-linejoin="miter" stroke-miterlimit="10" stroke-dasharray="" stroke-dashoffset="0" font-family="Sans Serif" font-weight="normal" text-anchor="start" style="mix-blend-mode: normal"><tspan x="0" dy="0">Konstantine</tspan></text><text transform="translate(407.66667,176.55771) scale(0.1772,0.1772)" font-size="40" xml:space="preserve" fill="#d0efff" fill-rule="nonzero" stroke="none" stroke-width="1" stroke-linecap="butt" stroke-linejoin="miter" stroke-miterlimit="10" stroke-dasharray="" stroke-dashoffset="0" font-family="Sans Serif" font-weight="normal" text-anchor="start" style="mix-blend-mode: normal"><tspan x="0" dy="0">Phutkaradze</tspan></text><text transform="translate(29.16666,167.77128) scale(0.25981,0.25981)" font-size="40" xml:space="preserve" fill="#ffd0dc" fill-rule="nonzero" stroke="none" stroke-width="1" stroke-linecap="butt" stroke-linejoin="miter" stroke-miterlimit="10" stroke-dasharray="" stroke-dashoffset="0" font-family="Sans Serif" font-weight="normal" text-anchor="start" style="mix-blend-mode: normal"><tspan x="0" dy="0">Margaret</tspan></text><text transform="translate(41.66665,175.05771) scale(0.1772,0.1772)" font-size="40" xml:space="preserve" fill="#ffd0dc" fill-rule="nonzero" stroke="none" stroke-width="1" stroke-linecap="butt" stroke-linejoin="miter" stroke-miterlimit="10" stroke-dasharray="" stroke-dashoffset="0" font-family="Sans Serif" font-weight="normal" text-anchor="start" style="mix-blend-mode: normal"><tspan x="0" dy="0">Spies</tspan></text><text transform="translate(94.66666,167.77128) scale(0.25981,0.25981)" font-size="40" xml:space="preserve" fill="#d0efff" fill-rule="nonzero" stroke="none" stroke-width="1" stroke-linecap="butt" stroke-linejoin="miter" stroke-miterlimit="10" stroke-dasharray="" stroke-dashoffset="0" font-family="Sans Serif" font-weight="normal" text-anchor="start" style="mix-blend-mode: normal"><tspan x="0" dy="0">Adolph</tspan></text><text transform="translate(100.16666,175.05771) scale(0.1772,0.1772)" font-size="40" xml:space="preserve" fill="#d0efff" fill-rule="nonzero" stroke="none" stroke-width="1" stroke-linecap="butt" stroke-linejoin="miter" stroke-miterlimit="10" stroke-dasharray="" stroke-dashoffset="0" font-family="Sans Serif" font-weight="normal" text-anchor="start" style="mix-blend-mode: normal"><tspan x="0" dy="0">Billinger</tspan></text><text transform="translate(139.16666,167.77128) scale(0.25981,0.25981)" font-size="40" xml:space="preserve" fill="#ffd0dc" fill-rule="nonzero" stroke="none" stroke-width="1" stroke-linecap="butt" stroke-linejoin="miter" stroke-miterlimit="10" stroke-dasharray="" stroke-dashoffset="0" font-family="Sans Serif" font-weight="normal" text-anchor="start" style="mix-blend-mode: normal"><tspan x="0" dy="0">Bonita</tspan></text><text transform="translate(139.16666,175.05771) scale(0.1772,0.1772)" font-size="40" xml:space="preserve" fill="#ffd0dc" fill-rule="nonzero" stroke="none" stroke-width="1" stroke-linecap="butt" stroke-linejoin="miter" stroke-miterlimit="10" stroke-dasharray="" stroke-dashoffset="0" font-family="Sans Serif" font-weight="normal" text-anchor="start" style="mix-blend-mode: normal"><tspan x="0" dy="0">Belisle</tspan></text><text transform="translate(196.16666,168.27128) scale(0.25981,0.25981)" font-size="40" xml:space="preserve" fill="#d0efff" fill-rule="nonzero" stroke="none" stroke-width="1" stroke-linecap="butt" stroke-linejoin="miter" stroke-miterlimit="10" stroke-dasharray="" stroke-dashoffset="0" font-family="Sans Serif" font-weight="normal" text-anchor="start" style="mix-blend-mode: normal"><tspan x="0" dy="0">Leland</tspan></text><text transform="translate(198.16666,175.55771) scale(0.1772,0.1772)" font-size="40" xml:space="preserve" fill="#d0efff" fill-rule="nonzero" stroke="none" stroke-width="1" stroke-linecap="butt" stroke-linejoin="miter" stroke-miterlimit="10" stroke-dasharray="" stroke-dashoffset="0" font-family="Sans Serif" font-weight="normal" text-anchor="start" style="mix-blend-mode: normal"><tspan x="0" dy="0">Balthazor</tspan></text></g></g></svg>