<svg version="1.1" xmlns="http://www.w3.org/2000/svg" xmlns:xlink="http://www.w3.org/1999/xlink" width="288.53497" height="103.16268" viewBox="0,0,288.53497,103.16268"><g transform="translate(-96.05866,-189.11084)"><g data-paper-data="{&quot;isPaintingLayer&quot;:true}" fill-rule="nonzero" stroke="#af1e30" stroke-width="1.19747" stroke-linecap="round" stroke-linejoin="miter" stroke-miterlimit="10" stroke-dasharray="" stroke-dashoffset="0" style="mix-blend-mode: normal"><path d="M96.90059,223.86758c0.0066,-22.5497 -0.7161,-11.4425 0.2993,-17.064c0.3503,-1.3209 2.3525,-0.7724 3.2931,-1.1975c0.4023,-0.1886 0.8682,-0.2994 1.1975,-0.5988c0.2993,-0.3293 0.3293,-0.8382 0.5987,-1.1974c0.2395,-0.3593 0.5089,-0.6886 0.8981,-0.8981c0.3293,-0.2096 0.7784,-0.2096 1.1975,-0.2994c0.3892,-0.1198 0.7783,-0.2694 1.1975,-0.2994c0.7783,-0.0898 1.5866,-0.0898 2.3949,0c0.3892,0.03 0.8682,0.03 1.1975,0.2994c0.3293,0.2694 0.2694,0.8682 0.5987,1.1975c0.1198,0.1197 0.5987,0 0.5987,0h2.9937c0,0.2993 0.988,0.0898 1.4969,0c0.3892,-0.0898 0.8083,-0.1797 1.1975,-0.2994c0.3891,-0.1796 0.8082,-0.3592 1.1974,-0.5987c0.3293,-0.2695 0.5988,-0.6287 0.8981,-0.8981c0.2695,-0.2994 0.6287,-0.5688 0.8981,-0.8981c0.2395,-0.3892 0.2695,-0.8982 0.5988,-1.1975c0.2993,-0.3293 0.7484,-0.5089 1.1974,-0.5988c0.3593,-0.1197 0.7784,0 1.1975,0c0.3892,0 0.8083,-0.1197 1.1975,0c0.4191,0.0899 0.8083,0.3293 1.1975,0.5988c0.3293,0.2395 0.5688,0.5987 0.8981,0.8981c0.3592,0.2994 0.8083,0.5688 1.1974,0.8981c0.2994,0.2694 0.5389,0.6287 0.8982,0.8981c0.3592,0.2395 0.7783,0.4191 1.1974,0.5987c0.3593,0.1198 0.7784,0.1797 1.1975,0.2994c0.3892,0.0898 0.7784,0.2395 1.1975,0.2994c0.3892,0.0299 0.7783,0 1.1974,0c0.3892,0 0.8083,-0.1198 1.1975,0c0.4191,0.0898 0.8083,0.3293 1.1975,0.5987c0.3293,0.2395 0.5688,0.5987 0.8981,0.8981c0.3592,0.2994 0.8083,0.5688 1.1975,0.8981c0.2993,0.2694 0.5987,0.5988 0.8981,0.8981c0.2694,0.2695 0.5987,0.5988 0.8981,0.8981c0.2694,0.2695 0.5388,0.6287 0.8981,0.8981c0.3592,0.2395 0.7783,0.3892 1.1975,0.5988c0.3891,0.1796 0.7783,0.4191 1.1974,0.5987c0.3593,0.1198 0.7784,0.1796 1.1975,0.2994c0.3892,0.0898 0.7784,0.1796 1.1975,0.2993c0.3892,0.0899 0.7783,0.2395 1.1975,0.2994c0.3891,0.0299 0.8083,0.0898 1.1974,0c0.4192,-0.1197 0.7784,-0.4191 1.1975,-0.5987c0.3892,-0.2096 0.8682,-0.2994 1.1975,-0.5988c0.2994,-0.3293 0.3293,-0.8382 0.5987,-1.1974c0.2395,-0.3593 0.5389,-0.6586 0.8981,-0.8981c0.3593,-0.2695 0.8083,-0.3593 1.1975,-0.5988c0.3293,-0.2694 0.5089,-0.6885 0.8981,-0.8981c0.3293,-0.2095 0.7784,-0.2694 1.1975,-0.2994c0.3892,-0.0598 0.7783,0.03 1.1975,0c0.3891,-0.0598 0.7783,-0.2694 1.1974,-0.2993c0.3892,-0.0599 0.8083,-0.1497 1.1975,0c0.4491,0.1497 0.8083,0.5688 1.1975,0.8981c0.2993,0.2694 0.5987,0.5987 0.8981,0.8981c0.2694,0.2694 0.5987,0.5987 0.8981,0.8981c0.2694,0.2694 0.5987,0.5987 0.8981,0.8981c0.2694,0.2694 0.5688,0.5987 0.8981,0.8981c0.2694,0.2096 0.8981,0.5987 0.8981,0.5987c0,0 0.928,0.6886 1.4968,0.8981c0.3593,0.1198 0.7784,0 1.1975,0c1.1676,0 2.395,0 3.5924,0c0.3892,0 0.8083,0.0899 1.1975,0c0.4191,-0.1197 0.8083,-0.3592 1.1975,-0.5987c0.3293,-0.2694 0.5987,-0.5987 0.8981,-0.8981c0.2694,-0.2994 0.5089,-0.6885 0.8981,-0.8981c0.3293,-0.2096 0.8083,-0.1796 1.1975,-0.2994c0.3891,-0.1796 0.7783,-0.449 1.1974,-0.5987c0.3593,-0.1497 0.7784,-0.2694 1.1975,-0.2994c0.3892,-0.0598 0.7784,0 1.1975,0c0.7784,0 1.5866,-0.0898 2.3949,0c0.3892,0.03 0.8083,0.1497 1.1975,0.2994c0.3892,0.1497 0.7784,0.4191 1.1975,0.5987c0.3592,0.1198 0.7783,0.3293 1.1975,0.2994c0.4191,-0.0599 0.7783,-0.4491 1.1974,-0.5987c0.7784,-0.3293 1.6765,-0.4491 2.395,-0.8981c0.4191,-0.2695 0.5688,-0.8383 0.8981,-1.1975c0.2694,-0.3293 0.5389,-0.6586 0.8981,-0.8981c0.3592,-0.2695 0.7484,-0.5089 1.1975,-0.5988c0.3592,-0.1197 0.7783,0 1.1974,0c1.1676,0 2.395,-0.0598 3.5925,0c0.7783,0.03 1.5866,0.4192 2.3949,0.2994c0.8682,-0.1796 1.5567,-0.8682 2.395,-1.1975c0.3592,-0.1796 0.7783,-0.3592 1.1974,-0.2993c0.4191,0.0299 0.8682,0.2694 1.1975,0.5987c0.2994,0.2994 0.3293,0.8083 0.5987,1.1975c0.2395,0.3293 0.5389,0.6287 0.8981,0.8981c0.4491,0.3293 1.4969,0.8981 1.4969,0.8981c0,0.2994 0.958,0.7185 1.4968,0.8981c0.3892,0.1197 0.7784,0.2395 1.1975,0.2994c0.3892,0.0299 0.7784,0 1.1975,0c1.1675,0 2.3949,-0.0898 3.5924,0c0.3892,0 0.7784,0.2395 1.1975,0.2993c0.3892,0.03 0.7783,0 1.1975,0c0.3891,0 0.7783,0.0599 1.1974,0c0.8083,-0.1497 1.5867,-0.3592 2.395,-0.5987c0.4191,-0.1497 0.7484,-0.479 1.1974,-0.5987c0.7784,-0.2695 1.5568,-0.479 2.395,-0.5988c0.3892,-0.0898 0.7784,0.03 1.1975,0c0.3891,-0.0599 0.7783,-0.2694 1.1974,-0.2993c0.3892,-0.0599 0.7784,0 1.1975,0c0.3892,0 0.7784,-0.0599 1.1975,0c0.3892,0.0299 0.8382,0.0898 1.1975,0.2993c0.3592,0.2096 0.5388,0.6287 0.8981,0.8981c0.3592,0.2395 0.7783,0.3892 1.1974,0.5988c0.3892,0.1796 0.7485,0.479 1.1975,0.5987c0.3593,0.0898 0.7784,0 1.1975,0c0.7783,0 1.6166,0.1796 2.3949,0c0.479,-0.1497 0.7185,-0.7185 1.1975,-0.8981c1.1376,-0.5089 2.365,-0.8382 3.5924,-1.1975c0.3892,-0.1497 0.7784,-0.2095 1.1975,-0.2993c1.1675,-0.2994 2.365,-0.6886 3.5924,-0.8982c0.3892,-0.0898 0.7784,0 1.1975,0c0.3892,0 0.7784,0 1.1975,0c1.1675,0 2.3949,0.0599 3.5924,0c0.3892,-0.0299 0.8083,-0.1496 1.1975,-0.2993c0.1197,-0.0599 0.2993,-0.2994 0.2993,-0.2994c0,0 2.2453,0.0898 3.2931,-0.2994c0.3892,-0.1796 0.3293,-0.8382 0.5987,-1.1974c0.2395,-0.3593 0.6287,-0.5688 0.8981,-0.8981c0.2395,-0.3892 0.3892,-0.8083 0.5988,-1.1975c0.1796,-0.4191 0.2993,-0.8682 0.5987,-1.1975c0.5089,-0.6885 1.0777,-1.3172 1.7962,-1.7962c0.3293,-0.2395 0.7784,-0.2096 1.1975,-0.2994c0.7784,-0.2095 1.5567,-0.5688 2.3949,-0.5987c0.7784,-0.0599 1.5867,0.0898 2.395,0.2994c0.4191,0.0898 0.7783,0.4191 1.1975,0.5987c0.3592,0.1198 0.8083,0.0898 1.1974,0.2994c0.8383,0.4191 1.6765,0.8681 2.395,1.4968c1.2873,1.0777 2.3949,2.395 3.5924,3.5924c0.2994,0.2994 0.7185,0.479 0.8981,0.8981c0.4491,1.1376 0.3293,2.4848 0.8981,3.5925c0.3593,0.7484 1.1077,1.2573 1.7962,1.7962c0.3293,0.2694 0.6886,0.5388 1.1975,0.5987c1.9758,0.1497 3.9816,0.1497 5.9874,0c0.479,-0.0599 0.8083,-0.3592 1.1974,-0.5987c0.3294,-0.2695 0.5389,-0.6886 0.8982,-0.8981c0.7484,-0.479 1.5267,-0.8981 2.3949,-1.1975c0.5688,-0.2096 1.7962,-0.2994 1.7962,-0.2994c-0.2994,0.2994 1.916,-0.1497 2.395,-0.8981c0.2095,-0.2993 0.8083,-0.3592 1.1974,-0.5987c0.3293,-0.2694 0.5988,-0.6287 0.8981,-0.8981c0.2695,-0.2994 0.5389,-0.6586 0.8981,-0.8981c0.3593,-0.2695 0.8083,-0.3593 1.1975,-0.5988c0.3293,-0.2694 0.5089,-0.6885 0.8981,-0.8981c0.3293,-0.2095 0.7784,-0.2694 1.1975,-0.2993c0.3892,-0.0599 0.7784,0 1.1975,0c0.3892,0 0.8083,0.0898 1.1974,0c0.4192,-0.1198 0.7784,-0.4491 1.1975,-0.5988c0.3593,-0.1497 0.8682,-0.5688 1.1975,-0.2993c0.7185,0.5688 1.0178,1.5567 1.4968,2.3949c0.2096,0.3592 0.3293,0.8083 0.5988,1.1975c0.2395,0.3293 0.5089,0.6586 0.8981,0.8981c0.3293,0.1796 0.6885,0.2095 1.1975,0.2994c1.9758,0.2394 3.9816,0.5089 5.9873,0.5987c3.5625,0.1197 7.1849,-0.0898 10.7773,0c0.8682,0 0.7783,0.1796 1.1975,0.2994c0.3891,0.0898 0.8083,0.1197 1.1974,0.2993c0.8083,0.3293 1.5567,0.8383 2.395,1.1975c0.3592,0.1497 0.7783,0.1796 1.1975,0.2994c0.3891,0.0898 0.7783,0.2694 1.1974,0.2993c1.1676,0.0599 2.395,0.0599 3.5925,0c0.3891,-0.0299 0.7783,-0.2694 1.1974,-0.2993c0.3892,-0.0599 0.8083,0.0898 1.1975,0c0.4191,-0.1198 0.7484,-0.479 1.1975,-0.5988c0.7783,-0.2694 1.5567,-0.479 2.3949,-0.5987c0.3892,-0.0898 0.7784,0.0299 1.1975,0c0.5987,-0.0898 1.7962,-0.2994 1.7962,-0.2994c0,0 2.1854,-0.2395 3.2931,-0.2993c0.3891,-0.03 0.7783,0.0299 1.1974,0c0.7784,-0.0899 1.5867,-0.3593 2.395,-0.2994c1.1975,0.0599 2.4249,0.2095 3.5924,0.5987c1.2573,0.4191 2.3351,1.3172 3.5924,1.7962c0.3593,0.1198 0.8083,0.0898 1.1975,0c1.1975,-0.3293 2.3949,-0.7484 3.5924,-1.1974c0.8083,-0.3593 1.4969,-1.0778 2.395,-1.1975c2.7542,-0.3892 5.5682,-0.2994 8.3823,-0.2994c0.6885,0 0.6287,0.0994 1.1975,0.2994c2.2752,0.8005 5.0156,0.4526 6.8854,1.7962c0.8892,0.8634 -0.1347,-2.9745 -0.1497,3.5924l-0.1496,78.8836l-286.795,-0.1497z" fill="#af1e30"/><path d="M106.09119,203.03148c-0.0976,0.2784 -0.6197,-0.2521 -0.7784,-0.5389c-0.5035,-0.9172 -0.9598,-1.8997 -1.0478,-2.9637c-0.0347,-0.4161 0.4269,-0.7221 0.6886,-1.0478c0.2694,-0.3353 0.6861,-1.1957 0.8981,-0.928c0.4167,0.5257 0.3107,1.6704 0.3592,2.5147c0.0551,0.9693 0.2305,2.0321 -0.1197,2.9637z" fill="#af1e30"/><path d="M105.01349,201.59448c-0.0048,-0.0024 0.2394,0.1198 0.2394,0.1198c0,0 0.1677,0.2712 0.7784,0.958z" fill="none"/><path d="M111.59959,198.06198c0,0 -0.2946,0.5401 -0.3293,0.8382c-0.0473,0.4072 -0.0084,0.8293 0.0898,1.2274c0.1035,0.4209 0.7143,0.8748 0.5089,1.1975c-0.2138,0.3359 -1.3472,0.1198 -1.3472,0.1198" fill="none"/><path d="M111.27029,205.81558v-3.5624" fill="none"/><path d="M128.27439,195.72688c0,0 0.0688,0.1305 0.0898,0.2395c0.0838,0.4359 0.379,0.9065 0.2096,1.3172c-0.3168,0.767 -1.8316,1.3394 -1.5568,1.9459c0.309,0.6808 2.1854,0.2659 2.7243,0.6287c0.2395,0.1611 -0.7646,0.3275 -1.1675,0.4191c-0.609,0.1389 -1.8561,0.2695 -1.8561,0.2695" fill="none"/><path d="M128.39409,201.14548v2.8739" fill="none"/><path d="M131.11839,197.82248c0,0 0.3047,1.1927 0.4191,1.7962c0.0748,0.3946 0.4431,0.9382 0.1497,1.1975c-0.3503,0.3095 -1.437,-0.0599 -1.437,-0.0599" fill="none"/><path d="M131.08839,203.69008v-1.9159z" fill="none"/><path d="M145.09889,203.03148c0,0 -0.1371,1.0239 -0.3293,1.4969c-0.1629,0.3993 -0.8335,0.6622 -0.7185,1.0777c0.1209,0.4389 0.8945,0.3185 1.1975,0.6586c0.3005,0.3371 0.6831,0.8406 0.5089,1.2573c-0.1617,0.3868 -0.7903,0.2898 -1.1975,0.3892c-0.4921,0.1204 -1.4968,0.2694 -1.4968,0.2694" fill="none"/><path d="M153.93029,201.95378c0.3311,-1.3681 0.2353,-3.1075 0.3592,-4.1313c0.0407,-0.367 0.1802,0.9197 -0.0299,1.3472c-0.1479,0.2999 -1.0436,0.176 -0.8981,0.449c0.3682,0.6874 1.2872,0.9281 1.886,1.4969c0.2994,0.2694 0.8682,0.5688 0.8083,0.9579c-0.0898,0.3593 -0.7185,0.4191 -1.0777,0.5688c-0.3892,0.1198 -0.773,0.2174 -1.1676,0.2695c-0.2137,0.0269 -0.5861,0.0736 -0.7484,-0.1198c0.1401,-0.3059 0.7736,-0.4478 0.8682,-0.8382z" fill="none"/><path d="M154.91819,201.17538c0.1568,0 0.2993,0.0653 0.4023,0.1713c0.103,0.1053 0.1665,0.2514 0.1665,0.4125c0,0.1611 -0.0635,0.3071 -0.1665,0.4125c-0.103,0.106 -0.2455,0.1713 -0.4023,0.1713c-0.1569,0 -0.2994,-0.0653 -0.4024,-0.1713c-0.103,-0.1054 -0.1664,-0.2514 -0.1664,-0.4125c0,-0.1611 0.0634,-0.3072 0.1664,-0.4125c0.103,-0.106 0.2455,-0.1713 0.4024,-0.1713z" fill="#ac1f2d"/><path d="M154.58889,205.81558v-1.5267z" fill="none"/><path d="M200.18269,199.76838c0,0 0.1173,0.0521 0.1497,0.1497c0.1299,0.3898 0.4053,0.8005 0.2993,1.1975c-0.1185,0.4442 -0.9382,0.6083 -0.8981,1.0477c0.0348,0.3838 1.1155,0.3293 1.0478,0.5988c-0.082,0.3293 -1.3471,0.5987 -1.3471,0.5987" fill="none"/><path d="M232.69409,206.05508c0,0 -0.9807,-0.1491 -1.437,-0.3293c-0.4119,-0.1628 -1.0675,-0.2838 -1.1376,-0.6885c-0.0646,-0.3736 0.5868,-0.5718 0.8682,-0.8682c0.2772,-0.2916 0.8017,-0.4957 0.8083,-0.8981c0.0066,-0.4107 -0.7418,-0.5484 -0.7784,-0.958c-0.0359,-0.4005 0.4623,-0.67 0.5988,-1.0478c0.1269,-0.3514 0.1796,-1.1076 0.1796,-1.1076" fill="none"/><path d="M230.98769,207.28248l0.1796,0.1797" fill="none"/><path d="M242.81279,201.08558c0,0 0.3251,1.4693 0.0598,2.1255c-0.1574,0.3886 -1.1525,0.3275 -1.1376,0.5389c0.015,0.2078 0.8251,0.1251 1.1975,0.2994c0.4083,0.191 1.1382,0.4855 1.1077,0.7783c-0.0294,0.276 -0.8275,0.212 -1.2274,0.3593c-0.4694,0.1724 -1.3771,0.5987 -1.3771,0.5987" fill="none"/><path d="M246.43509,202.04358c0.1192,0.397 0.2886,0.8023 0.5688,1.1077c0.288,0.3137 1.319,0.5227 1.0777,0.6885c-0.4771,0.3281 -1.8548,0.6197 -2.5146,0.2994c-0.3581,-0.1737 0.5951,-0.8448 0.4789,-1.2873c-0.1239,-0.4706 -1.031,-0.5035 -1.0777,-0.9879c-0.0401,-0.4138 0.7071,-0.4988 0.8981,-0.8682c0.1772,-0.3449 0.0491,-1.3921 0.1497,-1.2274c0.1431,0.2838 0.2042,1.5597 0.4191,2.2752z" fill="none"/><path d="M250.38679,205.78568c0,0 0.5718,-0.6466 0.6885,-1.0478c0.2299,-0.7921 0.1365,-2.2195 0.3293,-2.4548c0.1551,-0.1898 0.3647,0.9658 0.479,1.4669c0.2952,1.2963 0.5215,2.6117 0.7484,3.9217c0.0569,0.3275 0.0599,0.7484 0.0599,0.7484" fill="none"/><path d="M265.11569,195.54728c0,0 -1.043,-0.0126 -1.5567,-0.0898c-0.4185,-0.0629 -1.1663,-0.0623 -1.2274,-0.3293c-0.0587,-0.2569 0.6275,-0.5305 0.9879,-0.7185c0.3551,-0.185 1.0496,-0.018 1.1376,-0.3892c0.1066,-0.452 -0.4329,-0.8861 -0.7484,-1.2573c-0.2623,-0.3084 -0.943,-0.3581 -0.958,-0.7484c-0.015,-0.388 0.7436,-0.4365 0.8981,-0.8083c0.1916,-0.4605 0.0599,-1.4969 0.0599,-1.4969" fill="none"/><path d="M263.70869,196.02628v3.802" fill="none"/><path d="M297.38759,199.01998c0,0 0.1862,0.5682 0,0.7185c-0.3257,0.2622 -1.1436,-0.0054 -1.2274,0.2694c-0.0808,0.264 0.6736,0.4742 0.8981,0.8083c0.2377,0.3532 0.6628,0.8807 0.4491,1.1975c-0.2204,0.3269 -1.3172,0.0898 -1.3172,0.0898" fill="none"/><path d="M301.75839,195.66698c0,0 0.0988,1.082 -0.0599,1.5867c-0.1233,0.394 -0.8184,0.5814 -0.7484,0.9879c0.0731,0.4227 1.0478,0.3742 1.0478,0.7484c0,0.3742 -1.24,0.4263 -1.0478,0.7485c0.3617,0.6059 2.4309,0.8813 2.1555,1.1076c-0.2976,0.2449 -3.5026,0 -3.5026,0" fill="none"/><path d="M305.26099,199.55878c0.1677,0.3659 0.9059,0.6724 0.8083,0.8981c-0.097,0.2234 -0.8113,0.1 -1.1975,0c-0.4059,-0.1053 -1.001,-0.1934 -1.1076,-0.5987c-0.109,-0.4149 0.4826,-0.7167 0.6586,-1.1077c0.1611,-0.3622 0.1754,-1.3603 0.3293,-1.2274c0.2239,0.2311 0.2311,1.428 0.5089,2.0357z" fill="none"/><path d="M304.72219,200.72638v1.9159z" fill="none"/><path d="M311.60759,200.93588c0,0 -0.067,0.7449 0,1.1077c0.0749,0.4065 0.2856,0.7766 0.4192,1.1675c0.1658,0.4862 0.7615,1.1047 0.4789,1.4669c-0.3011,0.3862 -1.6465,0.03 -1.6465,0.03" fill="none"/><path d="M337.68259,201.44488c0,0 0.218,0.716 0.1797,1.0777c-0.0438,0.4107 -0.2755,0.7801 -0.4192,1.1675c-0.1449,0.3904 -0.6155,0.7856 -0.449,1.1676c0.1682,0.3849 1.0442,0.0772 1.1675,0.4789c0.1467,0.4784 -0.6616,0.8808 -0.5987,1.3771c0.0557,0.4413 1.2034,0.8329 0.8981,0.988c-0.6377,0.3239 -2.7841,-0.03 -2.7841,-0.03" fill="none"/><path d="M337.17369,208.18058v6.9753" fill="none"/></g></g></svg>