<svg version="1.1" xmlns="http://www.w3.org/2000/svg" xmlns:xlink="http://www.w3.org/1999/xlink" width="288.14243" height="98.10307" viewBox="0,0,288.14243,98.10307"><g transform="translate(-96.33005,-196.30428)"><g data-paper-data="{&quot;isPaintingLayer&quot;:true}" fill-rule="nonzero" stroke-linecap="round" stroke-linejoin="miter" stroke-miterlimit="10" stroke-dasharray="" stroke-dashoffset="0" style="mix-blend-mode: normal"><path d="M97.22831,213.57791c0.285,-3.3272 4.4911,-0.1168 6.7358,-0.1497c0.5442,-0.0252 0.7783,-0.03 1.1974,0c0.3892,0 0.8083,0.0299 1.1975,0.1497c0.8083,0.2095 1.5867,0.6286 2.395,0.8981c0.3891,0.1197 0.8082,0.1197 1.1974,0.2993c0.8083,0.3293 1.5867,0.7485 2.395,1.1975c0.3892,0.2096 1.1975,0.7484 1.1975,0.7484c0,0 1.886,0.2395 2.844,0.4491c0.3891,0.0898 0.7783,0.2994 1.1974,0.449c0.4191,0.1198 0.8682,0.2096 1.3472,0.2994c0.3892,0.0599 0.7783,0.1198 1.1975,0.1497c0.3891,0 0.7783,-0.0299 1.1974,0c0.3892,0 0.7784,0.1497 1.1975,0.1497c0.8981,0 1.7962,-0.0898 2.6943,-0.1497c0.3892,-0.0599 0.7784,-0.1198 1.1975,-0.1497c0.3892,-0.0599 0.7784,-0.1197 1.1975,-0.1497c0.3891,-0.0599 0.7783,-0.0599 1.1974,-0.1497c0.3892,-0.1197 0.8083,-0.2694 1.1975,-0.449c0.3593,-0.1796 0.6586,-0.4491 1.0478,-0.5988c0.3592,-0.2095 0.8083,-0.2694 1.1975,-0.449c0.3592,-0.1796 0.7484,-0.3293 1.0478,-0.5987c0.2694,-0.2994 0.3592,-0.7485 0.5987,-1.0478c0.2395,-0.3892 0.5089,-0.8083 0.8981,-1.0478c0.3293,-0.2695 0.7784,-0.3892 1.1975,-0.4491c0.3892,-0.0898 0.8083,-0.1197 1.1975,0c0.3592,0.0898 0.6586,0.4491 1.0477,0.5988c0.3593,0.1496 0.8083,0.1197 1.1975,0.2993c0.3593,0.1797 0.6287,0.5688 1.0478,0.7485c0.4191,0.1796 0.8981,0.1796 1.3472,0.2993c0.7783,0.1796 1.5866,0.4191 2.3949,0.5988c0.3892,0.0598 0.7784,0.1197 1.1975,0.1496c0.3892,0 0.7784,0.03 1.1975,0c0.3891,-0.0598 0.7783,-0.1796 1.1974,-0.2993c0.3892,-0.1497 0.7784,-0.3293 1.1975,-0.4491c0.3892,-0.1497 0.8083,-0.2694 1.1975,-0.449c0.4191,-0.2395 0.7484,-0.5389 1.1975,-0.7485c0.3592,-0.2095 0.7783,-0.3293 1.1974,-0.449c0.3892,-0.1497 0.7784,-0.2395 1.1975,-0.2994c0.3892,-0.0898 0.7784,-0.1197 1.1975,-0.1497c0.1796,-0.0299 0.5987,0 0.5987,0c0,0 3.0835,0.03 4.6402,0.1497c0.3892,0.03 0.7784,0.2395 1.1975,0.2994c0.8382,0.0898 1.6765,0.1796 2.5446,0.1497c0.3892,-0.03 0.7784,-0.2395 1.1975,-0.2994c0.7784,-0.1497 1.5867,-0.2095 2.395,-0.2994c0.7783,-0.1197 1.6165,-0.1197 2.3949,-0.2993c0.7784,-0.2096 1.6465,-0.3293 2.2453,-0.8981c0.928,-0.958 1.3172,-2.365 2.0955,-3.4428c0.2395,-0.3592 0.509,-0.7484 0.8982,-0.8981c0.3592,-0.1796 0.7783,0 1.1974,0c0.3892,0 0.8083,-0.1497 1.1975,0c0.3892,0.1198 0.6886,0.479 1.0478,0.7484c0.3293,0.2395 0.6586,0.5389 1.0478,0.7485c0.3592,0.1796 0.7783,0.3592 1.1975,0.449c0.3891,0.0599 0.8083,-0.1197 1.1974,0c0.4191,0.0898 0.7784,0.3593 1.1975,0.5988c0.6886,0.3592 1.407,0.7484 2.0956,1.1974c0.7185,0.4491 1.3771,0.9879 2.0956,1.4969c0.6586,0.449 1.3771,0.8981 2.0955,1.3471c0.2695,0.1497 0.8981,0.4491 0.8981,0.4491c0,0.1497 0.7784,-0.2994 1.1975,-0.4491c0.3593,-0.1497 0.8083,-0.1796 1.1975,-0.2993c0.3892,-0.1797 0.7784,-0.4491 1.1975,-0.5988c0.3592,-0.1497 0.7783,-0.2395 1.1974,-0.2993c0.3892,-0.0899 0.7784,-0.2096 1.1975,-0.1497c0.4191,0.0299 0.7784,0.2694 1.1975,0.449c0.3892,0.1497 0.7484,0.479 1.1975,0.5988c0.3592,0.0898 0.8083,0.0898 1.1974,0c0.3593,-0.1198 0.7185,-0.3892 1.0478,-0.5988c0.3593,-0.2694 0.6287,-0.6885 1.0478,-0.8981c0.3593,-0.2395 0.8083,-0.2694 1.1975,-0.449c0.3592,-0.2096 0.7185,-0.479 1.0478,-0.7485c0.6287,-0.5688 1.1376,-1.2573 1.7962,-1.7962c0.2994,-0.2993 0.6885,-0.5089 1.0478,-0.7484c0.3592,-0.2994 0.6586,-0.6586 1.0478,-0.8981c0.6586,-0.449 1.407,-0.8083 2.0956,-1.1975c0.6885,-0.449 1.377,-0.928 2.0955,-1.3471c0.3593,-0.2395 0.7784,-0.4491 1.1975,-0.5988c0.3892,-0.1796 0.7784,-0.3592 1.1975,-0.449c0.3892,-0.1198 0.7783,-0.1497 1.1975,-0.1497c0.4191,-0.0299 0.8981,0 1.3471,0c0.3892,0 0.8083,-0.1197 1.1975,0c0.3592,0.0898 0.6885,0.3892 1.0478,0.5987c0.3293,0.1797 0.7185,0.3593 1.0478,0.5988c0.3592,0.2395 0.7184,0.5388 1.0478,0.8981c0.2694,0.2994 0.4789,0.6885 0.7484,1.0478c0.2395,0.3293 0.479,0.6885 0.7484,1.0478c0.2395,0.3293 0.479,0.6885 0.7484,1.0478c0.0898,0.1197 0.2994,0.449 0.2994,0.449c0,0.4491 0.7484,1.1077 1.1975,1.3472c0.3592,0.1796 0.7783,0.1796 1.1974,0.2993c0.3892,0.0898 0.7784,0.2096 1.1975,0.2994c0.3892,0.0599 0.7784,0.0898 1.1975,0.1497c1.5866,0.1796 3.1733,0.3592 4.7899,0.5987c0.449,0.0599 0.8981,0.1796 1.3471,0.2994c0.3892,0.0898 0.7784,0.2095 1.1975,0.2994c0.4191,0.0598 0.8682,0.1197 1.3472,0.1496c0.7783,0.03 1.5866,-0.0598 2.3949,0c0.3892,0 0.8083,0 1.1975,0.1497c0.3592,0.1198 0.6885,0.3892 1.0478,0.5988c0.3293,0.1796 0.6885,0.3891 1.0478,0.5987c0.3891,0.2096 0.7484,0.479 1.1974,0.5987c0.4192,0.0898 0.8981,0 1.3472,0c0.3892,0 0.8083,0.0898 1.1975,0c0.7783,-0.2095 1.5268,-0.5388 2.2452,-0.8981c0.7185,-0.3891 1.3472,-0.9879 2.0956,-1.3471c0.3593,-0.2096 0.7784,-0.2695 1.1975,-0.2994c0.3892,-0.0599 0.7783,-0.0599 1.1975,0c0.3891,0.0299 0.7783,0.1497 1.1974,0.2994c0.3892,0.1197 0.7784,0.2993 1.1975,0.449c0.7784,0.2695 1.5867,0.5389 2.395,0.8981c0.3592,0.1497 0.6586,0.4191 1.0477,0.5988c0.7784,0.3592 1.5867,0.6586 2.395,1.0478c0.3592,0.1496 0.6885,0.3891 1.0478,0.5987c0.0898,0.0299 0.2994,0.1497 0.2994,0.1497c0.1496,-0.2994 1.7363,0.479 2.5446,0.8981c0.3293,0.1796 0.6586,0.449 1.0478,0.5987c0.7484,0.2994 1.5567,0.5688 2.3949,0.7484c0.3892,0.0599 0.7784,0.0599 1.1975,0c0.3892,-0.0898 0.8682,-0.1796 1.1975,-0.449c0.2993,-0.3293 0.4191,-0.8083 0.5987,-1.1975c0.2994,-0.7484 0.5089,-1.5567 0.8981,-2.2452c0.2096,-0.4192 0.5688,-0.7185 0.8981,-1.0478c0.2695,-0.3293 0.5688,-0.6287 0.8981,-0.8981c0.3293,-0.3293 0.6586,-0.6287 1.0478,-0.8981c0.3593,-0.2994 0.7784,-0.509 1.1975,-0.7485c0.3293,-0.2095 0.6586,-0.5089 1.0478,-0.5987c0.3592,-0.1198 0.7783,0 1.1975,0c0.3891,0 0.8382,0.1796 1.1974,0c0.3293,-0.2096 0.2395,-0.8682 0.5988,-1.0478c0.3891,-0.2395 0.8981,-0.1197 1.3471,0c0.3892,0.0898 0.7185,0.3293 1.0478,0.5987c0.3293,0.2695 0.479,0.8383 0.8981,1.0478c0.3293,0.1497 0.7784,-0.0598 1.1975,0c0.3892,0.03 0.7783,0.1497 1.1975,0.2994c0.3891,0.1197 0.7783,0.3592 1.1974,0.4491c0.3892,0.0598 0.7784,-0.0899 1.1975,0c0.3892,0.0598 0.8083,0.2394 1.1975,0.449c0.3592,0.1796 0.6586,0.5089 1.0478,0.7484c0.3293,0.2096 0.7484,0.2994 1.0478,0.5988c0.2993,0.2694 0.5089,0.6586 0.7484,1.0478c0.2095,0.3293 0.2694,0.8082 0.5987,1.0477c0.5988,0.4192 2.0956,0.8981 2.0956,0.8981c0.1497,0.1497 1.8261,0.0599 2.6943,0c0.4491,-0.0598 0.8981,-0.0898 1.3472,-0.1496c0.3892,-0.0898 0.7783,-0.2695 1.1974,-0.2994c0.3892,-0.0599 0.7784,-0.0299 1.1975,0c0.3892,0 0.7784,0.0898 1.1975,0.1497c0.8682,0.0599 1.7962,0.0299 2.6943,0.1497c0.3892,0.0299 0.7784,0.2095 1.1975,0.2993c0.7783,0.1198 1.5866,0.1797 2.3949,0.2994c0.3892,0.0299 0.7784,0.0898 1.1975,0.1497c0.3892,0.0299 0.7784,0.0599 1.1975,0.1497c0.3892,0.0598 0.7783,0.1497 1.1975,0.2993c0.0898,0.03 0.1496,0.1497 0.1496,0.1497c0,0 1.8561,0.1796 2.6944,-0.1497c1.1974,-0.5388 2.1853,-1.4968 3.1433,-2.3949c0.2994,-0.3293 0.3293,-0.8382 0.5988,-1.1975c0.2395,-0.3592 0.5987,-0.5987 0.8981,-0.8981c0.2694,-0.3293 0.449,-0.7484 0.7484,-1.0478c0.2994,-0.3592 0.6287,-0.6885 1.0478,-0.8981c0.3592,-0.2395 0.7484,-0.4191 1.1975,-0.449c0.7783,-0.0898 1.5866,-0.03 2.3949,0.1496c0.4191,0.0899 0.7784,0.4192 1.1975,0.5988c0.3892,0.1497 0.8083,0.2395 1.1974,0.449c0.3593,0.1497 0.6886,0.3892 1.0478,0.5988c0.3293,0.1796 0.6886,0.3892 1.0478,0.5987c0.3293,0.1796 0.7185,0.3293 1.0478,0.5987c0.3293,0.2695 0.5089,0.7485 0.8981,1.0478c0.3293,0.2695 0.7484,0.4491 1.1975,0.5988c0.3592,0.1197 0.7784,0.1497 1.1975,0.1497c0.3892,-0.03 0.8083,-0.1497 1.1974,-0.2994c0.3593,-0.2096 0.6587,-0.5389 1.0478,-0.7484c0.3293,-0.2395 0.6586,-0.479 1.0478,-0.5988c0.3593,-0.1796 0.7784,-0.2095 1.1975,-0.2993c0.3892,-0.1198 0.7784,-0.2096 1.1975,-0.2994c0.3892,-0.1198 0.8083,-0.1497 1.1974,-0.2994c0.3593,-0.1497 0.6886,-0.3892 1.0478,-0.5987c0.3593,-0.2395 0.6886,-0.5089 1.0478,-0.7484c0.3593,-0.2994 0.6287,-0.6886 1.0478,-0.8981c0.3593,-0.2395 0.8083,-0.2695 1.1975,-0.4491c0.3592,-0.1796 0.6287,-0.5688 1.0478,-0.5987c0.7783,-0.1198 2.3949,0.1497 2.3949,0.1497c0,0 0.8981,-0.2096 1.3472,-0.2994c0.4191,-0.1198 0.928,-0.1198 1.3471,-0.2994c0.3892,-0.2095 0.8083,-0.5089 1.0478,-0.8981c0.1797,-0.3592 -0.0299,-0.8382 0.1497,-1.1975c0.1796,-0.4191 0.5389,-0.7783 0.8981,-1.0477c0.2994,-0.2695 0.6586,-0.509 1.0478,-0.5988c0.3593,-0.1197 0.7784,0 1.1975,0c0.3892,0 0.7783,-0.0299 1.1975,0c0.3891,0 0.8083,0 1.1974,0.1497c0.8682,0.2994 1.6765,0.8083 2.5447,1.1975c1.1675,0.5089 2.3051,1.1974 3.5924,1.4968c1.5866,0.3593 3.2631,0.479 4.9396,0.4491c0.3891,-0.03 0.6885,-0.3892 1.0478,-0.5988c0.3592,-0.2395 0.6286,-0.6286 1.0477,-0.7484c0.4192,-0.1497 0.8982,-0.1197 1.3472,0c0.3892,0.0898 0.7185,0.3593 1.0478,0.5987c0.3592,0.2395 0.6586,0.6287 1.0478,0.8982c0.6586,0.4789 1.3771,0.8981 2.0956,1.3471c0.3592,0.2096 0.7484,0.4491 1.1974,0.5987c0.4192,0.1497 0.8981,0.1497 1.3472,0.2994c0.449,0.1198 0.8981,0.2694 1.3472,0.4491c0.5388,0.1796 1.5866,-0.2395 1.6465,0.5987l-0.1497,22.9017l-0.2994,58.6762h-286.3459l-0.1497,-78.8836z" fill="#72012a" stroke="#72012a" stroke-width="1.19747"/><path d="M103.51501,211.96131c-0.3137,-0.5682 1.0304,-1.3532 1.2274,-2.1555c0.0964,-0.3922 -0.4939,-0.7406 -0.4191,-1.1376c0.0844,-0.4466 0.4724,-1.0777 0.8382,-1.0777c0.3228,0 0.3162,0.7436 0.5389,1.0777c0.2395,0.3593 0.7334,0.5694 0.8382,0.9879c0.0976,0.3892 -0.2125,0.776 -0.2993,1.1676c-0.0922,0.4161 0.1538,1.0933 -0.2395,1.2573c-0.7646,0.3191 -2.1699,0.4497 -2.5147,0.03z" fill="#72012a" stroke="#72012a" stroke-width="1.19747"/><path d="M124.94981,215.55371c0.003,0.2215 -0.3353,-0.1072 -0.5089,-0.1198c-0.1976,-0.0473 -0.5958,0.1491 -0.5988,-0.0598c-0.0114,-0.8251 0.3982,-2.4578 0.5688,-2.4249c0.1707,0.0329 0.5269,1.725 0.5389,2.6045z" fill="none" stroke="#72012a" stroke-width="1.19747"/><path d="M120.57901,209.53641c0.4676,0.2018 0.8155,1.2891 1.0478,2.0058c0.1353,0.4173 0.3119,0.9813 0.0299,1.3172c-0.5484,0.6538 -1.5746,0.7239 -2.2153,1.2873c-0.3892,0.3424 -0.9179,0.9705 -0.7783,1.3471c0.1149,0.312 0.8591,0.0102 1.2872,0.03c0.888,0.0401 2.462,0.5915 2.6644,0.1496c0.2018,-0.4412 -1.2633,-1.2543 -1.8561,-1.9159c-0.2658,-0.297 -0.4748,-0.6425 -0.7185,-0.958c-0.2646,-0.3425 -0.822,-0.585 -0.8082,-1.0178c0.0131,-0.4156 0.6544,-0.5413 0.8681,-0.8982c0.2449,-0.4083 0.1832,-1.4746 0.3293,-1.5567z" fill="#72012a" stroke="#72012a" stroke-width="1.19747"/><path d="M120.81851,217.61931v-1.9159z" fill="none" stroke="#72012a" stroke-width="1.19747"/><path d="M132.19451,213.21861c0.1605,-0.4215 0.4916,-0.834 0.6586,-1.2873c0.1419,-0.3844 0.309,-0.7657 0.3892,-1.1675c0.0802,-0.4018 -0.1377,-0.8861 0.0898,-1.2274c0.2299,-0.3449 0.8352,-0.8766 1.1077,-0.5688c0.5358,0.6053 0.4143,1.5848 0.5089,2.3949c0.0461,0.397 0.0808,0.8359 -0.0898,1.1975c-0.1802,0.3826 -0.5012,0.7526 -0.8981,0.8981c-0.3856,0.1413 -0.8191,-0.0754 -1.2274,-0.1197c-0.1401,-0.0156 -0.4311,0.0808 -0.4191,-0.0599z" fill="#72012a" stroke="#72012a" stroke-width="1.19747"/><path d="M158.50901,212.73961c-0.3628,0.1731 -1.922,0.1437 -2.9338,-0.0299c-0.4,-0.0695 -1.0412,-0.2718 -0.958,-0.6287c0.0964,-0.5861 0.9149,-0.7981 1.3172,-1.2573c0.2736,-0.3126 0.6287,-0.682 0.6287,-1.0778c0,-0.4179 -0.5688,-0.6885 -0.6287,-1.0777c-0.0898,-0.4191 -0.0299,-0.8382 0.1497,-1.1975c0.1796,-0.3891 0.7484,-0.9579 0.8682,-0.8981c0.0898,0.03 -0.4491,0.8083 -0.2994,1.1975c0.2694,0.7784 1.3172,1.2274 1.4969,2.0657c0.0598,0.3891 -0.8383,0.449 -0.8682,0.8681c-0.0599,0.4191 0.4796,0.691 0.7185,1.0478c0.2125,0.3066 0.8268,0.9215 0.6586,0.9879z" fill="#72012a" stroke="#72012a" stroke-width="1.19747"/><path d="M169.76521,206.81211c0.1815,0.4042 0.6203,0.7 0.6886,1.1376c0.0623,0.3994 -0.3143,0.764 -0.3293,1.1676c-0.0156,0.4161 0.2934,0.8143 0.2395,1.2274c-0.0515,0.3981 -0.1802,0.8981 -0.5389,1.0777c-0.3784,0.1892 -0.8358,-0.1443 -1.2573,-0.1796c-0.4072,-0.0341 -1.1712,0.1383 -1.2274,-0.0299c-0.0563,-0.1683 0.6376,-0.4934 0.9879,-0.6886c0.3508,-0.1958 1.0256,-0.1281 1.1076,-0.479c0.0827,-0.3526 -0.5298,-0.6101 -0.7783,-0.928c-0.2503,-0.3203 -0.7664,-0.5838 -0.7185,-0.9879c0.0473,-0.4006 0.7161,-0.4353 0.928,-0.7784c0.3066,-0.4975 0.3425,-1.4489 0.5988,-1.5867c0.1718,-0.1191 0.1407,0.694 0.2993,1.0478z" fill="#72012a" stroke="#72012a" stroke-width="1.19747"/><path d="M191.11021,211.51221c-0.3203,0.1725 -1.1017,-0.0024 -1.5567,-0.0299c-0.3994,-0.024 -1.1238,-0.0784 -1.1376,-0.3892c-0.0162,-0.3778 0.9113,-0.5305 1.0777,-0.9879c0.4473,-1.2274 0.5688,-3.6523 0.6886,-3.8619c0.1197,-0.2095 -0.0934,1.746 0.0299,2.6045c0.118,0.8215 0.8897,1.5897 0.6886,2.395z" fill="#72012a" stroke="#72012a" stroke-width="1.19747"/><path d="M189.82291,211.84151v1.3771z" fill="none" stroke="#72012a" stroke-width="1.19747"/><path d="M210.89851,207.20131c-0.1072,0.4287 -0.9796,-2.0956 -1.2274,-3.1733c-0.091,-0.3964 0.1455,-0.8017 0.2395,-1.1975c0.0958,-0.4023 0.2287,-1.6345 0.3293,-1.1974c0.4017,1.7483 0.7759,5.0521 0.6586,5.5682z" fill="none" stroke="#72012a" stroke-width="1.19747"/><path d="M213.83231,205.70451c-0.2802,-0.8868 -0.4455,-4.672 -0.2994,-6.2568c0.0485,-0.5269 0.4515,1.2938 0.6586,1.9459c0.1318,0.4149 0.3994,0.8238 0.3593,1.2573c-0.0934,1.0149 -0.5545,3.5643 -0.7185,3.0536z" fill="none" stroke="#72012a" stroke-width="1.19747"/><path d="M216.97571,202.95031c0,0 -0.0348,-2.1183 0.0299,-3.1733c0.0257,-0.4155 0.1389,-1.6537 0.2395,-1.2274c0.4017,1.7058 0.5424,3.6086 0.7484,5.4185c0.0515,0.4527 0,1.1676 0,1.1676" fill="none" stroke="#72012a" stroke-width="1.19747"/><path d="M227.18411,210.70391c0,0 0.4976,-1.4489 0.7484,-1.3771c0.2623,0.0749 0.2761,1.1101 0.2994,1.6765c0.0371,0.8975 -0.0545,1.7986 -0.1197,2.6943c-0.0342,0.4712 -0.1797,1.407 -0.1797,1.407" fill="none" stroke="#72012a" stroke-width="1.19747"/><path d="M236.94351,207.14141c0,0 -0.1107,0.6946 -0.2395,1.0179c-0.1628,0.4101 -0.7304,0.7376 -0.6286,1.1675c0.0928,0.391 0.7274,0.3563 1.0478,0.5988c0.343,0.2598 0.998,0.6496 0.928,0.8981c-0.0647,0.2305 -0.7987,0.0461 -1.1975,0.0598c-0.4682,0.0162 -1.407,0.03 -1.407,0.03" fill="none" stroke="#72012a" stroke-width="1.19747"/><path d="M253.16931,206.96181c0,0 -0.4634,1.0951 -0.5389,1.6765c-0.0568,0.4377 0.0054,0.8999 0.1497,1.3172c0.1515,0.4395 0.9293,0.8508 0.7185,1.1975c-0.2533,0.4167 -1.6465,0.3293 -1.6465,0.3293" fill="none" stroke="#72012a" stroke-width="1.19747"/><path d="M260.26431,213.54791c0.2503,-0.288 0.4395,-0.6245 0.5988,-0.928c0.2131,-0.4072 0.4688,-1.2927 0.5688,-1.2574c0.1,0.0354 -0.0108,0.9802 0.0299,1.4669c0.0389,0.4623 0.1353,0.9191 0.2096,1.3771c0.0652,0.3994 0.461,1.0682 0.2095,1.1975c-0.3023,0.1551 -0.9268,-0.3389 -1.3172,-0.6287c-0.3239,-0.2407 -0.7017,-0.5328 -0.7784,-0.928c-0.0383,-0.209 0.3623,-0.1694 0.479,-0.2994z" fill="#72012a" stroke="#72012a" stroke-width="1.19747"/><path d="M270.38301,213.78741c0,0 -0.4317,0.5503 -0.6287,0.8383c-0.2323,0.3406 -0.6257,0.637 -0.6586,1.0477c-0.0341,0.4281 0.6778,0.8215 0.479,1.1975c-0.2054,0.3874 -1.2873,0.3293 -1.2873,0.3293" fill="none" stroke="#72012a" stroke-width="1.19747"/><path d="M280.20231,209.71601c0,0 -1.44,-0.6478 -1.5867,-1.1975c-0.0928,-0.3484 1.0311,-0.2167 1.1077,-0.5987c0.073,-0.3664 -0.7658,-0.4981 -0.8083,-0.8981c-0.0515,-0.4844 0.5688,-1.3472 0.5688,-1.3472" fill="none" stroke="#72012a" stroke-width="1.19747"/><path d="M284.39341,207.59051c0.1246,-0.3179 0.7329,-0.2569 0.8981,-0.5688c0.2036,-0.3994 -0.1131,-1.5651 0.0599,-1.4669c0.2204,0.1557 0.8341,1.3621 0.8682,2.0656c0.0191,0.409 -0.6658,0.6095 -0.6886,1.0179c-0.0233,0.4137 0.679,0.7077 0.5688,1.1076c-0.1083,0.3922 -0.6448,0.6658 -1.0478,0.6287c-0.4526,-0.0407 -1.1376,-0.3071 -1.1974,-0.7783c-0.0665,-0.5419 0.7256,-0.8119 0.8681,-1.3173c0.0719,-0.2526 -0.4209,-0.452 -0.3293,-0.6885z" fill="#72012a" stroke="#72012a" stroke-width="1.19747"/><path d="M300.46951,213.84731c0,0 -0.9759,0.1473 -1.4669,0.1796c-0.4179,0.0276 -0.84,0.0306 -1.2573,0c-0.4024,-0.0293 -1.1412,0.0886 -1.1975,-0.1796c-0.0635,-0.3006 0.5784,-0.7143 0.958,-0.958c0.661,-0.4233 2.1842,-0.6071 2.1255,-1.0178c-0.0611,-0.4275 -1.8663,-0.1497 -2.365,-0.6586c-0.2497,-0.2545 0.6748,-0.5078 0.8681,-0.8682c0.1922,-0.3587 0.2042,-0.7921 0.2395,-1.1975c0.015,-0.1712 -0.0898,-0.5089 -0.0898,-0.5089" fill="none" stroke="#7d013a" stroke-width="1.19747"/><path d="M298.73321,217.85881l-0.0898,-2.9038" fill="none" stroke="#72012a" stroke-width="1.19747"/><path d="M307.17541,214.14671c0,0 -1.452,0.1772 -1.6465,-0.0599c-0.1473,-0.1796 0.904,-0.3706 0.9579,-0.7784c0.1072,-0.8107 -0.3862,-1.592 -0.5388,-2.3949c-0.0384,-0.2006 0.0598,-0.1198 0.0598,-0.1198" fill="none" stroke="#72012a" stroke-width="1.19747"/><path d="M311.66591,214.08681c0.2042,0.355 0.7275,0.9358 0.3892,1.1675c-0.7131,0.4886 -2.0651,0.4736 -2.5746,0.3293c-0.2586,-0.073 0.7568,-0.4293 0.9879,-0.7783c0.2216,-0.3347 0.4281,-0.7874 0.2994,-1.1676c-0.1317,-0.3891 -0.9113,-0.37 -0.958,-0.7783c-0.0796,-0.6999 0.5071,-1.9633 0.6287,-1.9459c0.1221,-0.0174 -0.0569,1.3148 0.1796,1.9459c0.1886,0.5029 0.7778,0.758 1.0478,1.2274z" fill="none" stroke="#72012a" stroke-width="1.19747"/><path d="M314.56981,216.30211c0,0 1.4968,-0.3592 1.5567,-0.7185c0.0599,-0.3293 -1.0777,-0.2095 -1.2574,-0.6286c-0.2394,-0.3892 0.1797,-0.8383 0.4192,-1.1975c0.1796,-0.3892 0.5388,-0.6586 0.7783,-0.9879c0.1198,-0.2096 0.2994,-0.6586 0.2994,-0.6586c-0.8682,3.7421 -0.8682,9.7294 -0.8682,9.7294" fill="none" stroke="#72012a" stroke-width="1.19747"/><path d="M320.52721,210.01541c-0.1227,-0.3078 0.8005,-0.6999 1.0179,-1.1676c0.1808,-0.3891 0.1119,-0.8615 0.0598,-1.2872c-0.0592,-0.4826 -0.4388,-0.9233 -0.3891,-1.4071c0.0856,-0.834 0.2275,-1.9225 0.7783,-2.3949c0.2874,-0.2461 0.5814,0.6568 0.8981,0.958c0.2922,0.2778 0.7556,0.4137 0.9281,0.7783c0.1963,0.4155 0.1479,0.9215 0.0898,1.3771c-0.0539,0.4191 -0.4832,0.7796 -0.4191,1.1975c0.061,0.3999 0.8172,0.5592 0.7484,0.958c-0.0737,0.4281 -0.6502,0.6035 -1.0478,0.7783c-0.3706,0.1629 -0.7933,0.1844 -1.1975,0.2096c-0.5023,0.0311 -1.3651,0.276 -1.4669,0z" fill="#72012a" stroke="#72012a" stroke-width="1.19747"/><path d="M329.83761,211.63201c0.1137,-0.2862 0.6155,-0.7646 0.8382,-1.1676c0.182,-0.3891 0.0599,-1.1376 0.4191,-1.2274c0.3593,-0.0898 0.7185,0.479 0.958,0.8682c0.1796,0.3293 0.2395,0.7783 0.2994,1.1975c0.0598,0.449 0.0598,0.928 0.0598,1.407c0,0.3892 0,0.7784 0.0599,1.1975c0,0.0898 0,0.1497 0,0.1497c-0.0299,0 -0.6149,-0.676 -0.958,-0.958c-0.3293,-0.2701 -0.7915,-0.3736 -1.0777,-0.6886c-0.2341,-0.2574 -0.4407,-0.7849 -0.4191,-0.958z" fill="#72012a" stroke="#72012a" stroke-width="1.19747"/><path d="M358.66681,196.90301c0,0 -0.1138,1.2765 -0.3593,1.8561c-0.1569,0.3706 -0.8825,0.5425 -0.8083,0.8981c0.0755,0.3629 0.7377,0.3617 1.1077,0.5389c0.3778,0.1814 1.1454,0.3245 1.1376,0.5389c-0.0072,0.2047 -0.7939,0.1526 -1.1676,0.2993c-0.4191,0.1647 -1.5369,0.4802 -1.1974,0.6287c0.9627,0.4203 3.9678,0.2676 3.8019,0.5089c-0.1658,0.2413 -4.8497,1.0179 -4.8497,1.0179" fill="none" stroke="#72012a" stroke-width="1.19747"/><path d="M358.78651,206.36311v-2.7542" fill="none" stroke="#72012a" stroke-width="1.19747"/><path d="M221.72891,205.61301c-0.101,-0.051 -0.01,-0.166 0,-0.25c0.04,-0.334 0.084,-0.67 0.15,-1c0.067,-0.337 0.167,-0.667 0.25,-1c0.083,-0.333 0.183,-0.663 0.25,-1c0.066,-0.33 -0.025,-0.712 0.15,-1c0.185,-0.305 0.63,-0.74 0.85,-0.65c0.205,0.085 0,0.667 0,1c0,0.333 -0.085,0.678 0,1c0.087,0.332 0.283,0.635 0.5,0.9c0.239,0.292 0.643,0.435 0.85,0.75c0.191,0.291 0.396,0.666 0.3,1c-0.1,0.351 -0.463,0.61 -0.8,0.75c-0.307,0.128 -0.673,0.058 -1,0c-0.5,-0.091 -1.053,-0.241 -1.2,-0.1z" fill="#72012a" stroke="#72012a" stroke-width="1"/></g></g></svg>