<svg version="1.1" xmlns="http://www.w3.org/2000/svg" xmlns:xlink="http://www.w3.org/1999/xlink" width="288.99613" height="82.97015" viewBox="0,0,288.99613,82.97015"><g transform="translate(-95.54721,-212.42062)"><g data-paper-data="{&quot;isPaintingLayer&quot;:true}" fill-rule="nonzero" stroke-linejoin="miter" stroke-miterlimit="10" stroke-dasharray="" stroke-dashoffset="0" style="mix-blend-mode: normal"><path d="M171.98622,240.60637c0.8035,-0.1347 1.5567,0.449 2.3949,0.5987c0.3892,0.0599 0.7784,-0.0599 1.1975,0c0.3892,0.0299 0.7244,0.279 1.1975,0.2994c1.8908,0.0826 3.7834,0.0988 5.658,-0.1497c1.037,-0.0527 2.0645,-0.3377 3.0236,-0.7484c0.4581,-0.1958 0.7485,-0.6886 1.1975,-0.8981c1.1376,-0.5988 2.365,-1.0478 3.5924,-1.4969c0.3593,-0.1497 0.7784,-0.2993 1.1975,-0.2993c1.1675,-0.0899 2.395,-0.1198 3.5924,0c0.8981,0.0598 1.7962,0.3592 2.6943,0.5987c0.7784,0.1796 1.5867,0.3293 2.395,0.5987c0.4191,0.1198 0.7783,0.4191 1.1975,0.5988c0.3592,0.1197 0.8083,0.0898 1.1974,0.2993c0.4192,0.2096 0.7185,0.7185 1.1975,0.8981c0.7484,0.2395 1.5879,0.2994 2.395,0.2994c0.7849,0 1.6417,0.0024 2.3949,-0.2994c0.9191,-0.3335 0.8388,-1.0711 4.1912,-1.7962c0.4185,-0.1329 0.7484,-0.5089 1.1974,-0.5987c0.3593,-0.1198 0.7784,0.0599 1.1975,0c0.8083,-0.1497 1.5567,-0.479 2.395,-0.5987c0.3891,-0.0899 0.7837,0 1.1974,0c0.3916,0 0.7976,0.079 1.1975,0c1.0161,-0.2258 1.8034,-0.4503 3.5924,-1.1975c0.3982,-0.1946 0.8083,-0.3593 1.1975,-0.5988c0.3293,-0.2694 0.5089,-0.6885 0.8981,-0.8981c0.3293,-0.2095 0.7784,-0.2694 1.1975,-0.2993c0.7783,-0.0898 1.5866,-0.1198 2.3949,0c0.8083,0.0898 1.5921,0.4161 2.395,0.5987c0.7837,0.1754 1.5711,0.5562 2.365,0.4491c1.9363,-0.2605 3.708,-1.0269 5.5084,-1.6166c2.4488,-0.8167 4.9833,-1.4819 7.2447,-2.6045c0.8502,-0.4227 1.3998,-1.4077 2.1255,-1.8861c1.2609,-0.834 2.8003,-1.3178 4.0115,-2.1255c0.3503,-0.2353 0.5389,-0.6586 0.8981,-0.8981c0.3593,-0.2694 0.7485,-0.479 1.1975,-0.5987c0.7784,-0.2694 1.5567,-0.479 2.395,-0.5988c0.3891,-0.0898 0.7783,-0.0598 1.1974,0c0.3892,0.03 0.8095,0.1509 1.1975,0.2994c0.3964,0.1515 0.8047,0.3796 1.1975,0.5988c0.6089,0.3221 0.9556,0.7136 2.3949,1.1974c0.3886,0.109 0.8083,0.1497 1.1975,0.2994c0.3892,0.1497 0.7784,0.3892 1.1975,0.5987c0.3892,0.1797 0.7484,0.4491 1.1975,0.5988c0.7783,0.2395 1.5567,0.449 2.3949,0.5987c0.3892,0.0599 0.8083,0.0898 1.1975,0c0.4191,-0.1197 0.7783,-0.4191 1.1975,-0.5987c0.3891,-0.2096 0.7783,-0.4491 1.1974,-0.5988c0.3593,-0.1497 0.8083,-0.1796 1.1975,-0.2993c0.3892,-0.1797 0.7784,-0.4491 1.1975,-0.5988c0.3592,-0.1497 0.8095,-0.1736 1.1975,-0.2993c0.3963,-0.1737 0.8106,-0.3701 1.1974,-0.5988c0.5191,-0.3239 0.7311,-0.7322 2.0956,-1.1975c0.3874,-0.1287 0.8083,-0.1796 1.1975,-0.2993c0.3892,-0.1796 0.7484,-0.5389 1.1975,-0.5988c0.7783,-0.1496 1.598,-0.1694 2.3949,0c0.7299,0.1324 1.4669,0.4736 2.0956,0.8981c1.2992,0.8772 2.4877,1.922 3.772,2.844c1.1765,0.9443 2.3345,1.9537 3.6224,2.7542c1.6142,1.0143 3.2326,1.9447 4.9994,2.4848c2.3938,0.8837 4.6061,1.3382 7.3944,1.7663c3.0638,0.4221 6.1359,0.7059 9.2505,0.928c0.7778,0.0557 0.7784,0.0299 1.1975,0c0.3892,-0.0599 0.7784,-0.2694 1.1975,-0.2994c0.7783,-0.0898 1.5866,-0.0898 2.3949,0c0.3892,0.03 0.8083,0.1497 1.1975,0.2994c0.3892,0.1497 0.7484,0.4491 1.1975,0.5987c0.7783,0.2395 1.5866,0.3892 2.3949,0.5988c0.3892,0.0898 0.7784,0.2395 1.1975,0.2994c0.7783,0.0598 1.5866,-0.0599 2.3949,0c1.1975,0.0598 2.365,0.2394 3.5925,0.2993c1.7662,0.03 3.5924,-0.0898 5.3886,0c0.4191,0 0.7783,0.2395 1.1975,0.2994c0.7783,0.0599 1.5866,0 2.3949,0c0.7784,0 1.5867,0.0599 2.395,0c0.3891,-0.0599 0.8083,-0.1796 1.1974,-0.2994c0.3892,-0.1796 0.8083,-0.3592 1.1975,-0.5987c0.3293,-0.2694 0.5089,-0.7484 0.8981,-0.8981c0.7185,-0.3593 1.6166,-0.2994 2.395,-0.5988c0.449,-0.2095 0.8083,-0.5688 1.1974,-0.8981c0.6287,-0.5688 1.1077,-1.2872 1.7962,-1.7962c0.3293,-0.2993 0.7485,-0.5089 1.1975,-0.5987c0.3593,-0.1198 0.7784,0.0299 1.1975,0c0.3892,-0.0599 0.8083,-0.1497 1.1975,-0.2994c0.3293,-0.1497 0.8981,-0.5987 0.8981,-0.5987c0.2993,0.2994 2.0656,0.5089 2.9937,0.5987c0.3891,0.03 0.7783,0 1.1974,0c0.7784,0 1.5867,-0.1197 2.395,0c0.8083,0.0898 1.5866,0.3892 2.3949,0.5988c0.7784,0.1796 1.5867,0.3891 2.395,0.5987c1.3771,0.2994 2.7542,0.6586 4.1911,0.8981c0.479,0.0599 0.9879,0 1.4969,0c0.7783,0 1.5866,0 2.3949,0c0.3892,0 0.7784,0 1.1975,0c0.3892,0 0.7784,0 1.1975,0c0.3891,0 0.8083,-0.1497 1.1974,0c0.8383,0.2694 1.5568,0.8382 2.395,1.1975c0.3592,0.1497 0.7783,0.1796 1.1975,0.2993c0.0898,0 0,0 0,0l0.2993,32.3318l-211.3541,-0.2993l-4.3409,-26.1948c0.0036,-2.1788 2.4878,-1.1418 3.7422,-1.3471z" fill="#1f0a22" stroke="#1f0a22" stroke-width="1.19748" stroke-linecap="round"/><path d="M176.17732,268.44757h-79.0333c-1.6447,-0.0125 -0.5688,-0.3293 -0.5987,-0.5987c-0.1497,-0.8083 0,-1.1675 0,-2.3949c0,-4.9995 0,-9.999 0,-14.9685c0,-1.2573 0,-1.9459 0,-2.9937c0.0599,-4.3109 0.2994,-12.8728 0,-13.1722c0,0 0.5688,-0.2993 0.8981,-0.2993c0.7784,-0.0898 1.5867,0 2.395,0c1.5866,0 3.1733,-0.0898 4.7898,0c0.479,0 0.988,0.2395 1.4969,0.2993c0.3892,0.03 0.7783,0.03 1.1975,0c0.3891,-0.0598 0.7783,-0.2694 1.1974,-0.2993c0.7784,-0.0898 1.5867,0.1197 2.395,0c0.4191,-0.0898 0.7783,-0.4491 1.1975,-0.5988c0.5688,-0.2395 1.1974,-0.3892 1.7962,-0.5987c0.479,-0.2096 0.958,-0.4491 1.4968,-0.5987c0.3892,-0.1497 0.7784,-0.2695 1.1975,-0.2994c0.7783,-0.0898 1.5866,0 2.3949,0c0.479,0 0.988,-0.0898 1.4969,0c0.8083,0.1197 1.5866,0.3892 2.3949,0.5987c0.479,0.0898 0.9879,0.1796 1.4969,0.2994c0.3891,0.0599 0.8083,0.1197 1.1974,0.2994c0.8083,0.3293 1.5568,0.8382 2.395,1.1974c0.3592,0.1497 0.7783,0.1797 1.1975,0.2994c0.3891,0.0898 0.6885,0.2694 1.1974,0.2994c1.9759,0.0598 3.9816,0 5.9874,0c0.479,0 0.7784,0.0299 1.1975,0c0.3892,-0.0599 0.7783,-0.2695 1.1975,-0.2994c0.3891,-0.0599 0.7783,0.0299 1.1974,0c0.3892,-0.0599 0.8083,-0.1796 1.1975,-0.2994c0.3892,-0.1796 0.8113,-0.3784 1.1975,-0.5987c0.8388,-0.4964 1.7692,-1.3136 2.814,-1.8561c0.7634,-0.361 1.4813,-0.5029 2.5746,-0.8382c0.4006,-0.082 0.7784,0.1796 1.1975,0.2993c0.3892,0.0899 0.8083,0.1497 1.1975,0.2994c0.3891,0.1497 0.7783,0.3892 1.1974,0.5988c0.7784,0.3891 1.6166,0.7184 2.395,1.1974c0.3293,0.2096 0.5688,0.5988 0.8981,0.8981c0.3592,0.2994 0.8083,0.5688 1.1975,0.8981c0.2993,0.2695 0.5987,0.5988 0.8981,0.8981c0.2694,0.2695 0.5388,0.6587 0.8981,0.8981c0.7484,0.4491 1.6166,0.7185 2.3949,1.1975c0.3293,0.2096 0.5988,0.5988 0.8981,0.8981c0.2695,0.2695 0.5389,0.6287 0.8981,0.8981c0.3593,0.2395 0.7526,0.482 1.1975,0.5988c0.779,0.1832 1.5938,0.2395 2.3949,0.2993c1.7603,0.13 4.0272,-1.0489 5.3887,0.0898c2.72,2.4489 5.5485,3.5086 5.5084,9.49l0.479,17.9621z" fill="#1f0a22" stroke="#1f0a22" stroke-width="1.19748" stroke-linecap="round"/><path d="M96.54532,257.67037h287.3937v37.7204h-287.3937z" fill="#1f0a22" stroke="none" stroke-width="0.59874" stroke-linecap="butt"/><path d="M114.13158,231.52036c0,0 0,-1.1376 -0.0299,-1.6765c-0.0599,-0.4191 -0.1497,-0.8083 -0.2096,-1.1975c-0.0299,-0.1796 -0.0599,-0.479 -0.0599,-0.479c-0.1197,-0.4191 -1.1472,-0.279 -1.4669,-0.5987c-0.297,-0.297 -0.1604,-0.8436 -0.0898,-1.2574c0.0731,-0.4269 0.3497,-0.7945 0.5089,-1.1974c0.1599,-0.4048 0.0731,-1.1245 0.4491,-1.2274c0.3874,-0.1066 0.7688,0.4831 1.0777,0.8083c0.2784,0.2927 0.4778,0.6568 0.6586,1.0178c0.1808,0.361 0.5581,0.7586 0.4191,1.1376c-0.1448,0.3952 -0.6837,0.5107 -1.0777,0.6586c-0.1868,0.0701 -0.5987,-0.0299 -0.5987,-0.0299" fill="none" stroke="#1f0a22" stroke-width="1.19748" stroke-linecap="round"/><path d="M113.77238,224.72466c0.3879,0 0.74,0.1509 0.9945,0.3946c0.255,0.2442 0.4125,0.5807 0.4125,0.9526c0,0.3718 -0.1575,0.7083 -0.4125,0.9525c-0.2545,0.2437 -0.6066,0.3946 -0.9945,0.3946c-0.388,0 -0.7401,-0.1509 -0.9945,-0.3946c-0.2551,-0.2442 -0.4126,-0.5807 -0.4126,-0.9525c0,-0.3719 0.1575,-0.7084 0.4126,-0.9526c0.2544,-0.2437 0.6065,-0.3946 0.9945,-0.3946z" fill="#1f0a22" stroke="none" stroke-width="0.59874" stroke-linecap="round"/><path d="M127.18408,231.01136c0,0 0.8645,0.0629 1.2872,0.1497c0.4078,0.0838 0.8239,0.1748 1.1975,0.3593c0.3647,0.1796 0.6514,0.4897 0.9879,0.7184c0.4712,0.3198 1.437,0.9281 1.437,0.9281" fill="none" stroke="#1f0a22" stroke-width="1.19748" stroke-linecap="round"/><path d="M130.23758,230.38276c-0.1137,0.1999 -0.4317,-0.2641 -0.5388,-0.479c-0.1839,-0.3677 -0.5024,-0.8401 -0.2994,-1.1975c0.1994,-0.3509 1.0107,-0.6425 1.1675,-0.3293c0.2623,0.5251 -0.009,1.4423 -0.2993,2.7841z" fill="none" stroke="#1f0a22" stroke-width="1.19748" stroke-linecap="round"/><path d="M130.29748,229.48466l-0.1796,-0.1797" fill="none" stroke="#1f0a22" stroke-width="1.19748" stroke-linecap="round"/><path d="M138.35048,228.91586c0.1742,-0.3629 0.5574,-0.8898 0.8981,-0.8083c0.3479,0.0832 0.3227,0.7574 0.479,1.1376c0.1629,0.3975 0.4844,0.7681 0.479,1.1974c-0.0054,0.4425 -0.0964,1.0682 -0.5089,1.2274c-0.6461,0.2497 -1.5448,0.0845 -1.9759,-0.3891c-0.0652,-0.7574 0.2755,-1.631 0.6287,-2.365z" fill="#1f0a22" stroke="#1f0a22" stroke-width="1.19748" stroke-linecap="round"/><path d="M143.97858,226.25146c0.1461,-0.3796 0.3186,-0.7628 0.3593,-1.1676c0.0401,-0.3987 -0.3108,-0.8454 -0.1198,-1.1974c0.1934,-0.3569 0.7317,-0.7191 1.0778,-0.5688c0.3424,0.149 0.1383,0.7999 0.2993,1.1675c0.1623,0.37 0.5934,0.6197 0.6586,1.0179c0.0653,0.3957 -0.2586,0.7681 -0.2993,1.1675c-0.0401,0.397 0.3389,0.9119 0.0598,1.1975c-0.2856,0.2927 -0.8196,0.0257 -1.2274,0c-0.4879,-0.0312 -1.2699,0.2532 -1.4669,-0.1198c-0.2071,-0.4353 0.4688,-1.0041 0.6586,-1.4968z" fill="#1f0a22" stroke="#1f0a22" stroke-width="1.19748" stroke-linecap="round"/><path d="M144.60728,231.64006l-0.0898,-1.6765z" fill="none" stroke="#1f0a22" stroke-width="1.19748" stroke-linecap="round"/><path d="M147.36148,227.62856c-0.0635,-0.0246 0.0659,-0.2431 0.1497,-0.3293c0.291,-0.2988 0.646,-0.5311 0.958,-0.8083c0.3059,-0.2713 0.8837,-0.4293 0.8981,-0.8383c0.0143,-0.4017 -0.8514,-0.4664 -0.8383,-0.8681c0.0144,-0.4443 0.8981,-0.9879 0.8981,-0.958c0,0 0.0899,0.2095 0.1497,0.3293c0.0898,0.3592 0.1796,0.7484 0.2695,1.1675c0.0598,0.3892 0.0598,0.7784 0.1197,1.1975c0.0299,0.4191 0.4491,0.8981 0.2096,1.2574c-0.2395,0.2993 -0.8059,0.0724 -1.1975,0.0898c-0.4724,-0.0072 -1.228,-0.0066 -1.3472,0.0299z" fill="none" stroke="#1f0a22" stroke-width="1.19748" stroke-linecap="round"/><path d="M149.36728,229.18526l0.1796,0.1796" fill="none" stroke="#1f0a22" stroke-width="1.19748" stroke-linecap="round"/><path d="M155.29478,224.39536c0,0 -0.3054,0.2036 -0.2994,0.3592c0.0162,0.4066 0.1694,0.8077 0.3592,1.1676c0.2054,0.3897 0.9095,0.7202 0.8083,1.0478c-0.0934,0.3011 -0.7963,0.155 -1.1974,0.2095c-0.4072,0.0551 -1.2041,-0.0036 -1.2275,0.1198c-0.0233,0.1233 0.7586,0.3017 1.1077,0.5089c0.5724,0.3395 1.8423,0.8412 1.7064,1.1675c-0.188,0.3521 -1.5992,0.0964 -2.365,0.2096c-0.5431,0.0802 -1.6166,0.3293 -1.6166,0.3293" fill="none" stroke="#1f0a22" stroke-width="1.19748" stroke-linecap="round"/><path d="M157.48018,232.80756c0,0 0.9328,-0.2035 1.2274,-0.5388c0.2712,-0.309 0.0425,-1.1759 0.2993,-1.1975c0.282,-0.0233 0.6185,0.6862 0.7784,1.1077c0.1491,0.3933 0.1557,0.8382 0.1197,1.2573c-0.0347,0.4024 -0.164,0.7993 -0.3293,1.1676c-0.1473,0.3281 -0.5987,0.8981 -0.5987,0.8981" fill="none" stroke="#1f0a22" stroke-width="1.19748" stroke-linecap="round"/><path d="M158.78238,232.43816c0.2605,0 0.4958,0.121 0.6664,0.3161c0.1712,0.1946 0.2766,0.4641 0.2766,0.7616c0,0.2976 -0.1054,0.567 -0.2766,0.7616c-0.1706,0.1952 -0.4059,0.3162 -0.6664,0.3162c-0.2604,0 -0.4957,-0.121 -0.6664,-0.3162c-0.1712,-0.1946 -0.2766,-0.464 -0.2766,-0.7616c0,-0.2975 0.1054,-0.567 0.2766,-0.7616c0.1707,-0.1951 0.406,-0.3161 0.6664,-0.3161z" fill="#1f0a22" stroke="none" stroke-width="0.59874" stroke-linecap="butt"/><path d="M170.35298,238.04656c0,0 0.303,-0.9975 0.449,-1.4969c0.1132,-0.3879 0.2599,-0.7693 0.3294,-1.1675c0.2203,-1.2597 0.2879,-3.8068 0.5388,-3.802c0.2509,0.0048 0.8329,2.5291 1.0777,3.8319c0.1958,1.0413 0.2395,3.1734 0.2395,3.1734" fill="none" stroke="#1f0a22" stroke-width="1.19748" stroke-linecap="round"/><path d="M171.77498,233.91526c0.2521,0 0.4802,0.2581 0.6454,0.6754c0.1653,0.4173 0.2677,0.9939 0.2677,1.6297c0,0.6359 -0.1024,1.2125 -0.2677,1.6298c-0.1652,0.4173 -0.3933,0.6754 -0.6454,0.6754c-0.2521,0 -0.4802,-0.2581 -0.6454,-0.6754c-0.1653,-0.4173 -0.2677,-0.9939 -0.2677,-1.6298c0,-0.6358 0.1024,-1.2124 0.2677,-1.6297c0.1652,-0.4173 0.3933,-0.6754 0.6454,-0.6754z" fill="#1f0a22" stroke="none" stroke-width="0.59874" stroke-linecap="butt"/><path d="M191.09918,236.57966c0,0 0.8263,-1.6148 1.0478,-2.4848c0.2024,-0.7951 0.1096,-1.6405 0.2096,-2.4548c0.0497,-0.4035 0.17,-1.5831 0.2395,-1.1975c0.2772,1.543 0.2305,3.3625 0.449,5.0294c0.0713,0.5419 0.4191,1.5867 0.4191,1.5867" fill="none" stroke="#1f0a22" stroke-width="1.19748" stroke-linecap="round"/><path d="M192.41648,235.05286c0.1814,0 0.346,0.0736 0.4658,0.1928c0.1191,0.1197 0.1928,0.2844 0.1928,0.4658c0,0.1814 -0.0737,0.3461 -0.1928,0.4658c-0.1198,0.1192 -0.2844,0.1928 -0.4658,0.1928c-0.1815,0 -0.3461,-0.0736 -0.4659,-0.1928c-0.1191,-0.1197 -0.1928,-0.2844 -0.1928,-0.4658c0,-0.1814 0.0737,-0.3461 0.1928,-0.4658c0.1198,-0.1192 0.2844,-0.1928 0.4659,-0.1928z" fill="#1f0a22" stroke="none" stroke-width="0.59874" stroke-linecap="butt"/><path d="M205.25938,238.34596c0,0 0.5909,-0.6766 0.7783,-1.0778c0.1689,-0.3616 0.3754,-0.7825 0.2694,-1.1675c-0.1083,-0.3946 -0.8526,-0.4892 -0.8382,-0.8981c0.0144,-0.4024 0.6263,-0.5113 0.8981,-0.8083c0.2695,-0.294 0.4718,-1.0101 0.7185,-0.958c0.2473,0.0527 0.1257,0.7951 0.2694,1.1676c0.1479,0.3831 0.4892,0.6819 0.5988,1.0777c0.106,0.3844 0.0748,0.8011 0.0299,1.1975c-0.0455,0.3987 -0.3532,0.7699 -0.2994,1.1675c0.0539,0.3981 0.4042,0.6963 0.5988,1.0478c0.0646,0.1167 0.1796,0.3592 0.1796,0.3592" fill="none" stroke="#1f0a22" stroke-width="1.19748" stroke-linecap="round"/><path d="M206.86098,234.78346c0.2886,0.0437 0.4646,0.2449 0.6245,0.6406c0.1598,0.3952 0.2395,1.0203 0.2586,1.5448c0.027,0.7184 0.1868,1.5549 -0.0898,2.2752c-0.1036,0.2197 -0.5311,-0.0761 -0.7933,-0.0898c-0.5724,-0.0318 -1.5124,0.2975 -1.7214,-0.1797c-0.2323,-0.6149 0.6502,-1.3094 0.8382,-2.0057c0.1521,-0.5646 -0.0646,-1.2346 0.1497,-1.7962c0.1126,-0.2479 0.4658,-0.4299 0.7335,-0.3892z" fill="#1f0a22" stroke="none" stroke-width="0.59874" stroke-linecap="round"/><path d="M219.53918,236.60956c-0.3251,0.3934 -1.2932,-0.0401 -1.4968,-0.5089c-0.3203,-0.7897 0.1042,-1.7142 0.2395,-2.5147c0.1419,-0.8394 0.3401,-1.6741 0.5987,-2.4848c0.1222,-0.382 0.4287,-1.4076 0.5389,-1.0777c0.3538,1.0622 0.3754,2.5698 0.3892,3.8619c0.0095,0.9232 0.2844,2.0536 -0.2695,2.7242z" fill="none" stroke="#1f0a22" stroke-width="1.19748" stroke-linecap="round"/><path d="M218.95098,232.35856c0.1653,0 0.3149,0.2317 0.4233,0.6053c0.1084,0.3742 0.1754,0.8903 0.1754,1.4603c0,0.57 -0.067,1.0861 -0.1754,1.4604c-0.1084,0.3736 -0.258,0.6053 -0.4233,0.6053c-0.1652,0 -0.3149,-0.2317 -0.4233,-0.6053c-0.1084,-0.3743 -0.1754,-0.8904 -0.1754,-1.4604c0,-0.57 0.067,-1.0861 0.1754,-1.4603c0.1084,-0.3736 0.2581,-0.6053 0.4233,-0.6053z" fill="#1f0a22" stroke="none" stroke-width="0.59874" stroke-linecap="round"/><path d="M222.44308,231.64006c-0.2592,-0.4862 0.3718,-1.1975 0.6287,-1.7663c0.3526,-0.7801 0.5945,-1.8836 1.1975,-2.2752c0.2951,-0.1922 0.4304,0.7233 0.5987,1.1077c0.182,0.4161 0.376,0.8394 0.449,1.2873c0.0689,0.4233 0.2312,0.9472 -0.0299,1.2873c-0.267,0.3478 -0.8227,0.3341 -1.2573,0.3891c-0.5245,0.0665 -1.367,0.382 -1.4071,0.2096z" fill="#1f0a22" stroke="#1f0a22" stroke-width="1.19748" stroke-linecap="round"/><path d="M222.77238,235.80126c0,0 0.2742,-0.17 0.4191,-0.2395c0.3742,-0.1796 0.7958,-0.2742 1.1376,-0.5089c0.3371,-0.2311 0.5299,-0.6382 0.8682,-0.8682c0.6676,-0.4538 1.3771,-0.8639 2.1255,-1.1675c0.3736,-0.1515 0.7945,-0.1748 1.1975,-0.1796c0.4317,-0.0054 1.2873,0.1497 1.2873,0.1497" fill="none" stroke="#1f0a22" stroke-width="1.19748" stroke-linecap="round"/><path d="M224.62848,233.91526l0.1796,0.1796" fill="none" stroke="#1f0a22" stroke-width="1.19748" stroke-linecap="round"/><path d="M224.08958,231.90946l0.1797,0.1797" fill="none" stroke="#1f0a22" stroke-width="1.19748" stroke-linecap="round"/><path d="M241.18358,231.78976c-0.2066,-0.7089 0.352,-1.7112 0.5688,-2.5746c0.0988,-0.3945 0.076,-1.1154 0.3592,-1.1675c0.2856,-0.0527 0.5706,0.6035 0.7784,0.958c0.2059,0.3514 0.3185,0.752 0.449,1.1376c0.1294,0.3826 0.5616,0.8771 0.3293,1.1675c-0.2466,0.3083 -0.8669,-0.0557 -1.2872,0.0299c-0.4269,0.0875 -1.0898,0.8029 -1.1975,0.4491z" fill="none" stroke="#1f0a22" stroke-width="1.19748" stroke-linecap="round"/><path d="M242.47088,232.08916v7.7536" fill="none" stroke="#1f0a22" stroke-width="1.19748" stroke-linecap="round"/><path d="M241.96188,231.01136c-0.1604,-0.4454 0.2132,-1.4663 0.4491,-1.4369c0.2473,0.07 0.7083,1.2286 0.5688,1.6465c-0.0874,0.2604 -0.9011,0.1137 -1.0179,-0.2096z" fill="none" stroke="#1f0a22" stroke-width="1.19748" stroke-linecap="round"/><path d="M247.53018,227.92786c0.3173,-0.3706 1.7411,-0.7861 2.0357,-1.6166c0.1437,-0.4053 -0.9185,-0.4987 -0.8981,-0.928c0.0215,-0.4646 0.5664,-1.0406 0.9879,-0.9879c0.4167,0.0521 0.5592,0.7562 0.6886,1.1975c0.1173,0.4017 0.0095,0.8388 0.0299,1.2573c0.0197,0.3994 0.3724,0.9149 0.0898,1.1975c-0.3323,0.3323 -0.937,0.0994 -1.407,0.1197c-0.4581,0.0198 -1.4639,0.318 -1.3771,0z" fill="#1f0a22" stroke="#1f0a22" stroke-width="1.19748" stroke-linecap="round"/><path d="M249.14678,229.78396v4.0714" fill="none" stroke="#1f0a22" stroke-width="1.19748" stroke-linecap="round"/><path d="M249.11678,229.60436l-0.0898,-1.1975z" fill="none" stroke="#1f0a22" stroke-width="1.19748" stroke-linecap="round"/><path d="M260.31318,223.97626c0,0.0712 -0.0802,0 -0.1796,0c-0.3988,0 -0.7987,0.0078 -1.1975,0c-0.6185,-0.012 -1.8561,-0.0599 -1.9159,0c0,0 0.8083,-1.5867 1.1376,-2.395c0.1497,-0.4191 0.3293,-0.8681 0.2395,-1.2573c-0.1198,-0.4191 -0.7784,-0.6287 -0.7485,-1.0478c0,-0.4491 0.509,-0.7185 0.8682,-0.958c0.2994,-0.2694 0.9879,-0.8981 1.1077,-0.5688c0.1796,0.5688 -0.5688,1.5567 -0.509,2.365c0,0.3892 0.5688,0.5988 0.7485,0.9879c0.1497,0.3593 0.2089,0.7544 0.2694,1.1676c0.0671,0.6352 0.1197,1.5854 0.0599,2.0357z" fill="#1f0a22" stroke="#1f0a22" stroke-width="1.19748" stroke-linecap="round"/><path d="M263.72598,220.50356c0,0 0.7077,0.9957 0.6586,1.5567c-0.0353,0.4006 -0.8011,0.4419 -0.8681,0.8382c-0.0683,0.4042 0.7592,0.867 0.5388,1.1077c-0.2736,0.2982 -1.5268,-0.0299 -1.5268,-0.0299" fill="none" stroke="#1f0a22" stroke-width="1.19748" stroke-linecap="round"/><path d="M266.80948,221.10226c0,0 -0.2413,0.8059 -0.1497,1.1975c0.0988,0.4227 0.6952,0.6736 0.6886,1.1077c-0.006,0.3987 -0.7544,0.561 -0.7185,0.958c0.0407,0.4502 1.1903,0.8382 0.8981,1.0178c-0.561,0.3443 -2.6045,0.0299 -2.6045,0.0299" fill="none" stroke="#1f0a22" stroke-width="1.19748" stroke-linecap="round"/><path d="M273.51538,220.17426c0,0 0.179,0.2748 0.2395,0.4191c0.249,0.3952 0.6963,0.7532 0.6885,1.1975c-0.0072,0.2503 -0.4137,0.2994 -0.6287,0.4191c-0.5328,0.2976 -1.686,0.5095 -1.6465,0.8083c0.079,0.3077 1.3035,0.2191 1.886,0.4191c0.3838,0.1317 1.1077,0.3598 1.0778,0.5688c-0.03,0.2102 -0.8059,0.1521 -1.1975,0.2694c-0.7245,0.2168 -2.1908,0.6167 -2.1555,0.7784c0.0216,0.1401 1.607,-0.0976 2.3351,0.1796c0.3838,0.1461 1.119,0.7287 0.7784,0.958c-1.0915,0.7346 -3.802,1.0777 -3.802,1.0777" fill="none" stroke="#1f0a22" stroke-width="1.19748" stroke-linecap="round"/><path d="M279.65238,224.30556c1.1125,-0.1707 0.5371,-3.8409 0.509,-4.3409c-0.0192,-0.3879 0.4574,1.7088 0.6286,2.5746c0.1485,0.7508 0.4149,2.6261 0.3293,2.2752z" fill="none" stroke="#1f0a22" stroke-width="1.19748" stroke-linecap="round"/><path d="M284.71178,213.01936c0,0 0.3311,1.3711 0.1197,2.0058c-0.1293,0.3879 -1.2322,0.4107 -1.0179,0.6885c0.4443,0.5754 1.9555,0.5383 2.3351,1.0179c0.1892,0.2389 -0.8526,0.1754 -1.1975,0.4191c-0.3586,0.2532 -0.9232,0.6478 -0.8382,1.0178c0.0796,0.3485 0.7903,0.2503 1.1676,0.4191c0.4724,0.2114 1.5746,0.4802 1.377,0.7185c-0.3047,0.367 -1.607,0.3006 -2.3949,0.5089c-0.57,0.1509 -1.6765,0.5688 -1.6765,0.5688" fill="none" stroke="#1f0a22" stroke-width="1.19748" stroke-linecap="round"/><path d="M285.04108,223.07816l-0.03,-1.4071z" fill="none" stroke="#1f0a22" stroke-width="1.19748" stroke-linecap="round"/><path d="M289.83098,224.87436c-0.3204,-0.1395 0.3131,-0.846 0.3891,-1.2873c0.0749,-0.4329 -0.0341,-0.8885 0.0599,-1.3172c0.118,-0.5389 0.1742,-1.3969 0.5688,-1.5567c0.309,-0.1246 0.6107,0.6208 0.8382,0.9879c0.2168,0.3496 0.4509,0.7274 0.479,1.1376c0.0342,0.4975 0.0767,1.1394 -0.2993,1.4669c-0.5305,0.4628 -1.5328,0.7885 -2.8141,0.8981z" fill="#1f0a22" stroke="#1f0a22" stroke-width="1.19748" stroke-linecap="round"/><path d="M295.99788,220.47366c0.1928,-0.0653 0.5682,0.4766 0.5688,0.8382c0,0.4149 -0.5855,0.6933 -0.5688,1.1077c0.0174,0.4203 0.3838,0.7592 0.6587,1.0777c0.3005,0.3478 0.9262,0.455 1.0477,0.8981c0.1198,0.4377 -0.4963,0.8358 -0.449,1.2873c0.0892,0.8496 1.2561,1.8477 0.8382,2.4249c-0.4053,0.5604 -1.6603,-0.0623 -2.4847,-0.1497c-0.4042,-0.0425 -1.134,0.0557 -1.1975,-0.2395c-0.0713,-0.3335 0.8903,-0.5604 0.928,-1.0179c0.0378,-0.4604 -0.7137,-0.7071 -0.7484,-1.1675c-0.0335,-0.4401 0.6047,-0.7574 0.5688,-1.1975c-0.0335,-0.4113 -0.8352,-0.5844 -0.7484,-0.9879c0.1539,-0.7185 0.9987,-1.0628 1.3471,-1.6765c0.1934,-0.3682 0.0222,-1.1214 0.2395,-1.1974z" fill="#1f0a22" stroke="#1f0a22" stroke-width="1.19748" stroke-linecap="round"/><path d="M299.23108,231.37066c0.5946,-0.3718 1.1975,-5.1492 1.1975,-5.1492c0,0 -0.0305,6.1042 -0.0299,5.9874z" fill="none" stroke="#1f0a22" stroke-width="1.19748" stroke-linecap="round"/><path d="M305.99688,231.52036c-0.3347,0.0161 0.182,-0.3898 0.2993,-0.5688c0.2425,-0.3707 0.6299,-0.6604 0.7784,-1.0778c0.1335,-0.376 0.1281,-0.8107 0.0299,-1.1974c-0.0988,-0.3898 -0.8101,-0.7066 -0.5987,-1.0478c0.3904,-0.6299 1.4789,-0.4772 1.886,-1.0478c0.2185,-0.3036 -0.5077,-0.6191 -0.4491,-0.958c0.0683,-0.3964 0.4066,-0.8772 0.8083,-0.8981c0.4018,-0.021 0.9987,0.4191 0.8981,0.8083c-0.1652,0.6364 -1.513,0.8125 -1.4369,1.407c0.0437,0.5281 1.5208,0.3832 1.6764,0.8383c0.1072,0.3131 -1.0322,0.2083 -1.1675,0.6286c-0.1245,0.3874 0.4413,0.6868 0.6287,1.0478c0.2221,0.4275 1.0088,1.0646 0.5987,1.3172c-1.14,0.7024 -2.6141,0.6826 -3.9217,0.5389z" fill="#1f0a22" stroke="#1f0a22" stroke-width="1.19748" stroke-linecap="round"/><path d="M303.63178,232.32866c0,0 0.9496,-0.0426 1.4071,0.0598c0.4047,0.0904 0.7747,0.3078 1.1376,0.509c0.7556,0.4179 1.4543,0.9394 2.2153,1.3471c0.488,0.2617 1.5268,0.6586 1.5268,0.6586" fill="none" stroke="#1f0a22" stroke-width="1.19748" stroke-linecap="round"/><path d="M312.10398,233.37636c-0.1964,-0.2598 0.3514,-0.5574 0.449,-0.8681c0.1246,-0.3958 0.088,-0.8311 0.2096,-1.2274c0.1395,-0.4569 0.3083,-1.2682 0.5688,-1.3173c0.2185,-0.0407 0.2024,0.7838 0.3892,1.1376c0.1963,0.3719 0.5873,0.6293 0.7484,1.0179c0.1862,0.4496 0.4933,1.0047 0.2694,1.437c-0.1844,0.3562 -0.767,0.3269 -1.1675,0.2993c-0.5125,-0.0347 -1.1574,-0.0688 -1.6166,0.03z" fill="none" stroke="#1f0a22" stroke-width="1.19748" stroke-linecap="round"/><path d="M317.91168,227.89796c-0.0054,-0.1335 0.5018,0.2137 0.5389,0.4491c0.1772,0.6562 -0.1497,1.38 0.0599,2.0357c0.1269,0.3963 1.022,0.5712 0.928,0.8382c-0.1006,0.2868 -1.2334,-0.0126 -1.3172,0.2694c-0.0809,0.2718 1.0112,0.476 0.9879,0.8383c-0.0216,0.3412 -0.6778,0.5005 -1.0777,0.5688c-0.3976,0.0682 -1.1017,0.2089 -1.1975,-0.1797c-0.1712,-0.7035 0.3347,-1.4866 0.6586,-2.1854c0.2515,-0.5334 0.9502,-0.8747 1.0478,-1.4669c0.0736,-0.443 -0.6203,-0.9621 -0.6287,-1.1675z" fill="#1f0a22" stroke="#1f0a22" stroke-width="1.19748" stroke-linecap="round"/><path d="M326.65328,227.50876c0,0 0.258,0.8484 0.479,1.2274c0.2029,0.3485 0.8681,0.5916 0.7783,0.9281c-0.0898,0.3371 -0.7694,0.2544 -1.1376,0.4191c-0.391,0.1748 -1.1298,0.3083 -1.1376,0.5987c-0.0072,0.2784 0.7478,0.3425 1.1077,0.5389c0.4083,0.2227 1.2472,0.5113 1.1975,0.7185c-0.0497,0.2071 -0.9454,0.0563 -1.4071,0.1497c-0.4299,0.0868 -1.2459,0.2718 -1.2573,0.3891c-0.0114,0.1174 0.7999,0.1551 1.1975,0.2395c0.4496,0.0952 0.9028,0.182 1.3471,0.2994c0.4634,0.1221 1.7214,0.3042 1.3771,0.4191c-0.958,0.3191 -3.9816,0.4491 -3.9816,0.4491" fill="none" stroke="#1f0a22" stroke-width="1.19748" stroke-linecap="round"/><path d="M327.31188,236.22036v-2.7841" fill="none" stroke="#1f0a22" stroke-width="1.19748" stroke-linecap="round"/><path d="M341.14268,234.81336c0,0 -1.5423,0.0593 -2.3051,-0.0299c-0.4449,-0.0521 -1.2568,-0.1587 -1.2873,-0.3892c-0.0294,-0.2185 0.77,-0.361 1.1675,-0.5089c0.4611,-0.1713 0.9359,-0.3084 1.4071,-0.4491c0.3963,-0.1185 1.3968,-0.1108 1.1974,-0.3293c-0.4293,-0.47 -2.4548,-0.7095 -2.4548,-1.0478c0,-0.3383 2.071,-0.2143 2.4548,-0.479c0.2108,-0.1455 -0.8035,-0.2455 -1.1974,-0.3891c-0.7826,-0.285 -1.9873,-0.5024 -2.3351,-0.8982c-0.1844,-0.2095 0.8999,-0.0856 1.2573,-0.3293c0.3431,-0.2335 0.6257,-0.6137 0.7185,-1.0178c0.0904,-0.3946 -0.2095,-1.1975 -0.2095,-1.1975" fill="none" stroke="#1f0a22" stroke-width="1.19748" stroke-linecap="round"/><path d="M339.34648,235.08276v2.0357z" fill="none" stroke="#1f0a22" stroke-width="1.19748" stroke-linecap="round"/><path d="M346.38168,226.91006c0,0 -0.2826,0.746 -0.4491,1.1076c-0.173,0.3767 -0.6382,0.6988 -0.5688,1.1077c0.0683,0.4036 0.5856,0.5742 0.8981,0.8382c0.3263,0.2755 1.07,0.4874 1.0179,0.7784c-0.0527,0.2928 -0.8682,0.1551 -1.2274,0.3892c-0.3551,0.2317 -0.9347,0.6167 -0.8383,0.958c0.0982,0.3472 0.8251,0.261 1.2274,0.4191c0.3862,0.1515 1.4843,0.3957 1.1376,0.5089c-1.1651,0.3808 -4.1612,0.479 -4.1612,0.479" fill="none" stroke="#1f0a22" stroke-width="1.19748" stroke-linecap="round"/><path d="M350.39318,229.66426c0.3886,0.6167 1.3675,1.019 1.407,1.6764c0.0234,0.3928 -0.8574,0.2096 -1.2573,0.3892c-0.4036,0.1814 -0.8383,0.8227 -1.1376,0.6886c-0.2695,-0.1204 -0.0689,-0.8047 0,-1.1975c0.073,-0.4161 0.3598,-0.779 0.4191,-1.1975c0.0922,-0.6508 -0.0617,-1.8249 0.0299,-1.886c0.0916,-0.0611 0.2701,1.0604 0.5389,1.5268z" fill="#1f0a22" stroke="#1f0a22" stroke-width="1.19748" stroke-linecap="round"/><path d="M350.39318,232.41846l0.0299,2.814" fill="none" stroke="#1f0a22" stroke-width="1.19748" stroke-linecap="round"/><path d="M357.90728,224.42526c0,0 -0.0395,0.5533 -0.2095,0.7484c-0.2653,0.3042 -1.2143,0.3521 -1.0179,0.6587c0.4174,0.6514 1.8896,0.7592 2.2453,1.2573c0.1682,0.2353 -0.8167,0.0725 -1.1975,0.2096c-0.3784,0.1359 -1.0699,0.3203 -1.0478,0.5987c0.0228,0.2904 0.7772,0.3245 1.1376,0.5389c0.3808,0.2263 1.1089,0.5059 1.0778,0.7783c-0.0288,0.2515 -0.7946,0.2 -1.1975,0.2695c-0.5251,0.0904 -1.5867,0.2095 -1.5867,0.2095" fill="none" stroke="#1f0a22" stroke-width="1.19748" stroke-linecap="round"/><path d="M364.49338,226.40116c0.2018,0.4143 0.5383,0.8274 0.509,1.2872c-0.0264,0.4114 -0.4988,0.6682 -0.6586,1.0478c-0.1635,0.388 0.0287,0.964 -0.2994,1.2274c-0.3185,0.2563 -0.8191,-0.0101 -1.2274,0c-0.3994,0.0096 -1.1041,0.2898 -1.1975,0.0599c-0.1012,-0.2491 0.7891,-0.5855 0.8083,-1.0178c0.018,-0.4066 -0.6185,-0.5934 -0.7185,-0.988c-0.1131,-0.446 -0.0066,-0.9346 0.1198,-1.377c0.1173,-0.4114 0.464,-0.7317 0.5987,-1.1376c0.2281,-0.6862 0.1162,-2.2908 0.5389,-2.1256c0.6095,0.2838 1.031,2.004 1.5267,3.0237z" fill="#1f0a22" stroke="#1f0a22" stroke-width="1.19748" stroke-linecap="round"/><path d="M370.66038,222.71886c0.324,-0.1281 0.3653,0.6443 0.5988,0.9281c0.2778,0.3377 0.8628,0.4957 0.928,0.928c0.0611,0.4024 -0.5987,0.6419 -0.6287,1.0478c-0.0359,0.4904 0.4719,0.9155 0.4491,1.407c-0.0389,0.8431 -0.0545,1.8364 -0.6287,2.4549c-0.3095,0.3328 -0.8795,-0.2365 -1.3172,-0.3593c-0.4496,-0.1263 -1.4202,0.0138 -1.3472,-0.3892c0.1366,-0.7496 1.5645,-1.1094 1.7663,-1.9159c0.0976,-0.391 -0.84,-0.2162 -1.1675,-0.479c-0.3563,-0.2862 -0.8221,-0.6514 -0.8083,-1.1077c0.0126,-0.4017 0.6065,-0.5329 0.8682,-0.8382c0.458,-0.5347 0.6681,-1.4304 0.9879,-1.1675z" fill="#1f0a22" stroke="#1f0a22" stroke-width="1.19748" stroke-linecap="round"/></g></g></svg>