<svg version="1.1" xmlns="http://www.w3.org/2000/svg" xmlns:xlink="http://www.w3.org/1999/xlink" width="288.29286" height="113.54467" viewBox="0,0,288.29286,113.54467"><g transform="translate(-96.40504,-180.02974)"><g data-paper-data="{&quot;isPaintingLayer&quot;:true}" fill-rule="nonzero" stroke="#ff7050" stroke-width="1.19747" stroke-linecap="round" stroke-linejoin="miter" stroke-miterlimit="10" stroke-dasharray="" stroke-dashoffset="0" style="mix-blend-mode: normal"><path d="M97.90191,292.14317l-0.8981,-90.1099c0.088,-7.5111 1.0478,-3.0835 1.9459,-4.4905c0.2095,-0.3892 0.7783,-0.3293 1.1975,-0.4491c0.3891,-0.1497 0.7783,-0.2993 1.1974,-0.2993c0.3892,-0.03 0.7784,0.0898 1.1975,0.1496c0.3892,0.03 0.7784,0.0599 1.1975,0.1497c0.3892,0.0599 0.7783,0.2096 1.1974,0.2994c0.3892,0.0599 0.7784,0.0599 1.1975,0.1497c0.3892,0.0599 0.7784,0.2095 1.1975,0.2994c0.3892,0.0598 0.7784,0.1496 1.1975,0.1496c0.3891,-0.0299 0.8083,-0.1496 1.1974,-0.2993c0.3593,-0.1497 0.6886,-0.3892 1.0478,-0.5988c0.3593,-0.2395 0.7485,-0.449 1.0478,-0.7484c0.5688,-0.6586 0.8981,-1.4669 1.4969,-2.0956c0.2694,-0.3293 0.7185,-0.479 1.0478,-0.7484c0.2993,-0.2994 0.5688,-0.6287 0.8981,-0.8981c0.2993,-0.2994 0.6885,-0.5089 1.0478,-0.7484c0.3293,-0.2694 0.6586,-0.5389 1.0477,-0.7484c0.6587,-0.4491 1.4669,-0.6886 2.0956,-1.1975c1.3172,-1.1077 2.365,-2.5446 3.7421,-3.5924c0.3293,-0.2695 0.7784,-0.3593 1.1975,-0.2994c0.3892,0.0299 0.7484,0.2994 1.0478,0.5987c0.4191,0.4192 1.0478,1.4969 1.0478,1.4969c0,0 0.7185,0.6586 1.0478,1.0478c0.5388,0.6586 0.9879,1.3771 1.4968,2.0955c0.2395,0.3294 0.479,0.6886 0.7484,1.0478c0.2395,0.3293 0.509,0.6886 0.7485,1.0478c0.449,0.6886 0.7783,1.4669 1.3471,2.0956c0.2395,0.2994 0.6586,0.4491 1.0478,0.5987c0.7484,0.2695 1.5567,0.4491 2.3949,0.5988c0.3892,0.0599 0.7784,0 1.1975,0c0.3892,0 0.7784,0 1.1975,0c0.3892,-0.03 0.7784,-0.1497 1.1975,-0.1497c0.3891,-0.0299 0.7783,0 1.1974,0c0.3892,0 0.7784,-0.0599 1.1975,0c0.3892,0.0299 0.7784,0.1497 1.1975,0.2994c0.3892,0.1197 0.7783,0.3293 1.1975,0.449c0.3891,0.0898 0.7783,0.03 1.1974,0.1497c0.3892,0.0898 0.7784,0.3293 1.1975,0.4491c0.3892,0.0898 0.7784,0.2095 1.1975,0.1496c0.8083,-0.1496 1.5567,-0.5688 2.3949,-0.7484c0.3892,-0.1197 0.7784,-0.1497 1.1975,-0.1497c0.3892,0 0.7784,0.1198 1.1975,0.1497c0.3892,0 0.7783,0 1.1975,0c0.3891,0 0.7783,-0.0599 1.1974,0c0.3892,0.03 0.7784,0.2096 1.1975,0.2994c0.3892,0.0599 0.7784,0.0299 1.1975,0.1497c0.3892,0.0898 0.8382,0.2095 1.1975,0.449c0.3293,0.2096 0.5688,0.5988 0.8981,0.8981c0.2993,0.2695 0.7184,0.4491 1.0477,0.7484c0.2994,0.2695 0.5988,0.5688 0.8982,0.8982c0.2394,0.2694 0.7484,0.8981 0.7484,0.8981c0.2993,0.1496 1.2873,0.1197 1.7962,0c0.3592,-0.1198 0.6885,-0.4192 1.0478,-0.5988c0.3293,-0.2095 0.6885,-0.3892 1.0478,-0.5987c0.3592,-0.2395 0.6586,-0.5389 1.0478,-0.7484c0.6586,-0.4491 1.407,-0.7784 2.0955,-1.1975c0.7185,-0.479 1.4071,-0.9879 2.0956,-1.4969c0.3593,-0.2993 0.6287,-0.6885 1.0478,-0.8981c0.3592,-0.2395 0.7484,-0.3891 1.1975,-0.449c0.7783,-0.1497 1.5866,-0.1497 2.3949,-0.1497c0.7784,0 1.5867,0.2395 2.395,0.1497c0.3892,-0.0599 0.7185,-0.3593 1.0478,-0.5987c0.3293,-0.2695 0.479,-0.8083 0.8981,-0.8982c0.3891,-0.1197 0.8382,0.0599 1.1974,0.2994c0.3293,0.2395 0.4192,0.7185 0.7485,1.0478c0.2993,0.2994 0.6586,0.5389 1.0478,0.7484c0.7484,0.3892 1.5567,0.8083 2.3949,1.0478c0.7484,0.2096 1.5867,0.2096 2.3949,0.2994c0.3892,0.0299 0.8083,0.1197 1.1975,0c0.7484,-0.2994 1.3771,-0.8382 2.0956,-1.1975c0.1497,-0.1197 0.4491,-0.1497 0.4491,-0.1497c0,0.1497 0.8382,-0.1796 1.1974,-0.449c0.2994,-0.2994 0.479,-0.7185 0.7484,-1.0478c0.2395,-0.3593 0.509,-0.6886 0.7485,-1.0478c0.2095,-0.3592 0.2694,-0.8083 0.5987,-1.0478c0.5987,-0.5688 1.3172,-1.0178 2.0956,-1.3472c0.3592,-0.1796 0.8083,-0.2694 1.1975,-0.1496c0.8382,0.2395 1.6165,0.7484 2.3949,1.1974c0.7185,0.3892 1.407,0.8383 2.0956,1.3472c0.3592,0.2395 0.7185,0.5688 1.0478,0.8981c0.2993,0.2994 0.5089,0.7784 0.8981,1.0478c0.3293,0.2395 0.7484,0.3892 1.1975,0.449c0.3891,0.03 0.8082,0.03 1.1974,-0.1496c0.3593,-0.2096 0.5688,-0.6287 0.8981,-0.8981c0.2994,-0.2994 0.7185,-0.4491 1.0478,-0.7485c0.2994,-0.3293 0.479,-0.7185 0.7484,-1.0478c0.2695,-0.3891 0.5688,-0.7184 0.8982,-1.0477c0.2694,-0.3294 0.5987,-0.6287 0.8981,-0.8982c0.2694,-0.2993 0.6586,-0.5688 0.8981,-0.8981c0.2095,-0.3592 0.0898,-0.928 0.449,-1.1974c0.2994,-0.2695 0.8083,-0.3293 1.1975,-0.1497c0.3892,0.1796 0.5688,0.6287 0.7484,1.0478c0.2994,0.7484 0.2096,1.6465 0.5987,2.3949c0.1797,0.3892 0.6587,0.6287 1.0478,0.8981c1.0179,0.6886 2.0956,1.2574 3.1434,1.9459c0.3592,0.2096 0.6586,0.5089 1.0478,0.7484c0.3592,0.2096 0.7784,0.3593 1.1975,0.5988c0.3293,0.1796 0.7185,0.3592 1.0478,0.5987c1.2573,0.8981 3.7421,2.844 3.7421,2.844c0,0 0.5388,0.7484 0.8981,1.0478c0.2993,0.2395 0.6634,0.482 1.0478,0.5987c1.3621,0.4132 2.7392,0.9107 4.1612,1.0478c1.7243,0.1665 3.487,0.003 5.209,-0.2395c0.6059,-0.0598 1.1454,-0.3838 1.7064,-0.6586c0.361,-0.176 0.6885,-0.4191 1.0478,-0.5987c0.7484,-0.4491 1.5567,-0.8083 2.2452,-1.3472c0.6287,-0.5688 1.0778,-1.3172 1.6466,-1.9459c0.2694,-0.3592 0.5388,-0.7484 0.8981,-1.0478c0.2993,-0.2993 0.6885,-0.5089 1.0478,-0.7484c0.3293,-0.2694 0.6586,-0.5688 1.0478,-0.7484c0.3592,-0.1796 0.7783,-0.1796 1.1974,-0.2994c0.3892,-0.1496 0.7784,-0.3293 1.1975,-0.449c0.3892,-0.1497 0.7784,-0.3293 1.1975,-0.4491c0.3892,-0.1497 0.7783,-0.2694 1.1975,-0.2993c0.3891,-0.0599 0.7783,0 1.1974,0c0.7784,0 1.5867,-0.1797 2.395,0c0.8382,0.1796 1.7064,0.5089 2.3949,1.0478c0.7484,0.5688 1.7962,2.2452 1.7962,2.2452c0.1497,0.2994 1.0478,0.8682 1.4969,1.1975c0.3592,0.2694 0.6586,0.6287 1.0478,0.8981c0.2993,0.2096 0.6586,0.4191 1.0478,0.5987c0.7184,0.3293 1.4669,0.5988 2.2452,0.8981c0.3892,0.1497 0.7784,0.3293 1.1975,0.4491c0.3892,0.0898 0.7783,0.1197 1.1975,0.1497c0.3891,0 0.7783,0 1.1974,0c0.3892,0 0.7784,0 1.1975,0c0.3892,-0.03 0.8083,-0.03 1.1975,-0.1497c0.3892,-0.1796 0.6586,-0.5688 1.0478,-0.7484c0.3592,-0.2096 0.7783,-0.3892 1.1975,-0.4491c0.3891,-0.0898 0.7783,0 1.1974,0c0.3892,-0.0299 0.8083,-0.0299 1.1975,-0.1497c0.3592,-0.1497 0.6885,-0.4191 1.0478,-0.5987c0.3293,-0.2096 0.6885,-0.3892 1.0478,-0.5987c0.3592,-0.2395 0.7185,-0.479 1.0478,-0.7485c0.6286,-0.5688 1.1675,-1.2274 1.7962,-1.7962c0.3293,-0.3293 0.6885,-0.5987 1.0478,-0.8981c0.2993,-0.2993 0.5688,-0.6287 0.8981,-0.8981c0.3293,-0.3293 0.6586,-0.6586 1.0478,-0.8981c0.2993,-0.2395 0.6622,-0.476 1.0478,-0.5987c0.3688,-0.1395 0.7963,-0.1294 1.1974,-0.1497c1.2065,-0.0617 2.4153,-0.118 3.6224,-0.1198c1.1873,0.0018 2.377,0.0952 3.5625,0.1198c0.3987,0.0084 0.7783,-0.0299 1.1974,0c0.4491,0 0.8981,0.0599 1.3472,0.1497c0.3892,0.0598 0.7784,0.1497 1.1975,0.2993c0.3892,0.1198 0.7783,0.2695 1.1974,0.4491c0.3892,0.1497 0.7784,0.3592 1.1975,0.5987c0.3293,0.1797 0.6586,0.3892 1.0478,0.5988c0.1198,0.0598 0.4491,0.1497 0.4491,0.1497c-0.1497,0.449 0.5089,0.9879 0.8981,1.1974c0.7484,0.3593 1.5567,0.6586 2.3949,0.8981c0.3593,0.0898 0.7784,0.0599 1.1975,0.1497c0.3892,0.0599 0.7784,0.2096 1.1975,0.2994c0.7783,0.1197 1.5866,0.2395 2.3949,0.2994c0.7784,0.0299 1.5867,-0.0599 2.395,0c0.3891,0 0.7783,0.0299 1.1974,0.1496c0.4491,0.0898 0.8981,0.2096 1.3472,0.4491c0.7784,0.3892 1.5866,0.7484 2.2453,1.3471c0.6286,0.5688 0.8681,1.4969 1.4968,2.0956c0.2994,0.2695 0.7484,0.3593 1.1975,0.4491c0.4191,0.0599 0.8981,-0.03 1.3471,0c0.3892,0 0.7784,0.1197 1.1975,0.1497c0.928,0.0299 2.844,0 2.844,0c-0.1497,0 1.6465,-0.0898 2.5446,-0.1497c0.4491,-0.0599 0.8981,-0.1198 1.3472,-0.1497c0.3892,-0.0599 0.7784,-0.1198 1.1975,-0.1497c0.3891,-0.0599 0.7783,-0.1197 1.1974,-0.1497c0.4192,-0.0598 0.8981,-0.0898 1.3472,-0.1497c0.4491,-0.0898 0.8981,-0.2095 1.3472,-0.2993c0.3891,-0.1198 0.8083,-0.1796 1.1974,-0.2994c0.8083,-0.3293 1.5867,-0.6885 2.395,-1.0478c0.3592,-0.1796 0.7185,-0.3892 1.0478,-0.5987c0.3592,-0.2695 0.6286,-0.7185 1.0478,-0.8981c0.6885,-0.3593 1.4369,-0.6886 2.2452,-0.7484c0.4191,-0.0599 0.8383,0.1796 1.1975,0.449c0.3293,0.2395 0.3892,0.7784 0.7484,1.0478c0.6586,0.5389 1.4669,0.8981 2.2453,1.3472c0.3293,0.1796 0.6885,0.3891 1.0478,0.5987c1.0777,0.5987 2.1554,1.2274 3.293,1.7962c0.3593,0.1796 0.7784,0.2994 1.1975,0.4491c0.3892,0.1197 0.7784,0.2095 1.1975,0.2993c0.2395,0.03 0.7484,0 0.7484,0c0,0 2.6943,0.1796 4.0415,0.2994c0.3891,0.0299 0.7783,0.0898 1.1974,0.1497c0.3892,0.0299 0.7784,0.1197 1.1975,0.1497c0.3892,0 0.7784,0 1.1975,0c0.3892,0 0.7783,0 1.1975,0c0.449,-0.03 0.8981,-0.1198 1.3471,-0.1497c0.4191,-0.0599 0.8981,-0.03 1.3472,-0.1497c0.8083,-0.2395 1.5866,-0.5688 2.3949,-0.8981c0.8083,-0.3593 1.5567,-0.8682 2.395,-1.1975c0.3592,-0.1796 0.7783,-0.2694 1.1975,-0.2994c0.3891,-0.0598 0.7783,-0.0898 1.1974,0c0.3892,0.0599 0.8083,0.2096 1.1975,0.4491c0.3892,0.2096 0.6586,0.5987 1.0478,0.8981c0.3293,0.2395 0.6586,0.5089 1.0478,0.7484c0.7185,0.4491 1.4669,0.9281 2.2452,1.3472c0.3593,0.1796 0.7784,0.2993 1.1975,0.449c0.3892,0.1497 0.7784,0.3293 1.1975,0.4491c0.7783,0.1796 1.5866,0.3293 2.3949,0.449c0.3892,0.03 0.7784,-0.0598 1.1975,0c0.1796,0 0.5987,0.1497 0.4491,0.2994l0.1496,84.1225l-83.6734,0.4491l-202.3731,0.5987z" fill="#ff7050"/><path d="M113.70851,192.63307c0,0 -1.1579,-0.0359 -1.7363,-0.0299c-0.3993,0.0042 -1.3477,0.2634 -1.1975,0.0599c0.2946,-0.3988 1.6855,-0.6101 2.1256,-1.3172c0.2263,-0.3635 -0.5389,-0.7137 -0.5988,-1.1376c-0.0569,-0.4048 0.2114,-0.7928 0.2694,-1.1975c0.0426,-0.2964 0.03,-0.8981 0.03,-0.8981" fill="none"/><path d="M123.82721,180.62847c0,0 -0.024,0.8598 -0.0599,1.2872c-0.0335,0.4006 -0.3251,0.8359 -0.1497,1.1975c0.1964,0.406 1.1275,0.6125 1.1077,0.7784c-0.0198,0.1658 -0.9532,-0.3455 -1.1975,-0.03c-0.3293,0.4257 -0.0299,1.6166 -0.0299,1.6166" fill="none"/><path d="M137.02931,190.20827c0.0941,-0.1162 0.1168,0.1389 0.1797,0.3293c0.2508,0.761 0.3736,1.5687 0.6885,2.3051c0.1599,0.3742 0.5491,0.6179 0.7185,0.9879c0.1665,0.3628 0.5017,0.8754 0.2694,1.1676c-0.2317,0.2915 -0.7999,-0.033 -1.1974,0c-0.4425,0.0371 -0.9514,0.461 -1.3173,0.2095c-0.3305,-0.2269 0.0168,-0.8209 -0.1197,-1.1975c-0.1605,-0.4418 -0.7359,-0.7274 -0.7484,-1.1974c-0.0108,-0.409 0.4814,-0.6646 0.6885,-1.0179c0.3024,-0.5155 0.4622,-1.122 0.6586,-1.437z" fill="#ff7050"/><path d="M145.77091,196.10577c0,0 -1.4022,0.1473 -1.7363,-0.2395c-0.2347,-0.2718 0.3161,-0.7795 0.5987,-1.0777c0.2838,-0.2988 1.0765,-0.3479 1.0478,-0.6586c-0.0311,-0.3329 -1.0969,-0.2527 -1.1675,-0.6287c-0.0641,-0.3425 0.6017,-0.5359 0.8981,-0.8083c0.1922,-0.1766 0.5688,-0.5388 0.5688,-0.5388" fill="none"/><path d="M144.57341,199.75807v-3.0236" fill="none"/><path d="M188.90991,196.10577c0,0 -2.1315,0.1557 -2.6644,-0.2095c-0.2754,-0.1886 0.6814,-0.6209 1.0478,-0.8981c0.3329,-0.2521 1.0628,-0.3509 1.0478,-0.6886c-0.015,-0.3509 -0.7233,-0.4862 -1.1077,-0.6885c-0.3556,-0.1874 -1.1358,-0.2264 -1.1076,-0.479c0.0317,-0.2862 0.9394,-0.2473 1.2274,-0.5988c0.2652,-0.3239 0.2694,-1.2274 0.2694,-1.2274" fill="none"/><path d="M187.44301,196.01597v4.3708" fill="none"/><path d="M206.87201,194.33947c-0.3562,0.3413 -1.4064,0.2952 -1.886,-0.0299c-0.3808,-0.2581 -0.1611,-0.9185 -0.1198,-1.3771c0.109,-1.2064 0.391,-3.4439 0.5688,-3.5924c0.1779,-0.1485 0.2749,1.8118 0.509,2.6943c0.1958,0.7376 1.0508,1.5088 0.7783,2.1555z" fill="none"/><path d="M205.88411,200.59627c0,0 -0.2557,-1.9524 -0.2994,-2.9338c-0.076,-1.713 -0.0598,-5.1491 -0.0598,-5.1491" fill="none"/><path d="M242.34721,199.18927c0,0 -1.1777,0.3658 -1.3771,0.0898c-0.1898,-0.2628 0.3347,-0.8191 0.5987,-1.1675c0.2431,-0.3209 0.973,-0.5688 0.8981,-0.8083c-0.0748,-0.2395 -0.9508,0.1676 -1.1974,-0.1497c-0.2467,-0.3173 0.1029,-0.7981 0.1496,-1.1975c0.0527,-0.4484 0.1497,-1.3471 0.1497,-1.3471" fill="none"/><path d="M272.73311,197.48287c0,0 0.1203,0.6963 0.1497,1.0478c0.0401,0.4772 0.0401,0.9586 0.0598,1.437" fill="none"/><path d="M272.61331,191.79487c0,0 0.0725,0.0784 0.0898,0.1796c0.0689,0.406 0.1497,0.8155 0.1497,1.2274c0,0.4611 0.0611,0.967 -0.1497,1.3771c-0.188,0.3659 -1.01,0.4676 -0.9579,0.7784c0.0526,0.3179 0.8071,0.2628 1.1675,0.479c0.3461,0.2077 1.0196,0.5107 0.928,0.7783c-0.1029,0.3012 -0.8669,0.297 -1.3172,0.3593c-0.5634,0.0778 -1.7064,0.0599 -1.7064,0.0599" fill="none"/><path d="M289.19831,192.00447c0,0 0.1659,-1.9411 0.2994,-2.9039c0.0563,-0.4048 0.1156,-1.4286 0.2694,-1.1975c0.3461,0.5191 0.4551,1.8304 0.7485,2.7243c0.1365,0.4155 0.3592,0.7987 0.5388,1.1974c0.1796,0.3988 0.5389,1.1975 0.5389,1.1975" fill="none"/><path d="M289.82701,190.53757v3.2032" fill="none"/><path d="M295.66471,194.51917c-0.1569,0.258 -0.5047,-1.2448 -0.5688,-1.8861c-0.0515,-0.5191 0.3838,-1.0765 0.1796,-1.5567c-0.1706,-0.4017 -1.0454,-0.294 -1.1076,-0.7484c-0.1204,-0.7598 0.3628,-1.4944 0.6586,-2.2453c0.1515,-0.3832 0.3029,-1.0549 0.6586,-1.0477c0.3928,0.0077 0.6879,0.6484 0.8382,1.0777c0.303,0.8634 0.6053,1.9866 0.479,2.6344c-0.0533,0.2952 -0.6089,-0.8478 -0.8382,-0.7484c-0.2395,0.1054 -0.0581,0.8191 -0.0898,1.2274c-0.0845,1.0891 -0.0426,2.9656 -0.2096,3.2931z" fill="#ff7050"/><path d="M323.53591,195.86627c0,0 0.0299,0.6389 0.0299,0.958c0,0.4185 0.2665,0.961 -0.0299,1.2573c-0.3036,0.3036 -1.2112,-0.146 -1.2873,0.0599c-0.0736,0.1982 0.6329,0.5383 0.9879,0.7484c0.3575,0.2114 0.8167,0.2461 1.1376,0.509c0.3102,0.2544 1.0071,0.8352 0.6886,0.9879c-0.7442,0.3562 -2.8141,0.0299 -2.8141,0.0299" fill="none"/><path d="M323.77541,207.90087v-7.0651" fill="none"/><path d="M329.82261,208.58947l0.1797,0.1796" fill="none"/><path d="M330.33161,208.76907c0.5682,0.0102 1.1388,-0.0024 1.7064,0.0299c0.3113,0.018 0.928,0.1198 0.928,0.1198" fill="none"/><path d="M330.57111,208.91877l0.1796,0.1796" fill="none"/><path d="M338.08521,195.20767c0,0 -0.0024,-0.1 0,0c0.0102,0.3988 0.1168,0.8083 0.03,1.1975c-0.0875,0.3916 -0.7143,0.7993 -0.5389,1.0777c0.1838,0.2904 1.3597,-0.2425 1.2573,0.0599c-0.2119,0.6257 -1.886,1.7962 -1.886,1.7962" fill="none"/><path d="M347.81471,194.24967c0,0 -0.2808,0.9903 -0.2694,1.4969c0.0095,0.4233 0.5658,0.8765 0.3293,1.2274c-0.2635,0.391 -1.5532,0.0652 -1.3771,0.3293c0.3329,0.4993 2.4225,0.9687 2.3949,1.1975c-0.0275,0.2287 -2.5446,0.0598 -2.5446,0.0598" fill="none"/><path d="M347.69491,198.88987v3.7122" fill="none"/><path d="M376.88341,202.06317c0.1323,-0.3364 0.5197,-0.54 0.5987,-0.8681c0.094,-0.3898 -0.2922,-0.8359 -0.1197,-1.1975c0.176,-0.3694 0.6214,-0.7915 1.0178,-0.6885c0.406,0.1053 0.6484,0.6915 0.5987,1.1076c-0.0485,0.406 -1.0058,0.5251 -0.8382,0.8981c0.3323,0.7383 2.1836,1.2119 1.916,1.4969c-0.297,0.3167 -2.1261,0.0179 -3.1434,-0.2395c-0.2545,-0.0641 -0.097,-0.3629 -0.0299,-0.509z" fill="none"/><path d="M378.17071,202.99127v1.9159z" fill="none"/><path d="M377.87131,201.97337l0.1796,0.1797" fill="none"/><path d="M378.29041,200.17717l0.1796,0.1796" fill="none"/></g></g></svg>