<svg version="1.1" xmlns="http://www.w3.org/2000/svg" xmlns:xlink="http://www.w3.org/1999/xlink" width="288.7278" height="87.95444" viewBox="0,0,288.7278,87.95444"><g transform="translate(-95.3328,-205.93358)"><g data-paper-data="{&quot;isPaintingLayer&quot;:true}" fill-rule="nonzero" stroke-linejoin="miter" stroke-miterlimit="10" stroke-dasharray="" stroke-dashoffset="0" style="mix-blend-mode: normal"><path d="M103.64416,235.39142c-3.7511,-2.7979 -4.9701,-8.1356 -7.125,-12.1244c-0.5388,-0.9975 -0.7556,-1.6208 -0.5987,-2.4249c0.1227,-0.5622 0.9879,-0.6287 1.4968,-0.8981c0.3892,-0.2395 0.7485,-0.5089 1.1975,-0.5988c1.1676,-0.2993 2.365,-0.449 3.5924,-0.5987c0.3892,-0.0599 0.7784,0 1.1975,0c1.1675,0 2.395,-0.0898 3.5924,0c0.3892,0 0.7784,0.2694 1.1975,0.2994c1.1675,0.0599 2.395,0.1497 3.5924,0c0.8383,-0.1497 1.5567,-0.7185 2.395,-0.8981c0.7783,-0.2096 1.5866,-0.2695 2.3949,-0.2994c2.365,-0.1497 4.7899,-0.2994 7.1849,-0.2994c0.5987,0 0.8382,0.0599 1.1974,0.2994c0.7485,0.479 1.3173,1.2873 2.0956,1.7962c0.3293,0.2096 0.7784,0.1796 1.1975,0.2994c0.3892,0.0898 0.8382,0.0898 1.1975,0.2994c0.3592,0.2095 0.5089,0.6885 0.8981,0.8981c0.3293,0.1796 0.7783,0.2395 1.1974,0.2993c0.3892,0.03 0.7784,-0.0598 1.1975,0c0.3892,0.03 0.7784,0.2395 1.1975,0.2994c0.3892,0.0299 0.7784,-0.0898 1.1975,0c0.8083,0.1197 1.5567,0.4491 2.3949,0.5987c0.3892,0.0599 0.7784,-0.0898 1.1975,0c0.8083,0.1198 1.5866,0.4192 2.3949,0.5988c0.7784,0.1197 1.2873,0.2694 2.395,0.2993c4.3708,0.0599 8.7715,0 13.1722,0c1.0777,0 0.6287,0.0899 1.1975,0c2.1854,-0.449 4.3708,-1.0777 6.5861,-1.4968c0.5388,-0.1197 0.8382,0.1497 1.1975,0c0.1496,-0.0898 0,-0.5987 0,-0.5987c0,0.449 1.7962,0.5089 2.6943,0.5987c0.3891,0.0299 0.7783,0.1197 1.1974,0.1497c0.3892,0 0.7784,0 1.1975,0c0.3892,-0.03 0.7784,-0.0898 1.1975,-0.1497c0.3892,-0.0898 0.8083,-0.1497 1.1975,-0.2994c0.3592,-0.1497 0.7184,-0.3592 1.0478,-0.5987c0.3293,-0.2694 0.5688,-0.6287 0.8981,-0.8981c0.2993,-0.2994 0.6586,-0.5688 1.0478,-0.7484c0.3592,-0.2096 0.7783,-0.3892 1.1974,-0.4491c0.3892,-0.0898 0.7784,-0.0599 1.1975,0c0.7784,0.0599 1.5867,0.2096 2.3949,0.2994c0.3892,0.0299 0.7784,0 1.1975,0c0.3892,0 0.8083,0.1497 1.1975,0c0.3592,-0.1796 0.5389,-0.6586 0.8981,-0.8981c0.6287,-0.479 1.407,-0.7784 2.0956,-1.1975c0.3592,-0.2395 0.6586,-0.5688 1.0478,-0.7484c0.3592,-0.2096 0.8083,-0.2695 1.1974,-0.4491c0.3593,-0.2095 0.6886,-0.5089 1.0478,-0.7484c0.3293,-0.2694 0.7784,-0.4191 1.0478,-0.7484c0.479,-0.6586 0.8682,-1.3771 1.1975,-2.0956c0.1497,-0.3892 0,-0.8382 0.1497,-1.1975c0.1497,-0.4191 0.4191,-0.7783 0.7484,-1.0478c0.5688,-0.5688 1.1675,-1.2573 1.9459,-1.4968c0.3892,-0.1497 0.7784,0.2994 1.1975,0.4491c0.3891,0.1197 0.7783,0.1796 1.1974,0.2993c0.8383,0.2096 1.6765,0.479 2.5447,0.7484c0.3892,0.1198 0.7783,0.2994 1.1974,0.4491c0.3892,0.1197 0.8083,0.2096 1.1975,0.449c0.3892,0.2096 0.7185,0.5688 1.0478,0.8982c0.958,0.9579 2.844,2.9936 2.844,2.9936c-0.1497,0.1497 0.7484,0.3892 1.1975,0.5988c0.3592,0.1497 0.6586,0.479 1.0478,0.5987c0.7484,0.1796 1.5866,0.2395 2.3949,0.2994c0.3892,0 0.7784,-0.0599 1.1975,-0.1497c0.3892,-0.1198 0.7784,-0.2994 1.1975,-0.4491c0.3892,-0.1796 0.7783,-0.3891 1.1974,-0.5987c0.6886,-0.3892 1.4071,-0.7784 2.0956,-1.1975c0.3593,-0.2694 0.6586,-0.6286 1.0478,-0.8981c0.3293,-0.2694 0.6586,-0.5688 1.0478,-0.7484c0.3592,-0.1796 0.7784,-0.2694 1.1975,-0.2994c1.5866,-0.1197 3.2032,-0.3592 4.7899,-0.1496c0.928,0.0898 1.8261,0.5987 2.6943,1.0477c1.0777,0.5389 2.1255,1.2275 3.1434,1.9459c0.8382,0.5688 1.5567,1.3173 2.3949,1.9459c0.3592,0.2695 0.7784,0.479 1.1975,0.7485c0.3293,0.2095 0.6586,0.5388 1.0478,0.7484c1.1974,0.5688 2.4847,0.9879 3.7421,1.4968c0.4191,0.1497 0.8981,0.2994 1.3471,0.4491c0.1198,0.0299 0.4491,0.1497 0.4491,0.1497c-0.2994,0.1496 0.5987,0.1496 1.0478,0.2993c0.8083,0.2096 1.5866,0.6287 2.3949,0.8981c0.3892,0.1198 0.7784,0.1497 1.1975,0.2994c0.2395,0.0599 0.7484,0.2994 0.7484,0.2994c0.2994,-0.1497 1.1975,-0.2994 1.6465,-0.4491c0.7485,-0.2994 1.467,-0.7484 2.2453,-1.0478c0.3593,-0.1796 0.7784,-0.1796 1.1975,-0.2993c0.3892,-0.1497 0.7783,-0.3294 1.1975,-0.4491c0.3891,-0.1497 0.7783,-0.2694 1.1974,-0.2994c0.3892,-0.0598 0.7784,-0.0299 1.1975,0c0.3892,0 0.8083,0 1.1975,0.1497c0.4191,0.1198 0.7783,0.4191 1.1975,0.5988c0.3891,0.1496 0.8082,0.2394 1.1974,0.449c0.3593,0.1497 0.6586,0.4491 1.0478,0.5987c0.3593,0.1497 0.7784,0.2395 1.1975,0.2994c0.3892,0.03 0.7484,-0.0898 1.1975,0c1.6764,0.2395 3.3828,0.5988 5.0892,0.8981c0.7784,0.1198 1.5867,0.1497 2.395,0.2994c0.3892,0.0599 0.7783,0.1796 1.1975,0.2994c0.3891,0.0898 0.8082,0.0898 1.1974,0.2993c0.3892,0.2096 0.7484,0.509 1.0478,0.8981c0.4191,0.5688 1.0478,1.9459 1.0478,1.9459c0.1497,0.2994 1.7663,0.3892 2.5446,0.1497c1.1676,-0.3892 2.2154,-1.0478 3.2931,-1.6465c1.0777,-0.6586 1.9159,-1.7364 3.1434,-2.0956c1.5267,-0.479 3.1733,-0.2694 4.7899,-0.2994c0.7783,-0.0299 1.5866,0 2.3949,0.1497c0.8083,0.1198 1.5867,0.3593 2.3949,0.5988c0.3892,0.0898 0.8083,0.2395 1.1975,0.449c0.7484,0.3593 1.4969,0.7784 2.2453,1.1975c0.6885,0.3592 1.3771,0.7783 2.0956,1.1975c0.3293,0.1796 0.6286,0.5089 1.0478,0.5987c0.3891,0.0599 0.7783,-0.1198 1.1974,-0.1497c0.3892,-0.0599 0.7784,-0.1497 1.1975,-0.1497c0.3892,-0.0299 0.7784,0.03 1.1975,0c0.3892,-0.0598 0.7783,-0.2395 1.1975,-0.2993c1.1675,-0.2096 2.3949,-0.3293 3.5924,-0.4491c0.4191,-0.0599 0.8681,-0.1497 1.3471,-0.1497c0.3892,-0.0299 0.7784,0 1.1975,0c0.4191,0 0.8981,-0.0599 1.3472,0c0.3891,0.03 0.7783,0.2096 1.1974,0.2994c0.3892,0.0599 0.7784,0.1497 1.1975,0.1497c0.3892,0 0.7784,-0.1497 1.1975,-0.1497c0.3892,-0.0299 0.7783,0.0599 1.1975,0c0.3891,-0.0898 0.7783,-0.3293 1.1974,-0.4491c0.3892,-0.1496 0.7784,-0.2095 1.1975,-0.2993c0.0898,-0.03 0,0 0,0c-0.449,0.2993 1.2574,-0.6886 2.0956,-1.1975c0.3592,-0.2395 0.6885,-0.5089 1.0478,-0.7484c0.3592,-0.2994 0.6586,-0.6287 1.0478,-0.8981c0.3293,-0.2695 0.7184,-0.479 1.0478,-0.7485c0.2993,-0.2993 0.5987,-0.6286 0.8981,-0.8981c0.2694,-0.2993 0.5987,-0.5987 0.8981,-0.8981c0.5388,-0.6586 1.0178,-1.3771 1.6465,-1.9459c0.2694,-0.2993 0.6885,-0.4191 1.0478,-0.5987c0.3892,-0.2395 0.7783,-0.4491 1.1975,-0.5987c0.3592,-0.1497 0.7783,-0.2695 1.1974,-0.2994c0.3892,-0.0599 0.8083,-0.1198 1.1975,0c0.4191,0.0898 0.7784,0.4191 1.1975,0.5987c0.4191,0.1797 0.8681,0.2994 1.3471,0.4491c0.3892,0.0898 0.7784,0.1497 1.1975,0.2994c0.3892,0.1197 0.8083,0.2394 1.1975,0.449c1.3471,0.6586 2.6943,1.3771 4.0415,2.0956c0.5388,0.2694 1.0477,0.6885 1.6465,0.8981c0.3592,0.1197 0.8083,0.1197 1.1975,0c0.8681,-0.2994 1.6465,-0.8682 2.5446,-1.1975c0.3592,-0.1796 0.7783,-0.2395 1.1975,-0.2994c0.5388,-0.0898 1.0777,-0.1197 1.6465,-0.1496c0.479,-0.0599 0.9879,-0.0898 1.4968,-0.1497c0.3892,-0.0898 0.7784,-0.2096 1.1975,-0.2994c0.3892,-0.1197 0.8083,-0.1796 1.1975,-0.2994c0.3892,-0.1796 0.7783,-0.449 1.1975,-0.5987c0.3891,-0.1796 0.7783,-0.3592 1.1974,-0.449c0.3892,-0.1198 0.7784,-0.0599 1.1975,-0.1497c0.3892,-0.1198 0.7784,-0.3293 1.1975,-0.4491c0.3892,-0.1497 0.7783,-0.2694 1.1974,-0.2994c0.3892,-0.0598 0.7784,-0.0898 1.1975,0c0.1497,0.03 0.4491,0.2994 0.4491,0.2994c0,0 1.1675,-0.1197 1.7962,-0.1497c0.3892,-0.0299 0.7783,0 1.1975,0c0.4191,0 0.8981,-0.1197 1.3471,0c1.2574,0.2994 2.4249,1.0478 3.7421,1.1975c1.2274,0.1198 2.4848,-0.3892 3.7421,-0.449c1.7663,-0.0899 3.5925,-0.0599 5.3887,0c0.8382,0 1.6764,0.0598 2.5446,0.1496c0.5987,0.0599 1.7962,0.2994 1.7962,0.2994c0.1198,-0.0299 0.5987,0.0898 1.0478,0.2994c0.1497,0.0598 0.449,0.2993 0.449,0.2993c-0.1496,0.1497 -0.0598,2.4249 0,3.5925c0,0.3891 -0.0299,0.7783 0,1.1974c0.03,0.7784 0.0899,1.5867 0.1497,2.395c0,0.3892 0,0.7783 0,1.1975c0,0.7783 0,1.5866 0,2.3949c0,0.3892 0.0348,0.7844 0,1.1975c-0.0574,0.394 -0.0155,0.3628 -0.2993,1.1975c-1.134,3.3379 -0.0036,9.0792 -3.3829,10.1485c-12.9627,3.8799 31.7109,4.0607 -40.5046,3.1434l-216.8625,-2.7542c-18.0705,-0.734 -13.4416,-2.9128 -18.6207,-6.7657z" fill="#59043a" stroke="#59043a" stroke-width="1.19747" stroke-linecap="round"/><path d="M105.64996,217.69872c-0.0737,0.6772 -0.2994,-0.5634 -0.2994,-1.1975c0,-0.4191 0.1982,-1.0849 0.5389,-1.1376c0.3329,-0.052 0.8083,0.5186 0.8083,0.9281c0,0.7293 -0.4718,1.9836 -0.8083,2.0357z" fill="none" stroke="#59043a" stroke-width="1.19747" stroke-linecap="round"/><path d="M119.81006,214.85472c0,0 -0.6269,-0.5478 -0.8382,-0.8981c-0.2066,-0.3431 -0.106,-0.8544 -0.3892,-1.1376c-0.2922,-0.2922 -1.025,-0.0437 -1.1675,-0.4191c-0.1419,-0.373 0.4173,-0.7095 0.5987,-1.0777c0.1778,-0.3605 0.1736,-0.846 0.479,-1.1077c0.3137,-0.2694 0.7993,-0.4407 1.1975,-0.3293c0.3939,0.1102 0.9208,0.5892 0.8382,0.8981c-0.082,0.3048 -1.1951,-0.0736 -1.1675,0.3293c0.0604,0.8867 1.2789,1.4184 1.3471,2.3052c0.0311,0.4023 -1.1226,0.173 -1.1376,0.4191c-0.015,0.2478 0.7311,0.358 1.0777,0.5688c0.3425,0.2083 1.0329,0.4418 0.988,0.6885c-0.045,0.2473 -0.77,0.2425 -1.1676,0.2994c-0.7927,0.1131 -1.6022,0.097 -2.3949,0.2095c-0.4072,0.0575 -1.1975,0.2994 -1.1975,0.2994" fill="none" stroke="#59043a" stroke-width="1.19747" stroke-linecap="round"/><path d="M119.75016,213.11842c-0.4688,-0.3491 -1.022,-0.6083 -1.407,-1.0478c-0.1994,-0.2275 -0.2694,-0.8682 -0.2694,-0.8682" fill="none" stroke="#59043a" stroke-width="1.19747" stroke-linecap="round"/><path d="M118.85206,211.44192l-0.1796,-0.1796" fill="none" stroke="#59043a" stroke-width="1.19747" stroke-linecap="round"/><path d="M122.56426,215.87262c0.4431,-0.4862 0.5646,-0.8963 0.6586,-1.2873c0.0964,-0.4018 0.2605,-1.1675 0.4191,-1.1675c0.1587,0 0.3419,0.7681 0.2994,1.1675c-0.0425,0.3987 -0.3036,0.7526 -0.5389,1.0777c-0.0682,0.0946 -0.3101,0.2347 -0.3293,0.1198z" fill="none" stroke="#59043a" stroke-width="1.19747" stroke-linecap="round"/><path d="M138.43076,214.25602c0,0 -0.1898,0.6897 -0.3293,1.0178c-0.1706,0.4024 -0.8711,0.8257 -0.5987,1.1676c0.537,0.6736 1.974,0.6364 2.365,1.0478c0.1862,0.1958 -0.8257,0.0233 -1.1975,0.1796c-0.4077,0.1718 -1.1226,0.4784 -1.0777,0.7783c0.0449,0.2988 0.8388,0.2797 1.2573,0.4192c0.3886,0.1293 1.1676,0.243 1.1676,0.3891c0,0.1461 -0.7706,0.2389 -1.1676,0.2994c-0.9118,0.1395 -2.7542,0.2994 -2.7542,0.2994" fill="none" stroke="#59043a" stroke-width="1.19747" stroke-linecap="round"/><path d="M142.50216,217.48922c0,0 0.1228,0.4586 0.1797,0.6885c0.1125,0.458 0.1784,0.9304 0.3293,1.3771c0.1299,0.3844 0.7077,0.8239 0.5089,1.1077c-0.2203,0.3149 -1.3472,0.0898 -1.3472,0.0898" fill="none" stroke="#59043a" stroke-width="1.19747" stroke-linecap="round"/><path d="M143.04106,226.73972v-4.7001" fill="none" stroke="#59043a" stroke-width="1.19747" stroke-linecap="round"/><path d="M157.05146,219.52492c0.0677,-0.0461 0.1318,-0.9628 0.479,-1.1676c0.2365,-0.1395 0.7251,0.6197 0.6586,1.0179c-0.0676,0.4053 -0.6041,0.5694 -0.9579,0.7783c-0.0887,0.0521 -0.2341,0.0563 -0.2096,-0.0898z" fill="none" stroke="#59043a" stroke-width="1.19747" stroke-linecap="round"/><path d="M162.26056,221.80012c-0.0515,-0.1904 -0.2246,-1.0796 0,-1.4969c0.1736,-0.3592 0.7184,-0.3592 1.0777,-0.479c0.3592,-0.1796 0.958,-0.1197 1.1376,-0.479c0.1197,-0.4191 -0.2994,-0.7783 -0.2994,-1.1974c-0.1197,-0.4191 -0.2395,-0.8383 -0.0599,-1.1975c0.2994,-0.7784 0.6586,-1.6765 1.437,-2.0956c0.3592,-0.1796 0.6586,0.479 0.8981,0.8383c0.1796,0.2993 0.2994,0.7783 0.2994,1.1974c-0.0599,0.3593 -0.3593,0.7185 -0.4191,1.1376c-0.0599,0.3593 0,0.7784 0.0598,1.1975c0,0.4191 0.1797,0.7784 0.2994,1.2573c0,0.1797 0,0.7185 0,0.7185c-0.0299,0 -1.7291,-0.0562 -2.5746,0.03c-0.5316,0.0545 -1.3178,0.5089 -1.5567,0.3892z" fill="#59043a" stroke="#59043a" stroke-width="1.19747" stroke-linecap="round"/><path d="M170.97216,219.22552c0.2616,-0.1437 0.5658,-1.1166 0.7185,-1.1675c0.1526,-0.0509 0.4825,0.7687 0.3891,1.1675c-0.0574,0.2455 -0.6514,0.4401 -0.7184,0.2395z" fill="none" stroke="#59043a" stroke-width="1.19747" stroke-linecap="round"/><path d="M171.69066,220.63252v5.1192" fill="none" stroke="#59043a" stroke-width="1.19747" stroke-linecap="round"/><path d="M199.53186,221.14152l0.03,1.8261z" fill="none" stroke="#59043a" stroke-width="1.19747" stroke-linecap="round"/><path d="M178.90536,214.34582c0,0 0.0437,0.3988 0.0599,0.5987c0.0335,0.4084 0.2946,0.8724 0.0898,1.2274c-0.2047,0.3557 -1.1076,0.5389 -1.1076,0.5389" fill="none" stroke="#59043a" stroke-width="1.19747" stroke-linecap="round"/><path d="M182.91696,210.48392c0,0 0.0251,-0.097 0,0c-0.1,0.3886 -0.2491,0.7694 -0.2994,1.1676c-0.0503,0.3957 -0.2401,0.8789 0,1.1975c0.3036,0.4023 1.3106,0.3376 1.3771,0.6286c0.0533,0.2329 -0.7682,0.2569 -1.1376,0.4191c-0.449,0.197 -1.2849,0.3904 -1.3172,0.6587c-0.0276,0.2257 0.8358,0.1287 1.1975,0.3293c0.3951,0.2191 1.2974,0.6933 1.0178,0.8981c-0.5586,0.4089 -2.6943,0.3293 -2.6943,0.3293" fill="none" stroke="#59043a" stroke-width="1.19747" stroke-linecap="round"/><path d="M208.51296,212.93882c-0.2329,-0.0138 0.182,-0.3132 0.2994,-0.4491c0.2628,-0.3041 0.5747,-0.5646 0.8382,-0.8682c0.2652,-0.3053 0.7807,-0.5544 0.7484,-0.9579c-0.0341,-0.4215 -0.8712,-0.476 -0.8981,-0.8981c-0.0263,-0.418 0.5257,-0.6539 0.7784,-0.988c0.2454,-0.3245 0.452,-1.0394 0.7184,-0.9879c0.2725,0.0533 0.2695,0.791 0.3593,1.1975c0.1796,0.8113 0.4628,1.6238 0.449,2.4548c-0.0071,0.4335 -0.1143,1.0185 -0.5089,1.1975c-0.849,0.3856 -1.8531,0.3556 -2.7841,0.5389z" fill="#59043a" stroke="#59043a" stroke-width="1.19747" stroke-linecap="round"/><path d="M217.04496,211.56172c0,0 -2.1926,0.3209 -2.844,-0.0599c-0.3215,-0.188 0.5706,-0.7448 0.8981,-1.0777c0.3125,-0.3174 1.0101,-0.4395 1.0178,-0.8682c0.0072,-0.4095 -0.8801,-0.397 -0.9879,-0.8083c-0.1042,-0.3976 0.3245,-0.7568 0.479,-1.1376c0.1449,-0.3568 0.4191,-1.0777 0.4191,-1.0777" fill="none" stroke="#59043a" stroke-width="1.19747" stroke-linecap="round"/><path d="M233.33056,211.47192c0,0 0.2425,0.5676 0.2994,0.8681c0.0742,0.3928 0.3491,0.8927 0.0898,1.1975c-0.2814,0.3305 -1.4232,-0.0772 -1.2873,0.2096c0.2683,0.5664 2.0064,1.0843 2.0956,1.4968c0.0671,0.3107 -1.7663,0.0299 -1.7663,0.0299" fill="none" stroke="#59043a" stroke-width="1.19747" stroke-linecap="round"/><path d="M237.25236,218.17772c0.6143,0.3179 0.1634,-0.8089 0.0299,-1.6465c-0.0635,-0.3964 0.1599,-1.3789 0.2994,-1.1676c0.2736,0.4156 0.4346,1.6466 0.5688,2.4848c0.0568,0.3545 0.1293,1.2735 0,1.0777z" fill="none" stroke="#59043a" stroke-width="1.19747" stroke-linecap="round"/><path d="M237.13256,218.95612v-2.874" fill="none" stroke="#59043a" stroke-width="1.19747" stroke-linecap="round"/><path d="M241.74286,215.21402c0,0 0.1006,0.4191 0.1497,0.6286c0.1101,0.4683 0.4335,0.9371 0.3293,1.4071c-0.0964,0.4347 -0.9281,0.5766 -0.8682,1.0178c0.0748,0.5521 1.1927,0.7604 1.1675,1.1975c-0.0197,0.3413 -1.2573,0.3592 -1.2573,0.3592" fill="none" stroke="#59043a" stroke-width="1.19747" stroke-linecap="round"/><path d="M245.36516,214.73502c0.4132,0.2479 0.4665,1.3711 0.7485,2.0357c0.167,0.3939 0.4334,0.7424 0.5987,1.1376c0.1653,0.3957 0.743,0.9849 0.3892,1.2274c-0.685,0.4694 -1.6549,0.2299 -2.4848,0.2095c-0.4203,-0.0101 -1.1508,-0.0245 -1.2274,-0.2993c-0.073,-0.2641 0.6604,-0.4766 0.9281,-0.7784c0.2861,-0.3227 0.6358,-0.6544 0.7184,-1.0777c0.0803,-0.4107 -0.3251,-0.8125 -0.2694,-1.2274c0.0605,-0.4509 0.3383,-1.3837 0.2994,-1.4969z" fill="#59043a" stroke="#59043a" stroke-width="1.19747" stroke-linecap="round"/><path d="M245.81426,221.47082v-2.0058z" fill="none" stroke="#59043a" stroke-width="1.19747" stroke-linecap="round"/><path d="M248.95766,220.12362c0,0 -0.1114,-2.6021 -0.03,-3.1434c0.0413,-0.2742 0.1539,0.9113 0.2994,1.3472c0.4538,1.3615 1.4968,4.0415 1.4968,4.0415" fill="none" stroke="#59043a" stroke-width="1.19747" stroke-linecap="round"/><path d="M252.22076,219.10582c-0.2581,-0.9939 -0.1246,-1.17 -0.2096,-1.2275c-0.3401,-0.2299 -1.0921,-0.2784 -1.0777,-0.5987c0.0156,-0.3532 1.0394,-0.3059 1.1376,-0.7484c0.2676,-1.2077 -0.3718,-3.3619 -0.1497,-3.7122c0.1958,-0.3083 0.9436,1.3675 1.1376,2.1555c0.1671,0.6783 -0.3503,1.4477 -0.0898,2.0955c0.1551,0.385 1.2963,0.3162 1.1376,0.509c-0.2527,0.3065 -1.3035,0.4131 -1.9758,0.5089z" fill="#59043a" stroke="#59043a" stroke-width="1.19747" stroke-linecap="round"/><path d="M255.93286,220.48282c0.0036,-0.246 0.1994,-1.8614 0.2695,-2.1554c0.0425,-0.1766 0.0161,0.682 -0.03,1.0178c-0.0514,0.3713 -0.2484,1.3029 -0.2395,1.1376z" fill="none" stroke="#59043a" stroke-width="1.19747" stroke-linecap="round"/><path d="M277.00846,225.66192c0.6706,-1.1525 0.2395,-4.2253 0.2095,-5.5682c-0.0125,-0.5634 0.6281,1.5729 0.8083,2.3949c0.1809,0.8227 0.2509,1.6729 0.2695,2.5147c0.0113,0.5018 -0.0707,1.9944 -0.1796,1.4969z" fill="none" stroke="#59043a" stroke-width="1.19747" stroke-linecap="round"/><path d="M281.64866,216.05222c0,0 0.1335,-2.9009 -0.0299,-3.0536c-0.1635,-0.1526 -0.4479,1.54 -0.8981,2.1854c-0.2485,0.3563 -1.3221,0.4485 -1.1077,0.6886c0.3994,0.4484 1.5849,0.382 2.3351,0.6885c0.4071,0.1665 1.1382,0.4383 1.1076,0.7185c-0.0293,0.2736 -0.825,0.2413 -1.2274,0.3892c-0.3856,0.1419 -1.1549,0.3574 -1.1376,0.479c0.0174,0.1215 0.8191,0.0952 1.2274,0.1497c0.8682,0.1155 2.501,-0.0473 2.6045,0.3592c0.103,0.4041 -1.4196,0.9316 -2.1854,1.2873c-0.3616,0.1682 -0.7759,0.1928 -1.1675,0.2694c-0.476,0.0928 -1.437,0.2395 -1.437,0.2395" fill="none" stroke="#59043a" stroke-width="1.19747" stroke-linecap="round"/><path d="M282.96586,227.06902c0,0 -0.4095,-1.6484 -0.5388,-2.4848c-0.1701,-1.0999 -0.3593,-3.323 -0.3593,-3.323" fill="none" stroke="#59043a" stroke-width="1.19747" stroke-linecap="round"/><path d="M287.33666,229.04482l-0.1796,-0.1796" fill="none" stroke="#59043a" stroke-width="1.19747" stroke-linecap="round"/><path d="M288.44436,222.60842v-2.2752z" fill="none" stroke="#59043a" stroke-width="1.19747" stroke-linecap="round"/><path d="M294.49156,223.23702c0,0 -1.1975,-0.461 -1.1975,-0.7783c0,-0.2814 1.0239,-0.0341 1.1975,-0.4191c0.1671,-0.3701 -0.3203,-0.7485 -0.5089,-1.1077c-0.121,-0.2299 -0.4191,-0.6586 -0.4191,-0.6586" fill="none" stroke="#59043a" stroke-width="1.19747" stroke-linecap="round"/><path d="M315.62696,222.78802c-0.8993,0.4233 -2.2369,0.5688 -3.2332,0.1497c-0.4101,-0.1725 0.3126,-0.8448 0.3593,-1.2873c0.0443,-0.4173 -0.1467,-0.8412 -0.0898,-1.2574c0.0652,-0.4778 0.2113,-0.9573 0.449,-1.3771c0.2012,-0.3562 0.5982,-1.1573 0.8383,-0.8981c0.5083,0.5491 0.4484,1.6747 0.6586,2.5147c0.0994,0.3964 0.0982,0.8263 0.2694,1.1975c0.179,0.3886 1.0915,0.8275 0.7484,0.958z" fill="#59043a" stroke="#59043a" stroke-width="1.19747" stroke-linecap="round"/><path d="M313.86066,227.39832v-3.7421" fill="none" stroke="#59043a" stroke-width="1.19747" stroke-linecap="round"/><path d="M318.56076,224.58422l0.1797,0.1796" fill="none" stroke="#59043a" stroke-width="1.19747" stroke-linecap="round"/><path d="M317.99196,224.73392l0.1797,0.1796" fill="none" stroke="#59043a" stroke-width="1.19747" stroke-linecap="round"/><path d="M322.00356,226.64982c0,0 -1.5208,-0.0628 -2.2752,-0.1496c-0.5437,-0.0629 -1.1143,-0.0821 -1.6166,-0.2994c-0.4904,-0.2126 -1.2873,-0.958 -1.2873,-0.958" fill="none" stroke="#59043a" stroke-width="1.19747" stroke-linecap="round"/><path d="M328.43996,213.53752c-0.1724,-0.6664 1.5938,-1.4208 1.8561,-2.3949c0.1077,-0.4006 -0.9107,-0.3174 -1.0179,-0.7185c-0.1036,-0.388 0.315,-0.7449 0.5389,-1.0778c0.2287,-0.34 0.5089,-0.9879 0.8083,-0.928c0.2993,0.0599 0.3143,0.7646 0.3892,1.1675c0.076,0.412 0.0395,0.8389 0.0598,1.2574c0.0192,0.3987 -0.1059,0.8346 0.0599,1.1975c0.176,0.3843 0.9502,0.5167 0.8981,0.8981c-0.0527,0.382 -0.6891,0.5592 -1.1077,0.6286c-0.816,0.136 -2.3428,0.5161 -2.6643,0.2695z" fill="#59043a" stroke="#59043a" stroke-width="1.19747" stroke-linecap="round"/><path d="M342.30076,216.68092c0.0113,0.4317 -0.7455,0.5364 -1.1676,0.479c-0.3658,-0.012 -0.7137,-0.3096 -0.8682,-0.6587c-0.1658,-0.3736 0.2419,-0.8981 0,-1.2274c-0.2826,-0.3849 -1.2399,-0.1969 -1.3172,-0.5688c-0.0724,-0.3466 0.685,-0.5718 1.0179,-0.8681c0.3053,-0.2719 0.6197,-0.9287 0.8981,-0.8383c0.2754,0.0893 0.0545,0.8239 0.2095,1.1975c0.3623,0.8682 1.2107,1.5615 1.2275,2.4848z" fill="#59043a" stroke="#59043a" stroke-width="1.19747" stroke-linecap="round"/><path d="M341.10326,217.96822l-0.03,2.814" fill="none" stroke="#59043a" stroke-width="1.19747" stroke-linecap="round"/><path d="M350.62316,216.26182c-0.1683,0.0455 -1.5537,-0.0132 -2.365,-0.0599c-0.4167,-0.0455 -1.0478,0.0898 -1.1975,-0.2695c-0.2095,-0.4191 0.2096,-0.928 0.5089,-1.2573c0.2695,-0.3592 1.0179,-0.3592 1.1376,-0.7784c0.0898,-0.4191 -0.6586,-0.6286 -0.7184,-1.0178c-0.0899,-0.5089 0.0898,-0.9879 0.2993,-1.437c0.1497,-0.3892 0.7185,-1.0178 0.7185,-1.0178c-0.0599,0.0598 -0.0275,0.8819 0.1198,1.2573c0.149,0.3808 0.6023,0.6179 0.6885,1.0179c0.0856,0.3957 -0.2796,0.7987 -0.2096,1.1974c0.0779,0.4437 0.379,0.8227 0.6287,1.1975c0.212,0.3173 0.8945,0.7862 0.7484,0.8682z" fill="#59043a" stroke="#59043a" stroke-width="1.19747" stroke-linecap="round"/><path d="M349.12636,217.39942v-1.1975z" fill="none" stroke="#59043a" stroke-width="1.19747" stroke-linecap="round"/><path d="M367.92666,217.60892c-0.2305,0.0629 -0.5353,-0.8646 -0.958,-1.1077c-0.4149,-0.2382 -1.437,-0.2394 -1.3471,-0.2993c0,0 1.1974,-1.437 1.3771,-2.3052c0.0598,-0.4191 -0.8982,-0.5987 -0.7485,-0.9579c0.2695,-0.8682 1.4071,-1.8262 1.7663,-2.0657c0.1796,-0.1497 -0.6586,0.7185 -0.5688,1.1376c0.0599,0.4191 0.8682,0.4491 0.928,0.8981c0.03,0.4191 -0.7484,0.5988 -0.7184,1.0478c0,0.4191 0.5388,0.6287 0.8382,0.958c0.2395,0.2994 0.867,0.5431 0.7784,0.958c-0.1952,0.7179 -1.0909,1.6118 -1.5268,1.6764z" fill="#59043a" stroke="#59043a" stroke-width="1.19747" stroke-linecap="round"/><path d="M376.81786,211.92092c0.1623,0.373 0.5593,0.6466 0.6287,1.0478c0.0695,0.4006 -0.3664,0.8113 -0.2395,1.1975c0.1341,0.4083 0.9975,0.6059 0.9281,0.8981c-0.0653,0.2766 -0.7916,0.2155 -1.1975,0.2395c-0.7963,0.0467 -1.831,0.3161 -2.395,-0.03c-0.2892,-0.1778 0.4904,-0.6598 0.6886,-1.0178c0.2221,-0.4024 0.5628,-0.7981 0.5688,-1.2574c0.0054,-0.4101 -0.5862,-0.7005 -0.5389,-1.1076c0.0814,-0.6964 0.5024,-1.9675 0.8981,-1.9759c0.3826,0.0234 0.3874,1.3795 0.6586,2.0058z" fill="#59043a" stroke="#59043a" stroke-width="1.19747" stroke-linecap="round"/><path d="M376.51856,217.01022l-0.1797,-0.1796c0,-0.2491 -0.0035,-1.0065 -0.0299,-1.4969c-0.0066,-0.1227 -0.0611,-0.2497 -0.0599,-0.1796z" fill="none" stroke="#59043a" stroke-width="1.19747" stroke-linecap="round"/><path d="M95.92046,229.82312h287.3937v64.0649h-287.3937z" fill="#59043a" stroke="none" stroke-width="0.59874" stroke-linecap="butt"/><path d="M138.12046,222.09272v-2.75" fill="none" stroke="#59043a" stroke-width="1" stroke-linecap="round"/><path d="M157.72046,224.19272v-2.9" fill="none" stroke="#59043a" stroke-width="1" stroke-linecap="round"/><path d="M182.22046,216.69272v2" fill="none" stroke="#59043a" stroke-width="1" stroke-linecap="round"/><path d="M210.22046,213.89272v1.5z" fill="none" stroke="#59043a" stroke-width="1" stroke-linecap="round"/><path d="M96.37046,221.24272l0.15,9.5" fill="none" stroke="#59043a" stroke-width="2" stroke-linecap="round"/></g></g></svg>